<svg width="58" height="61" viewBox="0 0 58 61" fill="none" xmlns="http://www.w3.org/2000/svg">
<path d="M8.82974 51.0437H10.73V60.7953H8.58587V54.2912L5.36498 58.2965L2.15359 54.3251V60.7953H0V51.0437H1.93507L5.36498 55.2894L8.82974 51.0437Z" fill="black"/>
<path d="M15.4299 58.4906L14.5716 60.7953H12.2787L16.2216 51.0499H18.5051L22.4449 60.7953H20.1519L19.2937 58.4968L15.4299 58.4906ZM17.3649 53.4809L16.1425 56.6821H18.5811L17.3649 53.4809Z" fill="black"/>
<path d="M33.2762 51.0437V60.7953H31.4171L26.4861 54.5962V60.7953H24.3325V51.0437H26.1979L31.1416 57.2397V51.0437H33.2762Z" fill="black"/>
<path d="M45.3427 55.502V59.1161C45.2871 59.1858 45.228 59.2526 45.1653 59.3164C44.9969 59.4803 44.817 59.6326 44.6269 59.7723C44.3518 59.9879 44.0571 60.1787 43.7465 60.3423C43.3644 60.5375 42.9606 60.6894 42.543 60.7953C42.0387 60.9311 41.5176 60.9995 40.9943 60.9986C40.2799 61.0147 39.5695 60.891 38.9052 60.6349C38.2409 60.3787 37.6363 59.9953 37.1273 59.5074C36.6297 59.043 36.2337 58.4855 35.9632 57.8683C35.6926 57.2512 35.5532 56.5873 35.5532 55.9164C35.5532 55.2455 35.6926 54.5816 35.9632 53.9645C36.2337 53.3474 36.6297 52.7899 37.1273 52.3254C37.6369 51.8385 38.2417 51.456 38.9059 51.2003C39.5701 50.9447 40.2802 50.8213 40.9943 50.8373C41.5019 50.8354 42.0072 50.9028 42.4955 51.0376C42.9076 51.1458 43.302 51.3096 43.6673 51.5244C43.9488 51.6998 44.2196 51.8912 44.4781 52.0975C44.6642 52.2395 44.8341 52.4006 44.9848 52.5781L45.1431 52.7814L43.7813 54.1063C43.7528 54.0724 43.7148 54.02 43.6673 53.9553C43.5708 53.8356 43.4649 53.7233 43.3506 53.6195C43.1817 53.461 42.9959 53.3205 42.7964 53.2005C42.5466 53.06 42.2809 52.9484 42.0046 52.8677C41.6824 52.7659 41.3458 52.7139 41.007 52.7137C40.1343 52.7137 39.2973 53.0509 38.6802 53.6513C38.0631 54.2516 37.7164 55.0659 37.7164 55.9149C37.7164 56.7639 38.0631 57.5781 38.6802 58.1785C39.2973 58.7788 40.1343 59.1161 41.007 59.1161C41.423 59.1211 41.8367 59.0554 42.2295 58.922C42.5104 58.8385 42.7733 58.7059 43.0054 58.5307L43.2207 58.3551V57.0302H41.4345V55.4897L45.3427 55.502Z" fill="black"/>
<path d="M48.6839 52.3255C49.7298 51.3695 51.111 50.8373 52.5461 50.8373C53.9813 50.8373 55.3624 51.3695 56.4083 52.3255C56.9068 52.7894 57.3035 53.3468 57.5746 53.9639C57.8456 54.5811 57.9853 55.2453 57.9853 55.9164C57.9853 56.5876 57.8456 57.2517 57.5746 57.8689C57.3035 58.4861 56.9068 59.0434 56.4083 59.5074C55.3635 60.4654 53.9819 60.999 52.5461 60.999C51.1103 60.999 49.7288 60.4654 48.6839 59.5074C48.1854 59.0434 47.7887 58.4861 47.5177 57.8689C47.2467 57.2517 47.1069 56.5876 47.1069 55.9164C47.1069 55.2453 47.2467 54.5811 47.5177 53.9639C47.7887 53.3468 48.1854 52.7894 48.6839 52.3255V52.3255ZM50.2674 58.1795C50.5662 58.4724 50.9217 58.705 51.3134 58.8636C51.705 59.0223 52.125 59.104 52.5493 59.104C52.9735 59.104 53.3936 59.0223 53.7852 58.8636C54.1769 58.705 54.5323 58.4724 54.8312 58.1795C55.4309 57.5656 55.7653 56.751 55.7653 55.9041C55.7653 55.0572 55.4309 54.2426 54.8312 53.6287C54.5328 53.335 54.1774 53.1018 53.7857 52.9427C53.394 52.7835 52.9738 52.7016 52.5493 52.7016C52.1248 52.7016 51.7045 52.7835 51.3128 52.9427C50.9211 53.1018 50.5658 53.335 50.2674 53.6287C49.6677 54.2426 49.3333 55.0572 49.3333 55.9041C49.3333 56.751 49.6677 57.5656 50.2674 58.1795V58.1795Z" fill="black"/>
<path d="M0.00689697 42.0597V0.00335312H14.4201L28.8397 14.0314L43.2625 0.00335312H57.6821V42.0874H43.2625V28.0594L28.8397 42.0874L14.4106 28.0501V42.0627L0.00689697 42.0597Z" fill="white"/>
<path d="M28.8392 42.0871V28.0591H43.2619L28.8392 42.0871Z" fill="#00AA55"/>
<path d="M28.8392 42.0871V28.0591H14.4196L28.8392 42.0871Z" fill="black"/>
<path d="M28.8392 14.0311H14.4196V28.0591H28.8392V14.0311Z" fill="#55AAE3"/>
<path d="M43.2619 21.0466H36.0505V28.0622H43.2619V21.0466Z" fill="black"/>
<path d="M28.8392 14.0311H14.4196V0.00308228L28.8392 14.0311Z" fill="#FBBF4A"/>
<path d="M28.8392 14.0311H43.2619V0.00308228L28.8392 14.0311Z" fill="#EB321E"/>
<path d="M14.4196 14.0311H0V17.5373H14.4196V14.0311Z" fill="black"/>
<path d="M14.4196 21.0466H0V24.5529H14.4196V21.0466Z" fill="black"/>
<path d="M43.2619 28.0591V42.0871H57.6815V28.0591H43.2619ZM50.4606 38.9722C49.6682 38.9722 48.8937 38.7436 48.2348 38.3153C47.576 37.8871 47.0625 37.2784 46.7593 36.5662C46.456 35.854 46.3767 35.0703 46.5313 34.3143C46.6859 33.5582 47.0674 32.8638 47.6277 32.3187C48.188 31.7736 48.9019 31.4024 49.679 31.252C50.4562 31.1016 51.2617 31.1788 51.9938 31.4738C52.7258 31.7688 53.3515 32.2684 53.7917 32.9093C54.232 33.5503 54.4669 34.3038 54.4669 35.0747C54.4661 36.1081 54.0437 37.099 53.2926 37.8297C52.5414 38.5605 51.5229 38.9714 50.4606 38.9722V38.9722Z" fill="#55AAE3"/>
<path d="M36.0505 21.0466V14.0311H28.8392V21.0466H36.0505Z" fill="black"/>
<path d="M0 14.0311H14.4196V0H0V14.0311Z" fill="#00AA55"/>
<path d="M0 0.00470734H14.4196V14.0327L0 0.00470734Z" fill="black"/>
<path d="M14.4291 42.0625V28.0314H0.00634766V42.0625H14.4291Z" fill="#EB321E"/>
<path d="M7.21771 42.0594L7.21771 28.0314H0.00633907L0.00633907 42.0594H7.21771Z" fill="black"/>
<path d="M43.2619 28.0591H57.6847V14.028H43.2619V28.0591Z" fill="#FBBF4A"/>
<path d="M43.2588 21.0466H57.6783V14.0311L43.2588 14.0311V21.0466Z" fill="black"/>
<path d="M54.8818 0.00308228L43.2619 11.3105V14.0311H46.2009L57.6815 2.86538V0.00308228H54.8818Z" fill="black"/>
<path d="M43.2619 0.00308228V5.58594L49.0006 0.00308228H43.2619Z" fill="black"/>
<path d="M57.6815 14.0311V8.44824L51.9428 14.0311H57.6815Z" fill="black"/>
</svg>
