<?xml version="1.0" encoding="UTF-8"?>
<svg xmlns="http://www.w3.org/2000/svg" id="Layer_1" data-name="Layer 1" viewBox="0 0 500 166.75">
  <defs>
    <style>.cls-1{fill:#066;}.cls-2{fill:#0c504b;}.cls-3{fill:#228791;}.cls-4{fill:#099;}</style>
  </defs>
  <path class="cls-1" d="M250,77.5h-1.9V97.28H250ZM190.19,97.28h1.9V85.72c0-5.53-3.11-8.37-7.88-8.37-3.83,0-6.71,1.89-8,4.77-1.06-3.14-3.67-4.77-7.24-4.77s-6.29,1.63-7.57,4.39V77.5h-1.82V97.28h1.89V86.75c0-4.7,2.77-7.7,7.24-7.7,3.86,0,6.17,2.35,6.17,6.82V97.28h1.9V86.75c0-4.7,2.76-7.7,7.24-7.7,3.86,0,6.17,2.35,6.17,6.82Zm24.6-10.91H199.63c.31-4.32,3.38-7.35,7.58-7.35a7.48,7.48,0,0,1,7.58,7.35m1.82,1.47c0-.18,0-.37,0-.52,0-5.88-4-10-9.44-10s-9.47,4.17-9.47,10,4.2,10,10.19,10a9.5,9.5,0,0,0,7.47-3.22L214.3,93a8.47,8.47,0,0,1-14.71-5.12Zm21.6-.45c0,5-3.41,8.34-8,8.34s-7.95-3.38-7.95-8.34,3.4-8.34,7.95-8.34,8,3.38,8,8.34m0,9.89h1.85V69.16h-1.89V82.09a8.86,8.86,0,0,0-8.07-4.74c-5.57,0-9.78,4.09-9.78,10s4.21,10,9.78,10a8.78,8.78,0,0,0,8.11-4.81ZM250.6,71.13a1.52,1.52,0,0,0-1.55-1.51,1.56,1.56,0,0,0-1.55,1.55,1.55,1.55,0,0,0,3.1,0m7.17,16.26c0-5,3.4-8.34,8.07-8.34a7.22,7.22,0,0,1,6.1,3l1.4-1a8.67,8.67,0,0,0-7.5-3.64,10,10,0,0,0,0,20.08,8.77,8.77,0,0,0,7.5-3.64l-1.4-1a7.22,7.22,0,0,1-6.1,3c-4.67,0-8.07-3.34-8.07-8.34m33.64,4a6.76,6.76,0,0,1-6.78,4.44c-3.48,0-5.49-1.59-5.49-4.17,0-2.27,1.44-4,5.53-4h6.74Zm.08,5.84h1.82V84.74c0-4.89-2.73-7.39-7.62-7.39a12.08,12.08,0,0,0-7.92,2.8l1,1.37a10.25,10.25,0,0,1,6.82-2.5c3.87,0,5.87,2,5.87,5.64v1.59h-6.78c-5.49,0-7.39,2.54-7.39,5.54,0,3.37,2.69,5.64,7.13,5.64,3.45,0,5.87-1.4,7.12-3.67Zm9.63,0H303V69.16h-1.89Zm28.53-18.11c.15,0,.3,0,.46,0V77.35c-3.72,0-6.33,1.59-7.54,4.47V77.5h-1.82V97.28h1.89V87c0-4.88,2.62-7.8,7-7.8m20.92,7.2H335.41c.31-4.32,3.37-7.35,7.58-7.35a7.48,7.48,0,0,1,7.58,7.35m1.82,1.47c0-.18,0-.37,0-.52,0-5.88-4-10-9.44-10s-9.47,4.17-9.47,10,4.2,10,10.19,10a9.5,9.5,0,0,0,7.47-3.22L350.08,93a8.46,8.46,0,0,1-14.7-5.12ZM358,82.73c0-2.12,1.7-3.71,5.57-3.71a10.15,10.15,0,0,1,5.95,1.78l.87-1.52a12.17,12.17,0,0,0-6.78-1.93c-5,0-7.51,2.43-7.51,5.42,0,7.76,13.11,3.52,13.11,9.28,0,2.24-1.66,3.71-5.83,3.71a11.47,11.47,0,0,1-7.12-2.38l-.88,1.51c1.56,1.44,4.67,2.54,7.92,2.54,5,0,7.81-2.2,7.81-5.42,0-7.54-13.11-3.33-13.11-9.28m33.31,3.64H376.15c.3-4.32,3.37-7.35,7.58-7.35a7.49,7.49,0,0,1,7.58,7.35m1.82,1.47c0-.18,0-.37,0-.52,0-5.88-4-10-9.43-10s-9.47,4.17-9.47,10,4.2,10,10.19,10a9.46,9.46,0,0,0,7.46-3.22L390.82,93a8.47,8.47,0,0,1-14.71-5.12Zm18.3,3.6a6.78,6.78,0,0,1-6.78,4.44c-3.49,0-5.5-1.59-5.5-4.17,0-2.27,1.44-4,5.54-4h6.74Zm.08,5.84h1.81V84.74c0-4.89-2.72-7.39-7.61-7.39a12.08,12.08,0,0,0-7.92,2.8l.95,1.37a10.25,10.25,0,0,1,6.82-2.5c3.86,0,5.87,2,5.87,5.64v1.59h-6.78c-5.5,0-7.39,2.54-7.39,5.54,0,3.37,2.69,5.64,7.12,5.64,3.45,0,5.88-1.4,7.13-3.67ZM430,79.17c.15,0,.3,0,.45,0V77.35c-3.71,0-6.33,1.59-7.54,4.47V77.5h-1.82V97.28H423V87c0-4.88,2.61-7.8,7-7.8m5.8,8.22c0-5,3.41-8.34,8.07-8.34a7.22,7.22,0,0,1,6.1,3l1.4-1a8.67,8.67,0,0,0-7.5-3.64,10,10,0,0,0,0,20.08,8.77,8.77,0,0,0,7.5-3.64l-1.4-1a7.22,7.22,0,0,1-6.1,3c-4.66,0-8.07-3.34-8.07-8.34m39,9.89V85.72c0-5.53-3.22-8.37-8-8.37-3.68,0-6.4,1.59-7.77,4.28V69.16H457.1V97.28H459V86.75c0-4.7,2.84-7.7,7.5-7.7,4,0,6.41,2.35,6.41,6.82V97.28Z"></path>
  <path class="cls-2" d="M108.89,113.61l1,0c0-.34,0-.67,0-1-.33,0-.66,0-1,0,0,.33,0,.67,0,1"></path>
  <path class="cls-1" d="M106.13,100.11c-.19-.33-.4-.66-.6-1h0a31,31,0,0,0-4.42-5.66,30,30,0,0,0-19.24-8.7c0-.39-.06-.76-.06-1.15s0-.76.06-1.14a30.33,30.33,0,0,0,10.24-2.53,29.9,29.9,0,0,0,9-6.18,30.31,30.31,0,0,0,4.42-5.66c.2-.33.41-.65.6-1a29.89,29.89,0,0,0,3.71-12.55c.38,0,.75-.05,1.13-.05a29.17,29.17,0,0,1,16.81,5.34c-.31-.61-.61-1.21-.94-1.81a30.18,30.18,0,0,0-17-4.47c0-.37,0-.73,0-1.1a29.92,29.92,0,0,0-4.53-15.84c-.6-.32-1.2-.63-1.81-.93A28.85,28.85,0,0,1,109,52.47c0,.38,0,.76-.06,1.15A30,30,0,0,0,96.3,57.34c-.33.18-.65.38-1,.57a30.37,30.37,0,0,0-5.67,4.41,29.91,29.91,0,0,0-8.73,19.2c-.75,0-1.51,0-2.27,0a29.77,29.77,0,0,0-14.4-23.61c-.32-.19-.64-.39-1-.57a29.92,29.92,0,0,0-12.59-3.72c0-.39-.06-.77-.06-1.15A28.85,28.85,0,0,1,56,35.7c-.61.3-1.22.61-1.81.93a29.83,29.83,0,0,0-4.53,15.84c0,.37,0,.73,0,1.1A30.16,30.16,0,0,0,32.74,58c-.33.6-.64,1.2-.94,1.81a29.14,29.14,0,0,1,16.8-5.34c.38,0,.76,0,1.14.05a29.74,29.74,0,0,0,3.71,12.55c.19.34.39.66.59,1A29.89,29.89,0,0,0,77.7,82.47c0,.38.06.76.06,1.14s0,.77-.06,1.15a30,30,0,0,0-19.23,8.7A30.34,30.34,0,0,0,54,99.13c-.2.32-.4.65-.59,1a29.79,29.79,0,0,0-3.71,12.55,29.06,29.06,0,0,1-17.94-5.29c.3.61.61,1.22.94,1.82a30.21,30.21,0,0,0,15.86,4.52c.36,0,.73,0,1.09,0,0,.37,0,.73,0,1.1a29.79,29.79,0,0,0,4.53,15.83c.59.33,1.2.63,1.81.94a28.88,28.88,0,0,1-5.35-16.77c0-.39,0-.77.06-1.15a30.21,30.21,0,0,0,12.59-3.72c.33-.18.65-.38,1-.58a29.64,29.64,0,0,0,5.67-4.41,30.12,30.12,0,0,0,8.72-19.2h0c.38,0,.76,0,1.14,0s.75,0,1.13,0h0a29.91,29.91,0,0,0,8.73,19.2,30.31,30.31,0,0,0,5.67,4.4c.33.2.65.4,1,.58a30.16,30.16,0,0,0,12.59,3.72c0,.38.06.76.06,1.15a28.88,28.88,0,0,1-5.35,16.77c.61-.31,1.21-.61,1.81-.94a29.88,29.88,0,0,0,4.53-15.83c0-.37,0-.73,0-1.1.36,0,.72,0,1.08,0a30.24,30.24,0,0,0,15.87-4.52c.32-.6.63-1.21.94-1.82a29.1,29.1,0,0,1-17.94,5.29A29.93,29.93,0,0,0,106.13,100.11ZM84.46,71.51A28.9,28.9,0,0,1,90.36,63a28.48,28.48,0,0,1,5.94-4.54c.31-.18.62-.38.94-.55a29,29,0,0,1,11.6-3.33,28.88,28.88,0,0,1-3.32,11.58c-.17.32-.38.63-.57.94a28.8,28.8,0,0,1-23,14.34A28.75,28.75,0,0,1,84.46,71.51ZM59.17,73.06a29,29,0,0,1-4.55-5.92h0c-.18-.31-.39-.62-.57-.94a29,29,0,0,1-3.32-11.58,29.08,29.08,0,0,1,11.61,3.33c.32.17.62.37.93.55A28.53,28.53,0,0,1,69.22,63a28.86,28.86,0,0,1,8.44,18.44A29,29,0,0,1,59.17,73.06Zm10,31.14a29.18,29.18,0,0,1-5.94,4.54c-.32.18-.62.38-.94.55a29.19,29.19,0,0,1-11.61,3.33A29,29,0,0,1,54.05,101c.18-.33.39-.63.57-1a29.37,29.37,0,0,1,4.55-5.92,29,29,0,0,1,18.49-8.42A28.88,28.88,0,0,1,69.22,104.2ZM80.87,84.71c-.72,0-1.44,0-2.17,0,0-.37,0-.73,0-1.1s0-.73,0-1.09c.36,0,.73,0,1.09,0s.72,0,1.08,0h0c0,.36-.06.73-.06,1.09S80.86,84.34,80.87,84.71Zm16.37,24.58c-.32-.17-.63-.37-.94-.55a29.18,29.18,0,0,1-5.94-4.54,28.83,28.83,0,0,1-8.44-18.45,28.86,28.86,0,0,1,23,14.34c.19.32.4.62.57,1a28.63,28.63,0,0,1,3.32,11.58A29.19,29.19,0,0,1,97.24,109.29Z"></path>
  <path class="cls-3" d="M310.06,110.3a1.56,1.56,0,0,0-1.55,1.55,1.53,1.53,0,0,0,1.55,1.52,1.55,1.55,0,0,0,1.56-1.56A1.53,1.53,0,0,0,310.06,110.3Z"></path>
  <path class="cls-4" d="M310.55,29.09A1.56,1.56,0,0,0,309,30.64a1.56,1.56,0,1,0,1.55-1.55Z"></path>
  <path class="cls-4" d="M197.62,53.23v3.52h1.82V44.21c0-4.89-2.73-7.39-7.62-7.39a12.07,12.07,0,0,0-7.91,2.8l.94,1.37a10.27,10.27,0,0,1,6.82-2.5c3.87,0,5.88,2,5.88,5.64v1.6h-6.79c-5.49,0-7.38,2.53-7.38,5.53,0,3.37,2.69,5.64,7.12,5.64C194,56.9,196.37,55.5,197.62,53.23Zm-6.86,2.12c-3.48,0-5.49-1.59-5.49-4.17,0-2.27,1.44-4,5.53-4h6.75v3.72A6.79,6.79,0,0,1,190.76,55.35Z"></path>
  <rect class="cls-4" x="207.25" y="28.64" width="1.89" height="28.11"></rect>
  <path class="cls-4" d="M327.53,56.9A9.46,9.46,0,0,0,335,53.68l-1.09-1.25a8.47,8.47,0,0,1-14.71-5.11h17c0-.19,0-.38,0-.53,0-5.88-4-10-9.43-10s-9.47,4.17-9.47,10S321.54,56.9,327.53,56.9Zm-.72-18.41a7.48,7.48,0,0,1,7.58,7.35H319.23C319.54,41.52,322.6,38.49,326.81,38.49Z"></path>
  <path class="cls-4" d="M226.54,38.53c4,0,6.4,2.34,6.4,6.82v11.4h1.89V45.19c0-5.53-3.22-8.37-8-8.37-3.67,0-6.4,1.59-7.76,4.28V28.64h-1.9V56.75H219V46.22C219,41.52,221.88,38.53,226.54,38.53Z"></path>
  <path class="cls-4" d="M167.19,56.9a8.77,8.77,0,0,0,8.11-4.81v4.66h1.86V28.64h-1.9V41.56a8.85,8.85,0,0,0-8.07-4.74c-5.57,0-9.77,4.09-9.77,10S161.62,56.9,167.19,56.9Zm.12-18.37c4.54,0,7.95,3.37,7.95,8.33s-3.41,8.34-7.95,8.34-8-3.38-8-8.34S162.76,38.53,167.31,38.53Z"></path>
  <path class="cls-4" d="M281.64,52.51v4.24h1.82V37h-1.9V47.51c0,4.69-2.76,7.69-7.24,7.69-4.13,0-6.51-2.35-6.51-6.82V37h-1.9V48.53c0,5.53,3.22,8.37,8.26,8.37A7.81,7.81,0,0,0,281.64,52.51Z"></path>
  <path class="cls-4" d="M291.19,42.2c0-2.12,1.7-3.71,5.57-3.71a10.22,10.22,0,0,1,5.95,1.78l.87-1.52a12.17,12.17,0,0,0-6.78-1.93c-5,0-7.51,2.43-7.51,5.42,0,7.77,13.11,3.52,13.11,9.28,0,2.24-1.66,3.72-5.83,3.72a11.47,11.47,0,0,1-7.12-2.39l-.88,1.51c1.56,1.44,4.67,2.54,7.92,2.54,5,0,7.81-2.19,7.81-5.41C304.3,43.94,291.19,48.15,291.19,42.2Z"></path>
  <path class="cls-4" d="M260.26,46.86a9.89,9.89,0,1,0-19.78,0,9.89,9.89,0,1,0,19.78,0Zm-17.84,0c0-5,3.41-8.33,8-8.33s8,3.37,8,8.33-3.41,8.34-8,8.34S242.42,51.82,242.42,46.86Z"></path>
  <rect class="cls-4" x="309.61" y="36.97" width="1.89" height="19.78"></rect>
  <path class="cls-4" d="M210.92,128.71c0,4.7-2.76,7.69-7.23,7.69-4.13,0-6.52-2.35-6.52-6.82v-11.4h-1.9v11.56c0,5.53,3.23,8.37,8.26,8.37a7.8,7.8,0,0,0,7.47-4.4V138h1.82V118.18h-1.9Z"></path>
  <path class="cls-4" d="M262,122.76A8.86,8.86,0,0,0,254,118c-5.57,0-9.77,4.09-9.77,10s4.2,10,9.77,10a8.76,8.76,0,0,0,8.11-4.81V138h1.86V109.84H262Zm-8,13.64c-4.55,0-8-3.37-8-8.33s3.41-8.34,8-8.34,8,3.38,8,8.34S258.63,136.4,254.09,136.4Z"></path>
  <path class="cls-4" d="M352.16,118c-3.75,0-6.51,1.67-7.84,4.43v-4.28H342.5V138h1.89V127.42c0-4.69,2.85-7.69,7.51-7.69,4,0,6.4,2.35,6.4,6.82V138h1.9V126.4C360.2,120.87,357,118,352.16,118Z"></path>
  <path class="cls-4" d="M278.61,118a12.08,12.08,0,0,0-7.92,2.8l.95,1.37a10.23,10.23,0,0,1,6.82-2.5c3.86,0,5.87,2,5.87,5.64v1.59h-6.78c-5.5,0-7.39,2.54-7.39,5.53,0,3.38,2.69,5.65,7.12,5.65,3.45,0,5.87-1.4,7.12-3.68V138h1.82V125.42C286.22,120.53,283.49,118,278.61,118Zm5.72,14.09a6.79,6.79,0,0,1-6.78,4.44c-3.49,0-5.5-1.6-5.5-4.17,0-2.28,1.44-4,5.53-4h6.75Z"></path>
  <path class="cls-4" d="M230.52,118c-3.75,0-6.52,1.67-7.85,4.43v-4.28h-1.82V138h1.9V127.42c0-4.69,2.84-7.69,7.5-7.69,4,0,6.4,2.35,6.4,6.82V138h1.9V126.4C238.55,120.87,235.33,118,230.52,118Z"></path>
  <rect class="cls-4" x="309.11" y="118.18" width="1.89" height="19.78"></rect>
  <path class="cls-4" d="M300,136.48c-2.43,0-3.67-1.4-3.67-3.94V119.81h6.28v-1.63h-6.28v-4.32h-1.9v4.32h-3.64v1.63h3.64v12.92c0,3.33,1.9,5.38,5.38,5.38a6,6,0,0,0,4-1.4l-.79-1.33A4.56,4.56,0,0,1,300,136.48Z"></path>
  <path class="cls-4" d="M160,115.15v3h-3.64v1.63H160V138h1.89V119.81h6.29v-1.63h-6.33V115.3c0-2.62,1.25-4,3.72-4a4.52,4.52,0,0,1,3.06,1.1l.76-1.44a5.92,5.92,0,0,0-3.9-1.29C161.93,109.69,160,111.85,160,115.15Z"></path>
  <path class="cls-4" d="M179.74,118a10,10,0,1,0,9.89,10A9.63,9.63,0,0,0,179.74,118Zm0,18.37c-4.55,0-8-3.37-8-8.33s3.41-8.34,8-8.34,7.95,3.38,7.95,8.34S184.28,136.4,179.74,136.4Z"></path>
  <path class="cls-4" d="M326.73,118a10,10,0,1,0,9.89,10A9.63,9.63,0,0,0,326.73,118Zm0,18.37c-4.54,0-8-3.37-8-8.33s3.41-8.34,8-8.34,8,3.38,8,8.34S331.28,136.4,326.73,136.4Z"></path>
  <path class="cls-4" d="M58.5,62.36a29.5,29.5,0,0,1,4.77-3.87c-.31-.19-.62-.39-.94-.56a31.82,31.82,0,0,0-4.53,3.73,30.37,30.37,0,0,0-3.75,4.53c.17.32.38.62.57.94A30.32,30.32,0,0,1,58.5,62.36Z"></path>
  <path class="cls-4" d="M129.47,61.11c-.29-.64-.6-1.28-.92-1.92a54.89,54.89,0,0,0-24.3-24.27c-.63-.32-1.28-.63-1.93-.92a54.39,54.39,0,0,0-45.08,0c-.65.29-1.29.6-1.93.92A54.87,54.87,0,0,0,31,59.19c-.32.63-.63,1.28-.93,1.92a54.26,54.26,0,0,0,0,45c.29.65.6,1.29.92,1.92A54.87,54.87,0,0,0,55.31,132.3c.64.32,1.28.63,1.93.92a54.39,54.39,0,0,0,45.08,0c.65-.29,1.3-.6,1.93-.92A54.89,54.89,0,0,0,128.55,108c.32-.63.63-1.27.92-1.92a54.21,54.21,0,0,0,0-45Zm-1.7,46.26c-.3.61-.61,1.22-.94,1.82a53.82,53.82,0,0,1-21.43,21.4c-.59.32-1.2.63-1.81.93a53.42,53.42,0,0,1-47.62,0c-.61-.3-1.21-.61-1.81-.93a53.94,53.94,0,0,1-21.43-21.4c-.32-.6-.63-1.21-.94-1.82a53.29,53.29,0,0,1,0-47.52c.31-.61.62-1.22.94-1.81A54,54,0,0,1,54.16,36.63c.6-.32,1.21-.63,1.81-.93a53.42,53.42,0,0,1,47.62,0c.61.3,1.22.61,1.81.93A53.84,53.84,0,0,1,126.83,58c.33.59.64,1.2.94,1.81a53.29,53.29,0,0,1,0,47.52Z"></path>
  <path class="cls-4" d="M54.62,100.09c-.19.32-.4.62-.57.94a30.37,30.37,0,0,0,3.75,4.53,31.16,31.16,0,0,0,4.53,3.73c.32-.17.63-.37.94-.56a29.94,29.94,0,0,1-4.77-3.87A30.32,30.32,0,0,1,54.62,100.09Z"></path>
  <path class="cls-4" d="M101.06,104.86a29.87,29.87,0,0,1-4.76,3.87c.31.19.61.39.93.56a31.23,31.23,0,0,0,4.54-3.73,31.65,31.65,0,0,0,3.75-4.53c-.18-.32-.38-.62-.57-.94A29.84,29.84,0,0,1,101.06,104.86Z"></path>
  <path class="cls-4" d="M53.45,67.11a31,31,0,0,0,0,33c.18-.33.39-.66.59-1a29.83,29.83,0,0,1,0-31C53.84,67.77,53.63,67.45,53.45,67.11Z"></path>
  <path class="cls-4" d="M79.78,53.57a30.13,30.13,0,0,1,15.54,4.34c.32-.2.65-.39,1-.58a31.22,31.22,0,0,0-33,0l1,.58A30.09,30.09,0,0,1,79.78,53.57Z"></path>
  <path class="cls-4" d="M64.25,109.31c-.32.2-.65.4-1,.58a31.07,31.07,0,0,0,33,0c-.32-.18-.65-.38-1-.58A30.18,30.18,0,0,1,64.25,109.31Z"></path>
  <path class="cls-4" d="M97.23,57.93c-.32.17-.62.37-.93.56A30.17,30.17,0,0,1,105,67.13c.19-.31.39-.62.57-.94a30.73,30.73,0,0,0-8.29-8.26Z"></path>
  <path class="cls-4" d="M105.53,68.1a29.83,29.83,0,0,1,0,31c.2.33.4.66.59,1a31,31,0,0,0,0-33C105.93,67.45,105.73,67.77,105.53,68.1Z"></path>
</svg>
