<?xml version="1.0" encoding="UTF-8"?>
<svg width="114px" height="80px" viewBox="0 0 114 80" version="1.1" xmlns="http://www.w3.org/2000/svg" xmlns:xlink="http://www.w3.org/1999/xlink">
    <!-- Generator: Sketch 50.2 (55047) - http://www.bohemiancoding.com/sketch -->
    <title>logo/QE2</title>
    <desc>Created with Sketch.</desc>
    <defs></defs>
    <g id="Page-1" stroke="none" stroke-width="1" fill="none" fill-rule="evenodd">
        <g id="L-Homepage-v3" transform="translate(-119.000000, -20.000000)">
            <g id="logo/QE2" transform="translate(119.000000, 20.000000)">
                <path d="M4.16266667,49.7308787 C4.27066667,49.7308787 4.29033333,49.7308787 4.379,49.7502929 C4.359,49.6622594 4.359,49.6421757 4.359,49.5337238 L4.359,46.8619247 L4.96766667,46.8619247 L4.96766667,53.4279498 L4.359,53.4279498 L4.359,50.4408368 C4.359,50.3323849 4.359,50.312636 4.379,50.2235983 C4.29033333,50.243682 4.27066667,50.243682 4.16266667,50.243682 L0.805,50.243682 C0.697,50.243682 0.677333333,50.243682 0.589333333,50.2235983 C0.608666667,50.312636 0.608666667,50.3323849 0.608666667,50.4408368 L0.608666667,53.4279498 L0,53.4279498 L0,46.8619247 L0.608666667,46.8619247 L0.608666667,49.5337238 C0.608666667,49.6421757 0.608666667,49.6622594 0.589333333,49.7502929 C0.677333333,49.7308787 0.697,49.7308787 0.805,49.7308787 L4.16266667,49.7308787" id="Fill-29-Copy" fill="#636463"></path>
                <path d="M9.985,47.7087866 L7.47166667,47.7087866 C7.364,47.7087866 7.34433333,47.7087866 7.25566667,47.6893724 C7.27533333,47.7777406 7.27533333,47.7974895 7.27533333,47.9062762 L7.27533333,49.7988285 C7.27533333,49.9076151 7.27533333,49.9270293 7.25566667,50.0157322 C7.34433333,49.9959833 7.364,49.9959833 7.47166667,49.9959833 L9.72,49.9959833 L9.72,50.5084519 L7.47166667,50.5084519 C7.364,50.5084519 7.34433333,50.5084519 7.25566667,50.4893724 C7.27533333,50.5777406 7.27533333,50.5974895 7.27533333,50.7059414 L7.27533333,52.9536402 C7.27533333,53.0620921 7.27533333,53.081841 7.25566667,53.1705439 C7.34433333,53.150795 7.364,53.150795 7.47166667,53.150795 L10.3973333,53.150795 L10.3093333,53.6635983 L6.66666667,53.6635983 L6.66666667,47.1966527 L9.985,47.1966527 L9.985,47.7087866" id="Fill-30-Copy" fill="#636463"></path>
                <path d="M14.5046667,50.7564854 C14.7796667,50.7564854 14.8483333,50.7564854 15.0936667,50.7755649 C14.9856667,50.5492887 14.9763333,50.5194979 14.858,50.2336402 L14.2003333,48.5573222 C14.0726667,48.2420084 14.0236667,48.0649372 13.9156667,47.6214226 L13.8863333,47.6214226 C13.7583333,48.0843515 13.6896667,48.3012552 13.5913333,48.5573222 L12.924,50.2336402 C12.8256667,50.4803347 12.7963333,50.5392469 12.6883333,50.7755649 C12.9436667,50.7564854 13.0026667,50.7564854 13.2773333,50.7564854 L14.5046667,50.7564854 Z M12.5213333,51.2294561 L11.5986667,53.5461088 L11,53.5461088 L13.7293333,46.8619247 L14.112,46.8619247 L16.8313333,53.5461088 L16.193,53.5461088 L15.2606667,51.2294561 L12.5213333,51.2294561 Z" id="Fill-31-Copy" fill="#636463"></path>
                <path d="M18.2753333,46.8619247 L18.2753333,52.6687866 C18.2753333,52.7772385 18.2753333,52.7969874 18.256,52.8856904 C18.3443333,52.8659414 18.364,52.8659414 18.4716667,52.8659414 L21.191,52.8659414 L21.093,53.3787448 L17.6666667,53.3787448 L17.6666667,46.8619247 L18.2753333,46.8619247" id="Fill-32-Copy" fill="#636463"></path>
                <path d="M25.8703333,47.1966527 L25.8703333,47.7087866 L23.779,47.7087866 C23.671,47.7087866 23.6513333,47.7087866 23.563,47.6893724 C23.5823333,47.7777406 23.5823333,47.7974895 23.5823333,47.9062762 L23.5823333,53.7128033 L22.974,53.7128033 L22.974,47.9062762 C22.974,47.7974895 22.974,47.7777406 22.9936667,47.6893724 C22.9053333,47.7087866 22.8856667,47.7087866 22.7776667,47.7087866 L20.6666667,47.7087866 L20.6666667,47.1966527 L25.8703333,47.1966527" id="Fill-33-Copy" fill="#636463"></path>
                <path d="M30.83,49.7308787 C30.938,49.7308787 30.9573333,49.7308787 31.0456667,49.7502929 C31.0256667,49.6622594 31.0256667,49.6421757 31.0256667,49.5337238 L31.0256667,46.8619247 L31.6346667,46.8619247 L31.6346667,53.4279498 L31.0256667,53.4279498 L31.0256667,50.4408368 C31.0256667,50.3323849 31.0256667,50.312636 31.0456667,50.2235983 C30.9573333,50.243682 30.938,50.243682 30.83,50.243682 L27.472,50.243682 C27.364,50.243682 27.3443333,50.243682 27.256,50.2235983 C27.2753333,50.312636 27.2753333,50.3323849 27.2753333,50.4408368 L27.2753333,53.4279498 L26.6666667,53.4279498 L26.6666667,46.8619247 L27.2753333,46.8619247 L27.2753333,49.5337238 C27.2753333,49.6421757 27.2753333,49.6622594 27.256,49.7502929 C27.3443333,49.7308787 27.364,49.7308787 27.472,49.7308787 L30.83,49.7308787" id="Fill-34-Copy" fill="#636463"></path>
                <path d="M38.338,47.9665272 C37.857,47.5718828 37.4743333,47.4041841 37.003,47.4041841 C36.335,47.4041841 35.8543333,47.8677824 35.8543333,48.5278661 C35.8543333,49.0503766 36.0993333,49.3265272 36.8556667,49.6917155 L37.4643333,49.9772385 C38.456,50.4508787 38.7993333,50.9044351 38.7993333,51.7225105 C38.7993333,52.8461925 37.9843333,53.6053556 36.7873333,53.6053556 C36.1093333,53.6053556 35.609,53.4078661 35,52.9251883 L35.1373333,52.2942259 C35.7066667,52.8461925 36.2176667,53.0925523 36.836,53.0925523 C37.6606667,53.0925523 38.181,52.5897908 38.181,51.7911297 C38.181,51.2391632 37.8866667,50.8843515 37.1403333,50.5392469 L36.5516667,50.2731381 C35.6383333,49.8594142 35.265,49.3660251 35.265,48.5971548 C35.265,47.6210879 36.0406667,46.8619247 37.0423333,46.8619247 C37.6313333,46.8619247 38.1613333,47.0594142 38.603,47.4343096 L38.338,47.9665272" id="Fill-35-Copy" fill="#636463"></path>
                <path d="M44.5853333,47.9069456 C43.937,47.5524686 43.476,47.4242678 42.867,47.4242678 C41.365,47.4242678 40.3143333,48.567364 40.3143333,50.194477 C40.3143333,51.8209205 41.4533333,53.0239331 43.0143333,53.0239331 C43.623,53.0239331 44.1826667,52.8562343 44.6833333,52.5208368 L44.919,53.0038494 C44.3493333,53.3978243 43.682,53.6053556 42.9256667,53.6053556 C41.0313333,53.6053556 39.6666667,52.2152301 39.6666667,50.263431 C39.6666667,48.30159 41.0506667,46.8619247 42.9256667,46.8619247 C43.623,46.8619247 44.2516667,47.0299582 44.86,47.3844351 L44.5853333,47.9069456" id="Fill-36-Copy" fill="#636463"></path>
                <polygon id="Fill-37-Copy" fill="#636463" points="46 53.4279498 46.609 53.4279498 46.609 46.8619247 46 46.8619247"></polygon>
                <path d="M51.3183333,47.7087866 L48.805,47.7087866 C48.697,47.7087866 48.6773333,47.7087866 48.589,47.6893724 C48.6086667,47.7777406 48.6086667,47.7974895 48.6086667,47.9062762 L48.6086667,49.7988285 C48.6086667,49.9076151 48.6086667,49.9270293 48.589,50.0157322 C48.6773333,49.9959833 48.697,49.9959833 48.805,49.9959833 L51.0533333,49.9959833 L51.0533333,50.5084519 L48.805,50.5084519 C48.697,50.5084519 48.6773333,50.5084519 48.589,50.4893724 C48.6086667,50.5777406 48.6086667,50.5974895 48.6086667,50.7059414 L48.6086667,52.9536402 C48.6086667,53.0620921 48.6086667,53.081841 48.589,53.1705439 C48.6773333,53.150795 48.697,53.150795 48.805,53.150795 L51.7306667,53.150795 L51.642,53.6635983 L48,53.6635983 L48,47.1966527 L51.3183333,47.1966527 L51.3183333,47.7087866" id="Fill-38-Copy" fill="#636463"></path>
                <path d="M52.9906667,46.8619247 L56.3773333,50.9931381 C56.6033333,51.2786611 56.7996667,51.5250209 56.9663333,51.7519665 L57.2903333,52.2058577 C57.3396667,52.2647699 57.428,52.3929707 57.5653333,52.5700418 L57.6046667,52.5603347 C57.5556667,52.2152301 57.5463333,52.0773222 57.536,51.8607531 C57.536,51.7720502 57.5263333,51.623431 57.5263333,51.4557322 C57.5166667,51.1795816 57.5166667,51.1012552 57.5166667,51.0122176 L57.5166667,46.9506276 L58.0563333,46.9506276 L58.0563333,53.4771548 L57.7716667,53.5956485 L54.3356667,49.4349791 C54.306,49.4051883 54.2273333,49.2970711 54.1193333,49.1394142 C54.0703333,49.0704603 53.9426667,48.9030962 53.7466667,48.6463598 C53.609,48.468954 53.4126667,48.2031799 53.1576667,47.8480335 L53.1186667,47.8577406 C53.177,48.6560669 53.2063333,49.12 53.2063333,49.4155649 L53.2063333,53.5166527 L52.6666667,53.5166527 L52.6666667,46.9703766 L52.9906667,46.8619247" id="Fill-39-Copy" fill="#636463"></path>
                <path d="M64.586,47.9069456 C63.9376667,47.5524686 63.476,47.4242678 62.8676667,47.4242678 C61.3653333,47.4242678 60.315,48.567364 60.315,50.194477 C60.315,51.8209205 61.4536667,53.0239331 63.0146667,53.0239331 C63.6233333,53.0239331 64.183,52.8562343 64.684,52.5208368 L64.9196667,53.0038494 C64.35,53.3978243 63.6823333,53.6053556 62.9263333,53.6053556 C61.0316667,53.6053556 59.6666667,52.2152301 59.6666667,50.263431 C59.6666667,48.30159 61.051,46.8619247 62.9263333,46.8619247 C63.6233333,46.8619247 64.252,47.0299582 64.8603333,47.3844351 L64.586,47.9069456" id="Fill-40-Copy" fill="#636463"></path>
                <path d="M68.9846667,47.7087866 L66.4716667,47.7087866 C66.3636667,47.7087866 66.344,47.7087866 66.2556667,47.6893724 C66.2753333,47.7777406 66.2753333,47.7974895 66.2753333,47.9062762 L66.2753333,49.7988285 C66.2753333,49.9076151 66.2753333,49.9270293 66.2556667,50.0157322 C66.344,49.9959833 66.3636667,49.9959833 66.4716667,49.9959833 L68.7196667,49.9959833 L68.7196667,50.5084519 L66.4716667,50.5084519 C66.3636667,50.5084519 66.344,50.5084519 66.2556667,50.4893724 C66.2753333,50.5777406 66.2753333,50.5974895 66.2753333,50.7059414 L66.2753333,52.9536402 C66.2753333,53.0620921 66.2753333,53.081841 66.2556667,53.1705439 C66.344,53.150795 66.3636667,53.150795 66.4716667,53.150795 L69.3973333,53.150795 L69.3093333,53.6635983 L65.6666667,53.6635983 L65.6666667,47.1966527 L68.9846667,47.1966527 L68.9846667,47.7087866" id="Fill-41-Copy" fill="#636463"></path>
                <path d="M73.338,47.9665272 C72.857,47.5718828 72.474,47.4041841 72.0033333,47.4041841 C71.3353333,47.4041841 70.854,47.8677824 70.854,48.5278661 C70.854,49.0503766 71.0996667,49.3265272 71.8553333,49.6917155 L72.464,49.9772385 C73.4556667,50.4508787 73.7993333,50.9044351 73.7993333,51.7225105 C73.7993333,52.8461925 72.9843333,53.6053556 71.787,53.6053556 C71.109,53.6053556 70.6086667,53.4078661 70,52.9251883 L70.138,52.2942259 C70.707,52.8461925 71.2173333,53.0925523 71.836,53.0925523 C72.6606667,53.0925523 73.181,52.5897908 73.181,51.7911297 C73.181,51.2391632 72.886,50.8843515 72.1403333,50.5392469 L71.551,50.2731381 C70.638,49.8594142 70.265,49.3660251 70.265,48.5971548 C70.265,47.6210879 71.0406667,46.8619247 72.0423333,46.8619247 C72.6306667,46.8619247 73.1613333,47.0594142 73.603,47.4343096 L73.338,47.9665272" id="Fill-42-Copy" fill="#636463"></path>
                <path d="M81.9183333,47.9069456 C81.2703333,47.5524686 80.809,47.4242678 80.2003333,47.4242678 C78.698,47.4242678 77.6476667,48.567364 77.6476667,50.194477 C77.6476667,51.8209205 78.7866667,53.0239331 80.3476667,53.0239331 C80.9563333,53.0239331 81.5156667,52.8562343 82.0166667,52.5208368 L82.252,53.0038494 C81.6826667,53.3978243 81.0153333,53.6053556 80.2593333,53.6053556 C78.364,53.6053556 77,52.2152301 77,50.263431 C77,48.30159 78.3843333,46.8619247 80.2593333,46.8619247 C80.9563333,46.8619247 81.5846667,47.0299582 82.1936667,47.3844351 L81.9183333,47.9069456" id="Fill-43-Copy" fill="#636463"></path>
                <path d="M86.6526667,47.7087866 L84.139,47.7087866 C84.0306667,47.7087866 84.0116667,47.7087866 83.923,47.6893724 C83.9423333,47.7777406 83.9423333,47.7974895 83.9423333,47.9062762 L83.9423333,49.7988285 C83.9423333,49.9076151 83.9423333,49.9270293 83.923,50.0157322 C84.0116667,49.9959833 84.0306667,49.9959833 84.139,49.9959833 L86.3873333,49.9959833 L86.3873333,50.5084519 L84.139,50.5084519 C84.0306667,50.5084519 84.0116667,50.5084519 83.923,50.4893724 C83.9423333,50.5777406 83.9423333,50.5974895 83.9423333,50.7059414 L83.9423333,52.9536402 C83.9423333,53.0620921 83.9423333,53.081841 83.923,53.1705439 C84.0116667,53.150795 84.0306667,53.150795 84.139,53.150795 L87.0643333,53.150795 L86.976,53.6635983 L83.3333333,53.6635983 L83.3333333,47.1966527 L86.6526667,47.1966527 L86.6526667,47.7087866" id="Fill-44-Copy" fill="#636463"></path>
                <path d="M88.3236667,46.8619247 L91.711,50.9931381 C91.9366667,51.2786611 92.133,51.5250209 92.3,51.7519665 L92.6236667,52.2058577 C92.673,52.2647699 92.7613333,52.3929707 92.8986667,52.5700418 L92.938,52.5603347 C92.889,52.2152301 92.8793333,52.0773222 92.8693333,51.8607531 C92.8693333,51.7720502 92.8596667,51.623431 92.8596667,51.4557322 C92.8496667,51.1795816 92.8496667,51.1012552 92.8496667,51.0122176 L92.8496667,46.9506276 L93.3896667,46.9506276 L93.3896667,53.4771548 L93.1046667,53.5956485 L89.6686667,49.4349791 C89.6393333,49.4051883 89.561,49.2970711 89.4526667,49.1394142 C89.404,49.0704603 89.276,48.9030962 89.0796667,48.6463598 C88.9423333,48.468954 88.746,48.2031799 88.4906667,47.8480335 L88.4513333,47.8577406 C88.5103333,48.6560669 88.5393333,49.12 88.5393333,49.4155649 L88.5393333,53.5166527 L88,53.5166527 L88,46.9703766 L88.3236667,46.8619247" id="Fill-45-Copy" fill="#636463"></path>
                <path d="M99.5366667,47.1966527 L99.5366667,47.7087866 L97.4456667,47.7087866 C97.3376667,47.7087866 97.3183333,47.7087866 97.23,47.6893724 C97.2496667,47.7777406 97.2496667,47.7974895 97.2496667,47.9062762 L97.2496667,53.7128033 L96.641,53.7128033 L96.641,47.9062762 C96.641,47.7974895 96.641,47.7777406 96.6606667,47.6893724 C96.5723333,47.7087866 96.5523333,47.7087866 96.4446667,47.7087866 L94.3333333,47.7087866 L94.3333333,47.1966527 L99.5366667,47.1966527" id="Fill-46-Copy" fill="#636463"></path>
                <path d="M101.570667,47.3640167 C101.345,47.3640167 101.197333,47.3640167 100.922667,47.3941423 C100.942333,47.4925523 100.942333,47.5022594 100.942333,47.630795 L100.942333,49.8979079 C100.942333,50.0066946 100.942333,50.0261088 100.922667,50.1151464 C101.011,50.0950628 101.030667,50.0950628 101.138333,50.0950628 L102.227667,50.0950628 C102.876,50.0950628 103.435667,49.4543933 103.435667,48.7146444 C103.435667,47.8276151 102.827,47.3640167 101.658667,47.3640167 L101.570667,47.3640167 Z M100.333333,46.9506276 C100.903,46.8810042 101.236667,46.8619247 101.678333,46.8619247 C102.572,46.8619247 103.160667,47.0292887 103.534,47.3941423 C103.868,47.7295397 104.054333,48.1727197 104.054333,48.6560669 C104.054333,49.4935565 103.544,50.1543096 102.709,50.4207531 C102.885667,50.6373222 102.925333,50.696569 103.101333,50.9429289 L104.829667,53.4373222 L104.083667,53.4373222 L102.149667,50.5780753 L101.138333,50.5780753 C101.030667,50.5780753 101.011,50.5780753 100.922667,50.5586611 C100.942333,50.6476987 100.942333,50.6667782 100.942333,50.7755649 L100.942333,53.4373222 L100.333333,53.4373222 L100.333333,46.9506276 Z" id="Fill-47-Copy" fill="#636463"></path>
                <path d="M109.318333,47.7087866 L106.804667,47.7087866 C106.696667,47.7087866 106.677333,47.7087866 106.589,47.6893724 C106.608667,47.7777406 106.608667,47.7974895 106.608667,47.9062762 L106.608667,49.7988285 C106.608667,49.9076151 106.608667,49.9270293 106.589,50.0157322 C106.677333,49.9959833 106.696667,49.9959833 106.804667,49.9959833 L109.053,49.9959833 L109.053,50.5084519 L106.804667,50.5084519 C106.696667,50.5084519 106.677333,50.5084519 106.589,50.4893724 C106.608667,50.5777406 106.608667,50.5974895 106.608667,50.7059414 L106.608667,52.9536402 C106.608667,53.0620921 106.608667,53.081841 106.589,53.1705439 C106.677333,53.150795 106.696667,53.150795 106.804667,53.150795 L109.730667,53.150795 L109.642333,53.6635983 L106,53.6635983 L106,47.1966527 L109.318333,47.1966527 L109.318333,47.7087866" id="Fill-48-Copy" fill="#636463"></path>
                <path d="M6.12666667,58.5610042 L1.55033333,58.5610042 C1.34233333,58.5610042 1.30466667,58.5610042 1.13433333,58.5228452 C1.172,58.6938912 1.172,58.7317155 1.172,58.9405858 L1.172,62.814728 C1.172,63.0232636 1.172,63.0614226 1.13433333,63.2324686 C1.30466667,63.1946444 1.34233333,63.1946444 1.55033333,63.1946444 L5.59733333,63.1946444 L5.59733333,64.1820921 L1.55033333,64.1820921 C1.34233333,64.1820921 1.30466667,64.1820921 1.13433333,64.1439331 C1.172,64.3146444 1.172,64.3528033 1.172,64.5613389 L1.172,70.125523 L0,70.125523 L0,57.5732218 L6.12666667,57.5732218 L6.12666667,58.5610042" id="Fill-49-Copy" fill="#636463"></path>
                <path d="M8.60033333,63.8212552 C8.60033333,67.1062762 10.7753333,69.4801674 13.782,69.4801674 C16.6376667,69.4801674 18.604,67.3345607 18.604,64.2389958 C18.604,61.0296234 16.4296667,58.6182427 13.536,58.6182427 C10.6243333,58.6182427 8.60033333,60.7444351 8.60033333,63.8212552 Z M19.8523333,64.0863598 C19.8523333,67.9230126 17.2993333,70.5623431 13.5736667,70.5623431 C9.94333333,70.5623431 7.33333333,67.8088703 7.33333333,63.972887 C7.33333333,60.251046 10.0376667,57.5732218 13.744,57.5732218 C17.2993333,57.5732218 19.8523333,60.3079498 19.8523333,64.0863598 Z" id="Fill-50-Copy" fill="#636463"></path>
                <path d="M23.1726667,57.5732218 L23.1726667,64.921841 C23.1726667,66.1941423 23.2293333,66.7829289 23.3996667,67.2579079 C23.891,68.587113 25.1773333,69.3466109 26.9546667,69.3466109 C28.2973333,69.3466109 29.3563333,68.9285356 29.9806667,68.1308787 C30.472,67.5233473 30.6613333,66.6878661 30.6613333,65.1688703 L30.6613333,57.5732218 L31.8336667,57.5732218 L31.8336667,65.1307113 C31.8336667,67.2579079 31.4743333,68.339749 30.453,69.2137238 C29.583,69.992636 28.3163333,70.3909623 26.8223333,70.3909623 C24.515,70.3909623 22.7943333,69.3656904 22.2646667,67.6943933 C22.0566667,67.0296234 22,66.4030126 22,65.1119665 L22,57.5732218 L23.1726667,57.5732218" id="Fill-51-Copy" fill="#636463"></path>
                <path d="M35.6236667,57.5732218 L42.148,65.5300418 C42.583,66.0806695 42.961,66.5553138 43.2823333,66.9924686 L43.9063333,67.8657741 C44.001,67.9799163 44.171,68.2266109 44.436,68.5687029 L44.5116667,68.5492887 C44.4173333,67.8848536 44.3983333,67.6190795 44.3793333,67.2010042 C44.3793333,67.0302929 44.3606667,66.7454393 44.3606667,66.4224268 C44.3413333,65.8908787 44.3413333,65.7389121 44.3413333,65.5678661 L44.3413333,57.7446025 L45.3813333,57.7446025 L45.3813333,70.3156485 L44.8333333,70.5435983 L38.2143333,62.5298745 C38.1576667,62.4729707 38.0063333,62.2637657 37.7983333,61.9598326 C37.704,61.8269456 37.4583333,61.5042678 37.0796667,61.0102092 C36.815,60.6687866 36.437,60.1556485 35.9453333,59.4721339 L35.8696667,59.4915481 C35.983,61.0296234 36.0396667,61.9223431 36.0396667,62.4917155 L36.0396667,70.3912971 L35,70.3912971 L35,57.7820921 L35.6236667,57.5732218" id="Fill-52-Copy" fill="#636463"></path>
                <path d="M49.903,69.0995816 C50.3946667,69.1568201 50.603,69.1755649 51.3973333,69.1755649 C53.4206667,69.1755649 55.047,68.6821757 55.9733333,67.7516318 C56.8623333,66.8589121 57.3543333,65.5487866 57.3543333,64.0676151 C57.3543333,61.8266109 56.1246667,59.870795 54.215,59.1494561 C53.2126667,58.7695397 52.0213333,58.5794142 50.6596667,58.5794142 C50.149,58.5794142 49.9793333,58.5794142 49.4683333,58.6366527 C49.506,58.7882845 49.506,58.807364 49.506,59.0162343 L49.506,68.7390795 C49.506,68.9097908 49.506,68.9476151 49.4683333,69.0426778 L49.525,69.0426778 L49.903,69.0995816 Z M48.731,57.6870293 L49.0523333,57.6488703 C49.7143333,57.5919665 50.3946667,57.5732218 51.038,57.5732218 C53.515,57.5732218 55.3493333,58.1051046 56.5786667,59.1872803 C57.8456667,60.3079498 58.6023333,62.0927197 58.6023333,63.9916318 C58.6023333,66.0803347 57.7703333,67.8463598 56.2196667,68.9670293 C55.1226667,69.7643515 53.3073333,70.1824268 50.887,70.1824268 C49.9793333,70.1824268 49.355,70.1442678 48.3333333,70.0304603 L48.3333333,57.7057741 L48.731,57.6870293 Z" id="Fill-53-Copy" fill="#636463"></path>
                <path d="M65.7503333,64.7390795 C66.2803333,64.7390795 66.413,64.7390795 66.8853333,64.7772385 C66.6776667,64.3404184 66.6583333,64.2835146 66.4313333,63.732887 L65.1646667,60.5047699 C64.9186667,59.8969038 64.8243333,59.5548117 64.616,58.700251 L64.5593333,58.700251 C64.3133333,59.5929707 64.181,60.011046 63.9923333,60.5047699 L62.7063333,63.732887 C62.517,64.2071967 62.4606667,64.3216736 62.2523333,64.7772385 C62.744,64.7390795 62.8576667,64.7390795 63.387,64.7390795 L65.7503333,64.7390795 Z M61.9306667,65.6505439 L60.153,70.1131381 L59,70.1131381 L64.2566667,57.2384937 L64.9943333,57.2384937 L70.233,70.1131381 L69.0033333,70.1131381 L67.2073333,65.6505439 L61.9306667,65.6505439 Z" id="Fill-54-Copy" fill="#636463"></path>
                <path d="M78.689,57.5732218 L78.689,58.5610042 L74.6616667,58.5610042 C74.4533333,58.5610042 74.4156667,58.5610042 74.2453333,58.5228452 C74.283,58.6938912 74.283,58.7317155 74.283,58.9405858 L74.283,70.125523 L73.111,70.125523 L73.111,58.9405858 C73.111,58.7317155 73.111,58.6938912 73.1483333,58.5228452 C72.9783333,58.5610042 72.9403333,58.5610042 72.7326667,58.5610042 L68.6666667,58.5610042 L68.6666667,57.5732218 L78.689,57.5732218" id="Fill-55-Copy" fill="#636463"></path>
                <polygon id="Fill-56-Copy" fill="#636463" points="80.6666667 70.2199163 81.8393333 70.2199163 81.8393333 57.5732218 80.6666667 57.5732218"></polygon>
                <path d="M85.2673333,63.8212552 C85.2673333,67.1062762 87.4423333,69.4801674 90.449,69.4801674 C93.3046667,69.4801674 95.271,67.3345607 95.271,64.2389958 C95.271,61.0296234 93.0963333,58.6182427 90.203,58.6182427 C87.2906667,58.6182427 85.2673333,60.7444351 85.2673333,63.8212552 Z M96.5193333,64.0863598 C96.5193333,67.9230126 93.966,70.5623431 90.2406667,70.5623431 C86.6096667,70.5623431 84,67.8088703 84,63.972887 C84,60.251046 86.7043333,57.5732218 90.411,57.5732218 C93.966,57.5732218 96.5193333,60.3079498 96.5193333,64.0863598 Z" id="Fill-57-Copy" fill="#636463"></path>
                <path d="M99.6236667,57.5732218 L106.148333,65.5300418 C106.583,66.0806695 106.961333,66.5553138 107.282667,66.9924686 L107.907,67.8657741 C108.001333,67.9799163 108.171333,68.2266109 108.436667,68.5687029 L108.511667,68.5492887 C108.417333,67.8848536 108.398667,67.6190795 108.379667,67.2010042 C108.379667,67.0302929 108.360667,66.7454393 108.360667,66.4224268 C108.342,65.8908787 108.342,65.7389121 108.342,65.5678661 L108.342,57.7446025 L109.382,57.7446025 L109.382,70.3156485 L108.833333,70.5435983 L102.215,62.5298745 C102.158,62.4729707 102.006667,62.2637657 101.798667,61.9598326 C101.704333,61.8269456 101.458333,61.5042678 101.08,61.0102092 C100.815333,60.6687866 100.437667,60.1556485 99.9453333,59.4721339 L99.87,59.4915481 C99.983,61.0296234 100.040333,61.9223431 100.040333,62.4917155 L100.040333,70.3912971 L99,70.3912971 L99,57.7820921 L99.6236667,57.5732218" id="Fill-58-Copy" fill="#636463"></path>
                <path d="M21.4663333,25.5062762 C21.8386667,27.6378243 22.4193333,29.3332218 23.2096667,30.5934728 C23.9996667,31.8537238 25.022,32.7330544 26.277,33.2304603 C27.532,33.7282008 29.0263333,33.9769038 30.762,33.9769038 C33.0546667,33.9769038 34.8523333,33.5497908 36.1536667,32.6935565 C37.4546667,31.8386611 38.4306667,30.6560669 39.0813333,29.1467782 C39.732,27.6378243 40.1426667,25.8490377 40.313,23.7790795 C40.483,21.7104603 40.5686667,19.4624268 40.5686667,17.0353138 C40.5686667,14.8579079 40.499,12.7809205 40.3596667,10.8043515 C40.2203333,8.82878661 39.8253333,7.08686192 39.1743333,5.57723849 C38.5236667,4.06861925 37.54,2.87029289 36.2233333,1.98359833 C34.906,1.09690377 33.086,0.653389121 30.762,0.653389121 C28.5926667,0.653389121 26.8576667,1.06610879 25.5566667,1.89020921 C24.2553333,2.71497908 23.2633333,3.87380753 22.5823333,5.36736402 C21.9,6.8609205 21.4506667,8.63430962 21.2343333,10.6878661 C21.0173333,12.7414226 20.909,14.9978243 20.909,17.4550628 C20.909,20.6915481 21.095,23.3750628 21.4663333,25.5062762 Z M39.3836667,43.4513808 C37.7873333,43.2646025 36.4706667,42.9690377 35.433,42.5650209 C34.3946667,42.1603347 33.5346667,41.6 32.8533333,40.8843515 C32.1716667,40.1683682 31.4896667,39.2046862 30.8086667,37.9909623 C30.374,37.2749791 29.909,36.5978243 29.4143333,35.9605021 C28.9183333,35.3228452 28.4686667,34.7859414 28.0663333,34.350795 C26.0516667,34.0702929 24.1543333,33.4329707 22.373,32.4371548 C20.5906667,31.4416736 19.0266667,30.1964854 17.6786667,28.7032636 C16.3306667,27.2100418 15.2693333,25.4989121 14.495,23.5695397 C13.72,21.6405021 13.3333333,19.6020084 13.3333333,17.4550628 C13.3333333,14.811046 13.8676667,12.414728 14.9366667,10.2677824 C16.0056667,8.12117155 17.3763333,6.28552301 19.0496667,4.76083682 C20.723,3.23648536 22.5973333,2.06158996 24.6736667,1.23682008 C26.749,0.412719665 28.779,0 30.762,0 C32.9,0 35.0146667,0.404686192 37.106,1.21338912 C39.1976667,2.02276151 41.057,3.17389121 42.6836667,4.66711297 C44.3103333,6.16066946 45.627,7.97389121 46.634,10.1047699 C47.6406667,12.236318 48.1446667,14.6396653 48.1446667,17.3151464 C48.1446667,19.6488703 47.672,21.8657741 46.727,23.9661925 C45.7816667,26.0662762 44.5113333,27.9099582 42.916,29.4969038 C41.3196667,31.0835146 39.4766667,32.3360669 37.385,33.2535565 C35.2936667,34.1707113 33.086,34.6306276 30.762,34.6306276 C30.173,34.6306276 29.6466667,34.5841004 29.182,34.4907113 C29.4913333,34.8324686 29.7933333,35.112636 30.0883333,35.3302092 C30.382,35.5481172 30.7543333,35.7271967 31.2036667,35.8674477 C31.6523333,36.007364 32.1866667,36.1238494 32.8073333,36.2172385 C33.4263333,36.3109623 34.2166667,36.4040167 35.1773333,36.4974059 C36.7263333,36.6527197 37.8963333,37.0878661 38.6866667,37.8041841 C39.4766667,38.5198326 40.1656667,39.4061925 40.7546667,40.4642678 C41.064,41.0246025 41.3356667,41.4831799 41.568,41.8410042 C41.8003333,42.1988285 42.0793333,42.4866946 42.4046667,42.7049372 C42.73,42.921841 43.1323333,43.0701255 43.613,43.1481172 C44.093,43.2251046 44.7356667,43.2646025 45.542,43.2646025 L45.542,43.9179916 C43.0323333,43.7934728 40.979,43.638159 39.3836667,43.4513808 Z" id="Fill-59-Copy" fill="#84317F"></path>
                <path d="M68.586,4.0167364 L68.586,10.2148954 L68.1166667,10.2148954 C67.9963333,9.8041841 67.7916667,9.27866109 67.503,8.63832636 C67.2146667,7.99799163 66.811,7.37573222 66.294,6.77154812 C65.7763333,6.16769874 65.1083333,5.641841 64.2903333,5.19464435 C63.472,4.7474477 62.4733333,4.52384937 61.2943333,4.52384937 L55.555,4.52384937 L55.555,15.7248536 L57.5766667,15.7248536 C58.4666667,15.7248536 59.219,15.5976569 59.833,15.3439331 C60.4463333,15.0902092 60.9573333,14.7276987 61.3666667,14.2567364 C61.7756667,13.7851046 62.1123333,13.2177406 62.3773333,12.5529707 C62.642,11.8885356 62.8583333,11.1454393 63.027,10.323682 L63.4966667,10.323682 L63.4966667,21.5966527 L63.027,21.5966527 C62.8583333,20.8960669 62.66,20.2192469 62.4316667,19.5668619 C62.2026667,18.914477 61.8956667,18.3407531 61.5113333,17.8450209 C61.1256667,17.3502929 60.6506667,16.9569874 60.0853333,16.667113 C59.5196667,16.3772385 58.816,16.2319665 57.9736667,16.2319665 L55.555,16.2319665 L55.555,29.3174895 L61.475,29.3174895 C62.5816667,29.3174895 63.5803333,29.1303766 64.471,28.7554812 C65.361,28.3812552 66.1496667,27.8557322 66.8353333,27.1789121 C67.5216667,26.5027615 68.0926667,25.710795 68.55,24.8046862 C69.007,23.8985774 69.356,22.9258577 69.5963333,21.8865272 L70.066,21.8865272 L70.066,29.8249372 L47,29.8249372 L47,29.3174895 L50.321,29.3174895 L50.321,4.52384937 L47,4.52384937 L47,4.0167364 L68.586,4.0167364" id="Fill-60-Copy" fill="#84317F"></path>
                <polyline id="Fill-61-Copy" fill="#84317F" points="83.5423333 4.0167364 83.5423333 4.5241841 80.2216667 4.5241841 80.2216667 29.3174895 83.5423333 29.3174895 83.5423333 29.8249372 71.6666667 29.8249372 71.6666667 29.3174895 74.9876667 29.3174895 74.9876667 4.5241841 71.6666667 4.5241841 71.6666667 4.0167364 83.5423333 4.0167364"></polyline>
                <polyline id="Fill-62-Copy" fill="#84317F" points="96.542 4.0167364 96.542 4.5241841 93.2213333 4.5241841 93.2213333 29.3174895 96.542 29.3174895 96.542 29.8249372 84.6666667 29.8249372 84.6666667 29.3174895 87.9873333 29.3174895 87.9873333 4.5241841 84.6666667 4.5241841 84.6666667 4.0167364 96.542 4.0167364"></polyline>
                <path d="M113.840333,79.9856067 C113.483667,79.9025941 113.057,79.8259414 112.563667,79.7543096 C112.069667,79.6840167 111.564667,79.6415063 111.047333,79.6291213 C110.187333,79.6358159 109.462,79.5638494 108.868,79.416569 C108.275333,79.2702929 107.710333,78.9794142 107.174667,78.5425941 C106.637667,78.1081172 106.074,77.4888703 105.481,76.6845188 C104.889,75.881841 104.174,74.8217573 103.333333,73.5056067 L103.683667,73.3054393 C103.931333,73.7405858 104.150667,74.0743096 104.341,74.3096234 C104.529,74.5442678 104.732667,74.7149791 104.949667,74.8251046 C105.166667,74.9325523 105.407,74.9941423 105.669333,75.0105439 C105.933,75.025272 106.262667,75.0302929 106.657333,75.0246025 C107.404667,75.0162343 108.092,75.1149791 108.717,75.3205021 C109.344667,75.5256904 109.939333,76.0224268 110.499333,76.8103766 C110.845667,77.3000837 111.139,77.69841 111.379667,78.0033473 C111.621333,78.3086192 111.847667,78.5616736 112.062,78.7598326 C112.275,78.9603347 112.485333,79.1059414 112.692333,79.1973222 C112.900333,79.2883682 113.143333,79.3650209 113.422,79.4269456" id="Fill-63-Copy" fill="#84317F"></path>
                <polygon id="Fill-64-Copy" fill="#636463" points="47.6666667 41.3368201 109.380333 41.3368201 109.380333 40.8368201 47.6666667 40.8368201"></polygon>
                <polygon id="Fill-65-Copy" fill="#636463" points="0 75.8138075 101.534333 75.8138075 101.534333 75.3138075 0 75.3138075"></polygon>
                <polygon id="Fill-66-Copy" fill="#636463" points="0 41.3368201 28.2246667 41.3368201 28.2246667 40.8368201 0 40.8368201"></polygon>
            </g>
        </g>
    </g>
</svg>