<svg xmlns="http://www.w3.org/2000/svg" xmlns:xlink="http://www.w3.org/1999/xlink" viewBox="0 0 2340 1560"><defs><style>.cls-1,.cls-33,.cls-36{fill:#82c3d2;}.cls-2{isolation:isolate;}.cls-3{fill:#faece0;}.cls-4,.cls-5{fill:#eff1f1;}.cls-11,.cls-15,.cls-16,.cls-18,.cls-20,.cls-28,.cls-36,.cls-38,.cls-40,.cls-41,.cls-5,.cls-8{opacity:0.5;}.cls-11,.cls-18,.cls-21,.cls-22,.cls-28,.cls-41,.cls-48,.cls-49,.cls-5,.cls-8{mix-blend-mode:multiply;}.cls-32,.cls-6{fill:#fff;}.cls-7,.cls-8{fill:#e8eaeb;}.cls-9{fill:#ff9c6a;}.cls-10,.cls-11,.cls-31{fill:#4a1e0e;}.cls-12{fill:#ffbe52;}.cls-13{fill:#e2a750;}.cls-14,.cls-15,.cls-21,.cls-22{fill:#f46607;}.cls-16{fill:#ea6d2d;}.cls-17,.cls-18{fill:#5e2612;}.cls-19,.cls-20{fill:#e8b938;}.cls-20,.cls-40,.cls-50{mix-blend-mode:screen;}.cls-21,.cls-32,.cls-49{opacity:0.3;}.cls-22{opacity:0.2;}.cls-23{fill:#bb7353;}.cls-24,.cls-40{fill:#8e482b;}.cls-25,.cls-38,.cls-43{fill:#393431;}.cls-26{fill:#1e1c1b;}.cls-27{fill:#e0e0e0;}.cls-28{fill:#141414;}.cls-29{fill:#282523;}.cls-30{clip-path:url(#clip-path);}.cls-31,.cls-48{opacity:0.1;}.cls-33,.cls-35,.cls-43{opacity:0.8;}.cls-34{clip-path:url(#clip-path-2);}.cls-37{fill:#44543b;}.cls-39{fill:#ffb1a3;}.cls-41{fill:#de6f5d;}.cls-42{fill:#374230;}.cls-44,.cls-48,.cls-49,.cls-50{fill:#0a2133;}.cls-45{fill:#703c2d;}.cls-46{fill:#512b22;}.cls-47{fill:#c0a184;}</style><clipPath id="clip-path"><path class="cls-1" d="M927.4,802.1c-6.32,5.2-27.28,16.93-31.91,22.15-10.69,12-27.54,78.92-30.52,81.89s-28.61-13.75-31.58-10.78c-2.6-2.6-13.75-7.8-13.75-7.8a30,30,0,0,0-15.61,29c7.06,3.35,12.64,6.32,12.64,6.32S813,929.55,818.53,934s9.66,9.29,16.35,17.09,29.72,17.09,40.5,11.52a94.21,94.21,0,0,0,17.83-11.89s-.37,14.49-.74,26.75-5.57,50.17-10.77,71-6.32,23-6.32,23,13,5.58,16,11.52,3.71,4.83,5.94-3,12.64-65,16.72-78-1.48-26.38,1.12-52.77-4.09-67.25,4.46-95.86S927.4,802.1,927.4,802.1Z"/></clipPath><clipPath id="clip-path-2"><path class="cls-1" d="M960.1,813.25c-5.2,9.66-23.78,65-27.87,78s1.11,57.59-5.2,70.6c-13.38,8.92-21.55,6.31-23.41,16.35a37,37,0,0,0-13,3.34s-1.11,18.95,1.12,24.9,5.94,9.29,8.92,7.43a30.74,30.74,0,0,1,7.43-3s5.2,7.43,9.66,8.17,10-1.11,10-1.11-2.23,39.38-2.23,43.84,10,3,16,8.18,21.29,4,22.67,10c.71,3.15-7.33,6.54-7.33,10.62s-2,7.59,2.12,5.36,25.64-15.24,34.56-16,18.21,3,18.21.37,1.11-48.68-2.6-53.51.37-59.08.37-59.08,25-81,23.14-98.8-4.07-36.73-46.55-73.24C969,812.87,960.1,813.25,960.1,813.25Z"/></clipPath></defs><title>Artboard 1</title><g class="cls-2"><g id="Layer_1" data-name="Layer 1"><rect class="cls-3" width="2340" height="1560"/><path class="cls-4" d="M1597.69,532.3c-21.52,54.66-95.13,135.09-175.21,139.59a3,3,0,0,1-2-5.26c26.9-21.76,41.24-59,13.13-78.64C1403,566.56,1597.69,532.3,1597.69,532.3Z"/><path class="cls-5" d="M1597.69,532.3c-21.52,54.66-95.13,135.09-175.21,139.59a3,3,0,0,1-2-5.26c26.9-21.76,41.24-59,13.13-78.64C1403,566.56,1597.69,532.3,1597.69,532.3Z"/><circle class="cls-6" cx="1462.42" cy="479.04" r="145.38"/><path class="cls-4" d="M242.37,677.62c37.14,69.87,147.91,166.29,255.78,160.11a4,4,0,0,0,1.91-7.35c-39.32-25-64.18-72.62-29.56-103.24C508.22,693.78,242.37,677.62,242.37,677.62Z"/><path class="cls-5" d="M242.37,677.62c37.14,69.87,147.91,166.29,255.78,160.11a4,4,0,0,0,1.91-7.35c-39.32-25-64.18-72.62-29.56-103.24C508.22,693.78,242.37,677.62,242.37,677.62Z"/><circle class="cls-6" cx="415.3" cy="585.71" r="195.83"/><path class="cls-7" d="M1224,375.15c6,104.87-53.22,290.61-179.87,357.94a5.31,5.31,0,0,1-7.23-7c27.36-55.48,22.77-126.63-37.62-137.51C933.45,576.7,1224,375.15,1224,375.15Z"/><path class="cls-8" d="M1224,375.15c6,104.87-53.22,290.61-179.87,357.94a5.31,5.31,0,0,1-7.23-7c27.36-55.48,22.77-126.63-37.62-137.51C933.45,576.7,1224,375.15,1224,375.15Z"/><circle class="cls-6" cx="964.4" cy="390.04" r="259.97" transform="translate(6.67 796.17) rotate(-45)"/><path class="cls-7" d="M2020.36,704.06c-22.19,72-108.46,182-210.4,195.5a3.81,3.81,0,0,1-3.11-6.53c32.27-30.44,47-79.39,9.13-101.81C1774.75,766.8,2020.36,704.06,2020.36,704.06Z"/><path class="cls-8" d="M2020.36,704.06c-22.19,72-108.46,182-210.4,195.5a3.81,3.81,0,0,1-3.11-6.53c32.27-30.44,47-79.39,9.13-101.81C1774.75,766.8,2020.36,704.06,2020.36,704.06Z"/><circle class="cls-6" cx="1842.25" cy="649.13" r="186.39" transform="translate(80.58 1492.79) rotate(-45)"/><path class="cls-9" d="M1718.56,1241.21c-4.71,21.79-25.91,126.62-25.91,137.81s-19.43,1.18-19.43,1.18-.59.59,1.17-28.86-3.53-110.13-3.53-110.13Z"/><path class="cls-9" d="M1645,1236.5c.58,12.36-4.72,55.94-4.72,86s.59,45.35.59,45.35l-17.66.59s-11.78-51.83-17.08-84.81-13-70.08-13-70.08Z"/><path class="cls-10" d="M1694.42,1366.85c3.92-1.57,1.57,18.45,2.35,27.48s1.57,15.71,1.18,18.45-20.81,11.78-25.52,9.82-9-6.67-9.42-12.17c-.51-7.15,7.06-21.6,7.85-32.59s.39-15.7,2.75-14.13,5.89,2.75,11.78,3.53S1692.45,1367.63,1694.42,1366.85Z"/><path class="cls-11" d="M1681.62,1418a87.15,87.15,0,0,0,16.43-6.64,10.62,10.62,0,0,1-.1,1.39c-.39,2.75-20.81,11.78-25.52,9.82s-8.87-6.51-9.39-11.89C1666.88,1416.72,1674.24,1420.39,1681.62,1418Z"/><path class="cls-10" d="M1640.23,1358.21c3.54-.39,7.86,15.7,8.25,25.52a212.45,212.45,0,0,1-.79,22.77l-17.66.4-.4-13.75-7.06,13s-30.24.39-34.16.39-4.71-9.81.78-10.21,14.14-2.74,20.42-15.31,9.42-21.2,11-20.81C1626.06,1361.54,1632.94,1359,1640.23,1358.21Z"/><path class="cls-11" d="M1601.67,1403a54.73,54.73,0,0,0,5.87,0h16.71l-1.68,3.09s-30.24.39-34.16.39c-1.57,0-2.62-1.57-3-3.48Z"/><path class="cls-11" d="M1633.6,1391l2-.82a63.24,63.24,0,0,1,6.57-2.19c2.09-.62,4.3-.59,6.41-1.25.1,9.25-.86,19.76-.86,19.76l-17.66.4-.3-13.75A15.86,15.86,0,0,1,1633.6,1391Z"/><path class="cls-11" d="M1682.79,1392.17a20.46,20.46,0,0,0,6.26-1,.59.59,0,0,0-.36-1.12,19.45,19.45,0,0,1-11.48.1.59.59,0,1,0-.34,1.12A20.39,20.39,0,0,0,1682.79,1392.17Z"/><path class="cls-11" d="M1686.56,1385.21a.59.59,0,0,0,.58-.55.58.58,0,0,0-.54-.62l-6.67-.48a.58.58,0,0,0-.63.54.59.59,0,0,0,.55.63l6.66.48Z"/><path class="cls-11" d="M1681.47,1377.33h0l6.28-.51a.59.59,0,1,0-.1-1.17l-6.27.51a.59.59,0,0,0,0,1.17Z"/><path class="cls-11" d="M1619.77,1373a4.93,4.93,0,0,0,1.52-.24.59.59,0,0,0-.38-1.12,3.71,3.71,0,0,1-3.73-.84.59.59,0,1,0-.83.85A5,5,0,0,0,1619.77,1373Z"/><path class="cls-11" d="M1618.64,1379.76a.61.61,0,0,0,.56-.4.59.59,0,0,0-.37-.75,9.39,9.39,0,0,1-4.81-3.69.59.59,0,1,0-1,.65,10.7,10.7,0,0,0,5.41,4.16A.63.63,0,0,0,1618.64,1379.76Z"/><path class="cls-11" d="M1612.79,1386.64a.6.6,0,0,0,.51-.3.59.59,0,0,0-.22-.8,11.25,11.25,0,0,1-2.9-2.37.59.59,0,0,0-.83-.06.6.6,0,0,0-.06.83,12.59,12.59,0,0,0,3.2,2.62A.67.67,0,0,0,1612.79,1386.64Z"/><path class="cls-12" d="M1707.37,945.17c3.54,2,32.59,48.68,35.34,79.31s-18.26,130.15-14.72,150.77.58,76.56-3,80.68-47.7,22.38-56,18.85-57.12-25.92-71.26-30c-5.3-1.77-17.08-62.43-20-77.15s29.44-129,34.74-153.12c-1.76-28.86,14.67-65.38,14.67-65.38Z"/><path class="cls-13" d="M1667.33,1268.3h0a.59.59,0,0,0,.54-.63c0-.69-4.68-69-2.94-84.11a.59.59,0,0,0-.52-.65.58.58,0,0,0-.65.51c-1.76,15.19,2.89,83.64,2.94,84.33A.59.59,0,0,0,1667.33,1268.3Z"/><path class="cls-14" d="M1548.65,910.22c-3.23-3.53,2.95-17.67,6.19-21.2s9.72,9.13,5.59,19.44S1548.65,910.22,1548.65,910.22Z"/><path class="cls-14" d="M1671.45,989.44c-5.3,2.06-11.78-13-11.78-13s16.2-8.25,18.55-4.12S1671.45,989.44,1671.45,989.44Z"/><path class="cls-15" d="M1548.65,910.22c-3.23-3.53,2.95-17.67,6.19-21.2s9.72,9.13,5.59,19.44S1548.65,910.22,1548.65,910.22Z"/><path class="cls-15" d="M1671.45,989.44c-5.3,2.06-11.78-13-11.78-13s16.2-8.25,18.55-4.12S1671.45,989.44,1671.45,989.44Z"/><path class="cls-9" d="M1677.14,961.17c-7,4.42-16.72,8-24.38,4.71s-21.2-5.4-27.09-4.52-.3,4.62,5.89,6.09c6,1.43,6.68,3.44,6.68,3.44s-10.8,4.12-14,4.71-9.21,1.36-13.45.1c-5.9-1.77-4.81,2-1.57,4.31-3.83-.58-5.37,2.36-2,5.31s3.13,5,13.73,8.24,17.2,2.26,27.09.2,16.49-8.15,21.2-9.62,25.33-6.67,25.33-6.67Z"/><path class="cls-9" d="M1571.61,894.55c-7.07-4.41-17.37-12.95-22.38-18.84s-10.6-10.9-16.79-13.84-15-7.66-17.07-5.6,6.18,5.3,9.42,9.72,2.94,4.75,2.94,4.75-5.89.25-10.3-1.81-20-9.42-23.56-10.6.29,8.54,2.06,10.9c-4.42-2.06-3.53.59-1.77,3.24s10.31,9.13,16.49,11.19c-6.47-1.18-12.07-4.71-12.07-2.65s11.44,6.93,21.29,9c18.7,4,24.35,2.62,31.13,12a132.86,132.86,0,0,0,20.61,23.18C1579.85,932.54,1571.61,894.55,1571.61,894.55Z"/><path class="cls-16" d="M1516.52,877.31a.59.59,0,0,0,.1-1.17,77.13,77.13,0,0,1-17.84-5.31.59.59,0,0,0-.78.31.59.59,0,0,0,.31.77,78.48,78.48,0,0,0,18.11,5.39Z"/><path class="cls-16" d="M1516.58,872a.59.59,0,0,0,.09-1.17A42,42,0,0,1,1497.2,862a.6.6,0,0,0-.83.09.59.59,0,0,0,.08.83,43.13,43.13,0,0,0,20,9.07Z"/><path class="cls-16" d="M1534.55,875.64a.59.59,0,0,0,.47-.22.6.6,0,0,0-.1-.83,22.39,22.39,0,0,0-5.53-3.18.59.59,0,0,0-.44,1.09,21.52,21.52,0,0,1,5.24,3A.62.62,0,0,0,1534.55,875.64Z"/><path class="cls-14" d="M1679.1,958.22c-4.41,2.36-13.75,6.67-11.69,7.55s7.28,16.6,4,23.67c6.18-2.07,14.53-4.42,14.53-4.42s12.27-5.6,8.73-17.08S1679.1,958.22,1679.1,958.22Z"/><path class="cls-14" d="M1574.27,894.62c-3.4-2.27-9.59-6.28-12.26-8-.54-.35-1.41-.77-1.4-.13.06,5.33-.46,23.74-12,23.74,6.78,7.07,13.55,15.9,13.55,15.9s22.09-2.06,21.2-11.77S1574.27,894.62,1574.27,894.62Z"/><path class="cls-17" d="M1730.66,846.59A100.37,100.37,0,0,0,1723,803.5c-3.43-8.24-8-14.81-9.66-23.81-1.91-10.55-1.29-21.37-.77-32,.63-13,1.11-26.4-3-38.76-5.07-15.11-16.71-24.56-32.23-27.21-18.69-3.19-40.72,7.21-49.48,23.88-5.66,10.79-7.74,22.8-7.61,34.89a160.65,160.65,0,0,0,1.58,19.23c.66,5,3.08,11.78,1.4,16.64a33.79,33.79,0,0,1-3.58,6.57,53.24,53.24,0,0,0-7.49,38,349.14,349.14,0,0,1,4.31,43.89c.14,4,.23,8.06,1.58,11.82,2.36,6.53,8.28,11.2,14.59,14.07s13.19,4.28,19.78,6.47c4.53,1.51,9,3.4,13.67,4.17,6.23,1,12.61,0,18.75-1.41,13.36-3.13,27.12-9.14,34.12-21a63.31,63.31,0,0,0,4.82-11.14q4.73-13.2,9.46-26.42Z"/><path class="cls-18" d="M1630.14,799.18c2.26-12.4,2.14-26.58,7.43-37.08,5.93-11.76,13.6-22.32,19-34.39a1.11,1.11,0,0,1,.07-.16c2.85,4.71,5.41,9.58,7.88,14.49,4.1,8.16,15.57,10.42,23,6a16.78,16.78,0,0,0,2.34-1.68q.79,2.33,1.48,4.72c3.79,13.4,6.71,26.87,12.08,39.78,2.89,6.94,5.79,13.63,10,19.9,1.83,2.74,3.77,5.43,5.52,8.23a71.82,71.82,0,0,1,3.55,6.54,19.51,19.51,0,0,0,8,10.07,100,100,0,0,1,.1,11l2.58-5.16q-4.73,13.22-9.46,26.42A63.31,63.31,0,0,1,1719,879c-7,11.81-20.76,17.82-34.12,21-6.14,1.44-12.52,2.43-18.75,1.41-4.71-.77-9.14-2.66-13.67-4.17-6.59-2.19-13.46-3.6-19.78-6.47s-12.23-7.54-14.59-14.07c-1.35-3.76-1.44-7.83-1.58-11.82q-.49-14.34-2.18-28.59C1623.72,825.81,1627.67,812.79,1630.14,799.18Z"/><path class="cls-9" d="M1687.35,752.39c-1.57,9.42-2,32.58,4.71,42s-46.72,9-38.48,0,5.73-14.53-.86-25.92S1687.35,752.39,1687.35,752.39Z"/><path class="cls-16" d="M1685.26,758.48c-.18,1.56-.31,3.11-.45,4.68.39-4.53-.4,1.88-.49,2.33a73,73,0,0,1-3,11.25c0-.15-1.43,3-1.45,3.06-.67,1.24-1.39,2.45-2.16,3.64-.35.55-.73,1.09-1.11,1.63l-.22.25c-1.08,1.27-2.21,2.48-3.39,3.65-1,1-2,2-3.1,2.89,0,0-3.49,2.9-2.4,2a84,84,0,0,1-8.65,6.09c-4.89-1.14-7.59-3-5.23-5.6,8.25-9,5.73-14.53-.86-25.92-5.94-10.26,26.93-15.09,33.5-16A52,52,0,0,0,1685.26,758.48Z"/><path class="cls-9" d="M1668.21,783.31a29.39,29.39,0,0,0,18.57-21.52c2.34-11.76-.61-6.16,2.34-9.4s7.88-15.36,3.46-18.85c-6.7-5.3-6.11,8.54-8.76,7.66s1.17-11.18-17-32.27c-7.07,16.2-25.1,11-29.13,24.22-3.3,10.8.42,20.51,8,35.48C1651.79,780.88,1662.32,785.37,1668.21,783.31Z"/><path class="cls-19" d="M1691.86,752.84c0-2.35-1.31-4.26-2.94-4.26s-2.94,1.91-2.94,4.26,1.31,4.26,2.94,4.26S1691.86,755.19,1691.86,752.84Z"/><path class="cls-20" d="M1686.61,750.22a2.76,2.76,0,0,1,2.31-1.64c1.63,0,2.94,1.91,2.94,4.26,0,1.95-.91,3.58-2.15,4.08A16.93,16.93,0,0,0,1686.61,750.22Z"/><path class="cls-10" d="M1667.72,707.07a.59.59,0,0,0,.56-.41,55.7,55.7,0,0,1,4.51-10.25.58.58,0,0,0-.22-.81.59.59,0,0,0-.8.22,57.52,57.52,0,0,0-4.61,10.48.59.59,0,0,0,.38.74Z"/><path class="cls-10" d="M1691.1,728.56h0a.59.59,0,0,0,.57-.61c-.23-7.44-3.18-14.68-5.79-21.06a.59.59,0,0,0-1.09.45c2.7,6.59,5.48,13.42,5.7,20.65A.59.59,0,0,0,1691.1,728.56Z"/><path class="cls-16" d="M1618.87,982.38a32.71,32.71,0,0,0,7.74-.93.59.59,0,0,0,.43-.72.58.58,0,0,0-.71-.43,31.56,31.56,0,0,1-11.62.63.59.59,0,0,0-.66.5.6.6,0,0,0,.51.67A32.72,32.72,0,0,0,1618.87,982.38Z"/><path class="cls-16" d="M1624.46,988.9c.67,0,1.34,0,2,0a.58.58,0,0,0,.57-.6.6.6,0,0,0-.6-.57,61.06,61.06,0,0,1-13.63-1.1.58.58,0,0,0-.69.46.58.58,0,0,0,.46.69A61.57,61.57,0,0,0,1624.46,988.9Z"/><path class="cls-10" d="M1710.24,934.43s-10.52,7.6-29.37,8.48-37.14,1.43-49.34-5.62c-1.6-.27-5.56,10.62-4.31,11.8s20.72,7.91,34.73,8.5,44-7.32,46.6-7.91S1712.81,934.43,1710.24,934.43Z"/><path class="cls-14" d="M1694.34,794.4c10.09,7.46,33.27,13.64,38.9,21s12.71,29,14.48,35.42,7.65,77.95,8.24,84.73-8.24,25.32-25.32,30.62-27.39,5.89-30.92,11.19-8,8.25-13.74,7.66c4-7.66-.4-26.8-6.88-26.8,8.54-5.3,40.64-26.21,45.35-31.21a174.11,174.11,0,0,0-6.31-18.85l-8.41,28s-21.2,13.93-34.16,14.52-45.64-6.28-45.64-6.28,4.12-9.88,0-23.2c-1.77,8.77-3.73,22-8.93,24.67s-22.29,1.18-34.06-6.77-21.8-11.48-24.74-13,12.37-4.41,12.37-14.72-.3-16.78-.3-16.78,18.82,12.66,25.61,12.66,6.49-20,5.9-38.72-.29-47.86,5.89-55.37,34.4-16.24,40.33-20.76S1694.34,794.4,1694.34,794.4Z"/><path class="cls-10" d="M1631.53,937.29c12.2,7.05,30.5,6.5,49.34,5.62s29.37-8.48,29.37-8.48c.7,0,1.09,1.1,1.23,2.7-1.81,1-19.83,11.31-22.27,13.56a17.29,17.29,0,0,0-5.17,3.22,17,17,0,0,0-3,1.78c-7.09,1.24-14.12,2.11-19.13,1.9-14-.59-33.49-7.32-34.73-8.5S1629.93,937,1631.53,937.29Z"/><path class="cls-19" d="M1650.25,944.09v12.36a4.71,4.71,0,0,0,4.71,4.72h6.48a4.71,4.71,0,0,0,4.71-4.72V944.09a4.71,4.71,0,0,0-4.71-4.71H1655A4.7,4.7,0,0,0,1650.25,944.09Zm3.53,2.74a2.61,2.61,0,0,1,2.61-2.61H1660a2.61,2.61,0,0,1,2.61,2.61v6.88a2.61,2.61,0,0,1-2.61,2.61h-3.61a2.61,2.61,0,0,1-2.61-2.61Z"/><path class="cls-20" d="M1657.55,956.32v4.85H1655l-.24,0V955.7a2.55,2.55,0,0,0,1.67.62Z"/><path class="cls-20" d="M1655,939.38h2.59v4.84h-1.16a2.6,2.6,0,0,0-1.67.62V939.4Z"/><path class="cls-9" d="M1669.68,804.8s4.71,24.44,6.19,29.45-12.08,17.37-14.14,29.45c-5.3-17.67-8-20.62-4.71-29.16S1667.91,802.15,1669.68,804.8Z"/><path class="cls-14" d="M1737.7,931.13a.56.56,0,0,0,.33-.1.59.59,0,0,0,.16-.82c-3.09-4.63-10.78-4.4-11.11-4.38a.6.6,0,0,0-.57.61.61.61,0,0,0,.62.57c.07,0,7.36-.23,10.08,3.86A.59.59,0,0,0,1737.7,931.13Z"/><path class="cls-14" d="M1718.27,904.33a.5.5,0,0,0,.17,0,.59.59,0,0,0,.39-.74c-1.89-6.21-9.39-35.35-9.69-49a.59.59,0,0,0-1.18,0c.3,13.79,7.85,43.09,9.75,49.34A.58.58,0,0,0,1718.27,904.33Z"/><path class="cls-14" d="M1628.41,916.72h.08a.58.58,0,0,0,.5-.66c-1.93-14.46-4.43-25.1-8.35-35.6-3-8,.49-18.85,3.29-27.61.49-1.56,1-3.05,1.38-4.45a.58.58,0,0,0-.39-.73.6.6,0,0,0-.74.4c-.41,1.39-.88,2.87-1.38,4.42-2.84,8.93-6.38,20-3.26,28.39,3.89,10.4,6.37,21,8.29,35.34A.59.59,0,0,0,1628.41,916.72Z"/><path class="cls-21" d="M1696.46,969a.68.68,0,0,0,.23,0A274.09,274.09,0,0,0,1741.41,945a12.15,12.15,0,0,0,4.48-4.28,12,12,0,0,0,.89-5.84c-.21-9.93-2-20-3.64-29.75-.91-5.25-1.84-10.67-2.52-16-.58-4.52-1-9.15-1.31-13.62-.38-4.67-.76-9.49-1.39-14.22-.45-3.41-1.14-6.8-1.82-10.07a93.06,93.06,0,0,1-2.27-15.61.61.61,0,0,0-.6-.57.59.59,0,0,0-.57.61,91.68,91.68,0,0,0,2.29,15.81c.67,3.25,1.36,6.61,1.8,10,.62,4.69,1,9.5,1.38,14.15.36,4.49.73,9.13,1.32,13.68.68,5.33,1.62,10.77,2.53,16,1.68,9.71,3.42,19.74,3.62,29.57a11,11,0,0,1-.76,5.28c-.81,1.59-2.33,2.68-4.08,3.84a273.26,273.26,0,0,1-44.53,23.83.59.59,0,0,0,.23,1.14Z"/><path class="cls-22" d="M1732.46,917.57a.6.6,0,0,0,.59-.58,66.94,66.94,0,0,0-1.54-15.84c-.43-2-1-3.92-1.47-5.82s-1-4-1.49-6a129.18,129.18,0,0,1-1.94-13.71l-1.91-18.13a.59.59,0,0,0-1.18.12l1.92,18.13a130.15,130.15,0,0,0,2,13.84c.44,2,1,4,1.51,6s1,3.84,1.45,5.78a65.54,65.54,0,0,1,1.51,15.55.59.59,0,0,0,.57.61Z"/><path class="cls-21" d="M1697.58,958.08a.78.78,0,0,0,.21,0,95.58,95.58,0,0,0,10.89-5.25c1.82-1,3.7-2,5.63-2.92,5.5-2.7,12.34-6.07,15.52-12.31a.59.59,0,1,0-1-.54c-3,5.9-9.65,9.17-15,11.79-2,1-3.84,2-5.66,3a95.4,95.4,0,0,1-10.77,5.18.58.58,0,0,0-.33.76A.59.59,0,0,0,1697.58,958.08Z"/><path class="cls-21" d="M1680,932.77h.12a.59.59,0,0,0,.46-.69l-5.5-28.42c-2.06-10.63-4.62-23.86-.06-35.22a63.81,63.81,0,0,1,4.7-8.83c.77-1.27,1.54-2.54,2.26-3.83a73.35,73.35,0,0,0,9.15-39.81.61.61,0,0,0-.62-.56.59.59,0,0,0-.56.63,72,72,0,0,1-9,39.16c-.72,1.28-1.48,2.55-2.24,3.81a63.76,63.76,0,0,0-4.78,9c-4.69,11.68-2.09,25.1,0,35.88l5.51,28.43A.58.58,0,0,0,1680,932.77Z"/><path class="cls-21" d="M1661.33,931.56h.07a.6.6,0,0,0,.52-.65l-2.57-23.57c-.93-8.53-2-18.19.37-27,2.22-8.32,7.23-15.5,12.08-22.45a.58.58,0,0,0-.15-.82.59.59,0,0,0-.82.14c-4.67,6.71-10,14.31-12.25,22.83-2.41,9-1.35,18.84-.4,27.47l2.57,23.56A.58.58,0,0,0,1661.33,931.56Z"/><path class="cls-21" d="M1700.16,934a1.12,1.12,0,0,0,.44-.09.59.59,0,0,0-.48-1.08s-.15-.26-.23-.57a92.47,92.47,0,0,1-2.56-33,.59.59,0,1,0-1.17-.12,93.59,93.59,0,0,0,2.59,33.41,2.08,2.08,0,0,0,1,1.35A1.09,1.09,0,0,0,1700.16,934Z"/><path class="cls-22" d="M1643.41,885.3h.11a.61.61,0,0,0,.47-.7c-.64-3.13,0-6.36.71-9.4a134.93,134.93,0,0,1,7.5-22.83.59.59,0,1,0-1.08-.46,136,136,0,0,0-7.57,23c-.7,3-1.4,6.54-.72,9.9A.6.6,0,0,0,1643.41,885.3Z"/><path class="cls-21" d="M1652,933.19l.12,0a.59.59,0,0,0,.45-.7,208.29,208.29,0,0,1-4.15-29.73.59.59,0,0,0-.63-.55.58.58,0,0,0-.54.63,209.24,209.24,0,0,0,4.17,29.9A.6.6,0,0,0,1652,933.19Z"/><path class="cls-21" d="M1642.75,935.91h.07a.58.58,0,0,0,.51-.65c-1.47-11.67-3-23.73-6.38-35.23-.58-2-1.23-4-1.86-5.91-1.94-6-3.95-12.16-4.24-18.47a.59.59,0,0,0-1.18.06c.3,6.47,2.33,12.72,4.3,18.77.63,1.93,1.27,3.92,1.85,5.89,3.37,11.4,4.88,23.42,6.34,35A.59.59,0,0,0,1642.75,935.91Z"/><path class="cls-21" d="M1600.71,927.29a46.85,46.85,0,0,0,12-1.65.59.59,0,0,0,.43-.47,173.16,173.16,0,0,0,1.16-49.54.59.59,0,0,0-1.17.14A172.21,172.21,0,0,1,1612,924.6c-12.52,3.2-23.25,1.31-32.8-5.76a.59.59,0,0,0-.82.12.6.6,0,0,0,.12.83A36.38,36.38,0,0,0,1600.71,927.29Z"/><path class="cls-14" d="M1610.39,921.41h0a.58.58,0,0,0,.54-.63,20.49,20.49,0,0,0-7.4-13.64.59.59,0,0,0-.77.89,19.31,19.31,0,0,1,7,12.84A.58.58,0,0,0,1610.39,921.41Z"/><path class="cls-13" d="M1635.54,1037.71a.59.59,0,0,0,.07-1.18c-2.15-.28-4-1.9-5.47-3.21l-13.38-11.83a.59.59,0,0,0-.83,0,.58.58,0,0,0,0,.83l13.38,11.83c1.6,1.41,3.6,3.18,6.1,3.5Z"/><path class="cls-10" d="M1664,740.8c0,2.06,1.23,3.73,2.75,3.73s2.75-1.67,2.75-3.73-1.24-3.73-2.75-3.73S1664,738.74,1664,740.8Z"/><path class="cls-10" d="M1644.14,744.93c.71,1.77.39,3.55-.71,4s-2.57-.62-3.28-2.38-.4-3.55.71-4S1643.43,743.17,1644.14,744.93Z"/><path class="cls-10" d="M1662.64,727.7a1.76,1.76,0,0,0-1,.29,1.29,1.29,0,0,0,.3,1.93,4,4,0,0,0,2.18.45c2.92.08,5.46,1,8.45.78.25,0,.54-.07.63-.3s-.08-.48-.25-.66C1670.45,727.57,1666.05,727.42,1662.64,727.7Z"/><path class="cls-10" d="M1639,734.16c1-.87,5.26-2.77,5.15.19a11.58,11.58,0,0,0-3.59,1.65,9.55,9.55,0,0,0-2.11,2.77c-.33.59-.73.93-1.32.83A6.48,6.48,0,0,1,1639,734.16Z"/><path class="cls-16" d="M1659.08,759.47a.59.59,0,0,0,0-1.18,40.42,40.42,0,0,1-6.76-.93,1.76,1.76,0,0,1-.75-.28c-.39-.35-.2-1.19,0-1.8,1.33-4.46,2.81-11.07.38-16.92a7.65,7.65,0,0,0-2.49-3.42.59.59,0,1,0-.68,1,6.47,6.47,0,0,1,2.08,2.91c2.29,5.5.86,11.85-.42,16.14-.18.63-.62,2.12.36,3a2.69,2.69,0,0,0,1.28.55,41.79,41.79,0,0,0,7,1Z"/><path class="cls-6" d="M1653.78,766.72c-1.68,0,3.34,6.08,5.69,6.28s7.46-2.36,9.23-7.26C1663,764,1661.08,766.64,1653.78,766.72Z"/><path class="cls-16" d="M1688.58,747.5a.61.61,0,0,0,.55-.36c.56-1.37.07-2.76-.41-4.11a7.81,7.81,0,0,1-.59-2.43.6.6,0,0,0-.59-.58h0a.59.59,0,0,0-.58.59,8.93,8.93,0,0,0,.66,2.81c.42,1.19.82,2.32.43,3.27a.59.59,0,0,0,.32.77A.57.57,0,0,0,1688.58,747.5Z"/><path class="cls-14" d="M1687.17,779.08c2.93-.78,3.17,12.18,7.17,15.32s-26.12,10.57-42.34-2c4.24-1.36,4-10.11,6.74-7.8s12.06,2.5,17.42,1.33S1687.17,779.08,1687.17,779.08Z"/><path class="cls-14" d="M1669.69,800.08c5,0,9.94-1.33,14.67-2.61a9.31,9.31,0,0,0,4.1-1.91.6.6,0,0,0,0-.84.59.59,0,0,0-.83,0,8.29,8.29,0,0,1-3.58,1.62c-4.81,1.3-9.78,2.66-14.84,2.56-5.53-.09-10.36-2.08-13.25-5.45a.61.61,0,0,0-.84-.06.6.6,0,0,0-.06.83c3.12,3.63,8.27,5.76,14.13,5.86Z"/><path class="cls-17" d="M1640.87,809.25c-1.75,4.33-4.24,8.34-6,12.68-5.6,14-2.46,25.3.22,40.12-.84.49-3-2.6-3.38-3.51-3.85-10.46-9.27-38.06-8.15-45,.85-5.27,3.24-10.42,5-15.47,2.57-7.53-2.49-16.08-3.17-24-.43-5.06.59-10.12,1.61-15.1.91-4.43,1.3-12.91,4.31-16.47a1.06,1.06,0,0,1,.63-.41c.48,0,.81.46,1,.91a107.06,107.06,0,0,1,8.87,36.86c.28,5.19-.14,10.48.54,15.63A25.43,25.43,0,0,1,1640.87,809.25Z"/><path class="cls-17" d="M1628,748.42c.8,4.38,2.27,8.62,3,13,.41,2.53.57,5.1,1,7.63.71,4.32,2.16,8.47,3.21,12.71,1.86,7.56,2.42,15.38,4.09,23s4.66,15.22,10.39,20.49a28.18,28.18,0,0,0,6.81,4.56c-10.91-11.46-12.7-24.26-10.61-38.85.59-4.11,2.77-12.18,1.57-16.15-.86-2.83-2.93-5.09-4.62-7.51-4.81-6.87-6.75-15.27-8.59-23.45a61.58,61.58,0,0,1-2-13.12c0-6,1.27-11.92,1.52-17.89-1.67,1.46-2.65,3.89-3.38,5.93a73.94,73.94,0,0,0-2.38,29.65Z"/><path class="cls-14" d="M1685.94,984.72h.11c.49-.12.81-.56,1.6-4.05l.07-.28a24.31,24.31,0,0,0-2.94-18.4.59.59,0,0,0-.81-.2.59.59,0,0,0-.19.81,23.14,23.14,0,0,1,2.79,17.51l-.07.3a19.18,19.18,0,0,1-.86,3.13.56.56,0,0,0-.2.11.58.58,0,0,0-.08.82A.81.81,0,0,0,1685.94,984.72Z"/><path class="cls-14" d="M1563.2,925a.62.62,0,0,0,.34-.11l2.66-1.83a20.2,20.2,0,0,0,3.35-2.68c2-2.11,3-4.93,3.93-7.42,1.56-4.32,1.27-8,.93-12.18-.07-.84-.14-1.71-.19-2.6a.61.61,0,0,0-.62-.56.59.59,0,0,0-.56.63c.06.9.13,1.77.2,2.63.32,4.07.6,7.6-.87,11.68-.86,2.38-1.84,5.08-3.67,7a19.83,19.83,0,0,1-3.17,2.52l-2.66,1.83a.58.58,0,0,0-.15.82A.56.56,0,0,0,1563.2,925Z"/><path class="cls-1" d="M981.28,789.84c-3.72-2.61-18.58-5.21-24.9-.75s20.07,17.1,23.78,13S981.28,789.84,981.28,789.84Z"/><path class="cls-23" d="M982.72,754.32c-3.9,16.72-12.68,30.82-1.8,40.13,9,7.69-13.89,56.68-35.63,53.9s-16.2-45.54-11.19-48.88,11.15-6.69,11.71-24S982.72,754.32,982.72,754.32Z"/><path class="cls-24" d="M941.69,802.05a22.92,22.92,0,0,0,7.92-4.83c12.87-11.61,19.94-26,25.53-41.94-9.86,2-28.92,7.42-29.33,20.22-.56,17.28-6.69,20.62-11.71,24a5.31,5.31,0,0,0-2.39,5.33A96.36,96.36,0,0,0,941.69,802.05Z"/><path class="cls-23" d="M935.68,785.16c-4.22-3.39-9-23.42-8.49-30.09s4.23-12.83,4.12-24.56c-.15-16.22,4.22-16.17,6.59-17.85s32.08-15,37,8.8,11.86,25.14,8,36.76-12.16,17.7-22.65,23.23S942.35,790.52,935.68,785.16Z"/><path class="cls-25" d="M933.14,717.51c-.47.69-3.72-7.4-3.26-8.92.33-1.11.93-2.34.36-3.35-.33-.59-1-1-1.24-1.58a2.28,2.28,0,0,1-.06-1.19,11,11,0,0,1,1.89-4.78c.67-.89,1.9-1,2.31-2.13.85-2.45,6.38-3.7,8.57-3.48s8.13-4.71,10.45-5.59a23.44,23.44,0,0,1,11-1.67,22.1,22.1,0,0,1,11,4.84c2,1.62,3.57,3.9,5.58,5.48s4,1.82,6.6,2.38a2.82,2.82,0,0,1,1.24.49,4.21,4.21,0,0,1,.89,1.54c2.15,4.43,10.42,2.82,12.13,7.44.67,1.81-.06,3.85.24,5.76s1.64,3.55,2.41,5.37a30.09,30.09,0,0,1-2,27.06c-2.55,4.14-2,8.65-5.48,12.3-2.59,2.73-6.76,5.08-6.93,9.28a2.29,2.29,0,0,1-.25,1.25c-.33.45-1,.52-1.41.84-1.21.86-.56,2.77-1,4.18-.59,1.81-2.83,2.38-4.72,2.67a4.1,4.1,0,0,1-1.7,6c-6.79,2.68-3.8-5.86-3.09-8.44,1-3.55,2.11-9,5.21-11.38,4.36-3.39-1.11-9.77-4.82-10.06s-4.33-1.82-3-9.54-1.23-13.14-5.5-15.71,1.45-9.2-2.09-11.71S937.34,711.5,933.14,717.51Z"/><path class="cls-23" d="M973.34,763.08c-.94-1.76,2.4-17.5,8.32-18,6.83-.57,7.48,3.93,5.57,9.37S977.9,771.63,973.34,763.08Z"/><path class="cls-24" d="M943.72,760.65a3.83,3.83,0,0,0,2.87-1c1.43-1.47.94-3.88.7-5a.59.59,0,0,0-.7-.46.58.58,0,0,0-.46.69c.32,1.54.49,3.09-.38,4s-2.6.74-4.12.43l-5.33-1.12a4.38,4.38,0,0,1-2.54-1.12c-.84-1-.31-2.74.62-3.83a13.85,13.85,0,0,1,1.61-1.53,13,13,0,0,0,2-2,9,9,0,0,0,1.57-4.49A18.53,18.53,0,0,1,940,743a26.21,26.21,0,0,1,.94-2.53,24.79,24.79,0,0,0,1.05-2.86.6.6,0,0,0-.42-.73.59.59,0,0,0-.72.42,21.58,21.58,0,0,1-1,2.72,26.35,26.35,0,0,0-1,2.66,18.48,18.48,0,0,0-.45,2.29,8.09,8.09,0,0,1-1.35,4,12,12,0,0,1-1.83,1.8,17.07,17.07,0,0,0-1.74,1.67c-1.27,1.48-1.89,3.79-.63,5.33a5.26,5.26,0,0,0,3.21,1.53l5.33,1.12A11.51,11.51,0,0,0,943.72,760.65Z"/><path class="cls-17" d="M952.44,742.16c-.67,1.37-.47,2.83.43,3.28s2.19-.3,2.86-1.66.48-2.83-.43-3.28S953.11,740.8,952.44,742.16Z"/><path class="cls-17" d="M932.44,740.38c-.12,1.51.61,2.8,1.62,2.88s1.92-1.09,2-2.6-.6-2.81-1.61-2.89S932.55,738.86,932.44,740.38Z"/><path class="cls-17" d="M960.67,736.7a2.27,2.27,0,0,0,.35-1.11c.11-1.34-2.12-3.71-3.14-4.4-1.81-1.22-5.48-2.65-7.65-1.46-5.22,2.88,3.59,5.69,5.75,6.38C957.71,736.66,959.83,737.85,960.67,736.7Z"/><path class="cls-17" d="M936.79,733c-1.67.31-8.54,3.65-7.14-1.18.77-2.66,5.84-3.21,7.74-3.8a2.45,2.45,0,0,1,1.84-.06c1,.52,1.12,2.27.46,3.32A4.2,4.2,0,0,1,936.79,733Z"/><path class="cls-24" d="M978.81,760a.59.59,0,0,0,.54-.36l1-2.36a1.81,1.81,0,0,0-.6-2.73.93.93,0,0,1-.27-.21,1,1,0,0,1,0-.42,16.84,16.84,0,0,1,.69-2.8.59.59,0,0,0-1.12-.38,17.05,17.05,0,0,0-.73,3,1.51,1.51,0,0,0,.81,1.81,1.36,1.36,0,0,1,.27.19c.14.16.09.53-.14,1.09l-1,2.36a.6.6,0,0,0,.33.77A.54.54,0,0,0,978.81,760Z"/><path class="cls-26" d="M999,735.84a2,2,0,0,0,1.37-.54,3,3,0,0,0,.87-2,5.18,5.18,0,0,0-2-4.39l-.41-.29a2.34,2.34,0,0,1-.89-.88c-.19-.51.19-1.13.6-1.78.15-.24.3-.48.42-.72a4.67,4.67,0,0,0,.26-3.59,4.74,4.74,0,0,0-2.28-2.79.59.59,0,0,0-.79.26.58.58,0,0,0,.25.79,3.69,3.69,0,0,1,1.52,4.78c-.11.22-.25.43-.38.65a2.56,2.56,0,0,0,.62,4.24l.36.26a4,4,0,0,1,1.51,3.38,2,2,0,0,1-.49,1.27.74.74,0,0,1-.9.12.59.59,0,1,0-.76.9A1.65,1.65,0,0,0,999,735.84Z"/><path class="cls-26" d="M957.28,711.63a.6.6,0,0,0,.59-.53.59.59,0,0,0-.53-.65c-.3,0-.58-.4-.86-1.15a2.44,2.44,0,0,1-.25-1.21c.2-1,2.14-1.09,2.72-1.08a.51.51,0,0,0,.45-.19.57.57,0,0,0,.15-.45l-.53-6a.59.59,0,0,0-1.18.1l.48,5.32c-1.86.1-3,.81-3.25,2a3.38,3.38,0,0,0,.31,1.85c.18.49.67,1.78,1.84,1.9Z"/><path class="cls-26" d="M943.59,711.27h.19a.59.59,0,0,0-.19-1.16.51.51,0,0,1-.13-.42,2.37,2.37,0,0,1,.46-.8l.28-.41a1.89,1.89,0,0,0,.1-2.2,2.25,2.25,0,0,0-.6-.48l-.12-.08a2.07,2.07,0,0,1-.89-1.7,2.11,2.11,0,0,1,.74-1.77.6.6,0,0,0,.11-.83.59.59,0,0,0-.83-.1,3.44,3.44,0,0,0,.23,5.39l.15.1a1.58,1.58,0,0,1,.29.2c.11.15,0,.51-.17.83-.07.12-.16.24-.24.35a3.42,3.42,0,0,0-.66,1.24,1.69,1.69,0,0,0,.4,1.46A1.21,1.21,0,0,0,943.59,711.27Z"/><path class="cls-6" d="M951.43,768.08c1.51-3-11.1.3-16.46-1.81-3.27-1.29-.9,6.38.73,8.16C938.14,777.09,948.87,773.22,951.43,768.08Z"/><path class="cls-23" d="M810,913c-4.27-6.5-12.26-14.86-13-16.16s-6.68.93-13.74-2.6-9.85-6.5-13.75-9.1S750.16,877,752.2,868.42c-1.67-2.41-2.23-8.73-1.49-10.59,1.14-2.84,4.09-1.3,5.39-1.11.19-1.86,5-3.16,8.55-.37s18.58,9.66,23.22,8.92c-4.27-2.28-9.29-5-9.85-8.36s4.65-2.23,8.36-.75,3.91,3.53,12.27,6.69,9.29,13.19,12.07,17.65c2.68,4.28,4.28,7.06,8.55,10.41S810,913,810,913Z"/><path class="cls-24" d="M797.16,878.3a.59.59,0,0,0,.09-1.17c-3.74-.55-5.56-6-6.65-9.21-.26-.78-.49-1.46-.7-2a.59.59,0,1,0-1.08.47c.19.45.41,1.11.67,1.87,1.17,3.49,3.13,9.34,7.58,10Z"/><path class="cls-24" d="M803.66,892.42h.08a.59.59,0,0,0,.51-.66c-.94-7.5-9.15-9.1-13.1-9.87l-.56-.11a.59.59,0,1,0-.23,1.16l.57.11c4,.77,11.32,2.21,12.15,8.86A.58.58,0,0,0,803.66,892.42Z"/><path class="cls-24" d="M771.71,879.6a.6.6,0,0,0,.54-.35.59.59,0,0,0-.3-.77c-4.41-2-16.15-7.44-17.6-9.47a.6.6,0,0,0-.82-.14.59.59,0,0,0-.14.83c1.9,2.65,16.43,9.12,18.08,9.85A.52.52,0,0,0,771.71,879.6Z"/><path class="cls-24" d="M773.38,874.22a.61.61,0,0,0,.55-.37.6.6,0,0,0-.33-.77c-4.94-2-18.17-7.76-20-10.55a.59.59,0,0,0-1,.64c2.39,3.67,19.79,10.71,20.53,11A.59.59,0,0,0,773.38,874.22Z"/><path class="cls-24" d="M773.94,868.46a.6.6,0,0,0,.58-.5.59.59,0,0,0-.49-.67c-2.34-.37-7.73-3.77-11.67-6.24-1.79-1.13-3.33-2.1-4.31-2.62a.59.59,0,1,0-.55,1c.94.5,2.47,1.46,4.24,2.58,4.24,2.67,9.53,6,12.1,6.4Z"/><path class="cls-23" d="M959,1397.14c.85,11.11-.12,20.41-1.85,27-1.1,4.15,11.25,3.39,20.48,1a42.74,42.74,0,0,0,11.07-5l-1.69-36.76Z"/><path class="cls-23" d="M856.43,1367.64c0,9.48,3.53,33.07-14.31,47s39.58-1.12,39.58-1.12-1.12-8.36,10.59-64.65C904.5,1290.11,856.43,1367.64,856.43,1367.64Z"/><path class="cls-25" d="M881.32,1407.77c-5.39,2.16-29.35,2.23-31.58-.37s-22.67,14.12-22.67,14.12-21.55-6.31-24.89,17.1c4.83,6.31,69.48,1.48,78.4-.75s9.29-7.06,9.29-7.06S885,1406.29,881.32,1407.77Z"/><path class="cls-27" d="M802.18,1438.62s-2.23,3.34,1.11,4.83c5.05,2.24,30.47,2.23,45,.37s28.61.74,42.36-6.32c1.12-4.83-1.11-7.43-1.11-7.43s-4.09,4.46-18.58,6.32-24.9,1.85-40.87,3.34A100.29,100.29,0,0,1,802.18,1438.62Z"/><path class="cls-6" d="M836,1423.6a.57.57,0,0,0,.43-.19.59.59,0,0,0,0-.83,6.47,6.47,0,0,0-5.73-1.59.59.59,0,0,0,.25,1.15,5.26,5.26,0,0,1,4.67,1.3A.61.61,0,0,0,836,1423.6Z"/><path class="cls-6" d="M842.87,1420.39a.6.6,0,0,0,.36-.12.59.59,0,0,0,.11-.83,7.83,7.83,0,0,0-7.45-2.93.58.58,0,0,0-.47.68.59.59,0,0,0,.68.48,6.62,6.62,0,0,1,6.3,2.48A.58.58,0,0,0,842.87,1420.39Z"/><path class="cls-6" d="M848.43,1415.64a.59.59,0,0,0,.38-.14.58.58,0,0,0,.06-.83,13.25,13.25,0,0,0-4.92-3.55.59.59,0,1,0-.45,1.09,12.09,12.09,0,0,1,4.48,3.23A.61.61,0,0,0,848.43,1415.64Z"/><path class="cls-25" d="M957.43,1419.9c-1.52,2.08-1,5.11-6.91,12s-7.83,10.94-9.95,12.5-19.41,2-19.46,19.65c5,6.33,21.25,3.69,33.86.49s41.73-17.16,41.73-17.16.77-11.8-1.51-16.1-4.7-13.9-6.62-13.47-11.82,6.22-19.92,6.28S957.43,1419.9,957.43,1419.9Z"/><path class="cls-27" d="M921.11,1464c-1.69-.15-1,5.11-.11,5.88s7.93,5,28.75-.52,45.66-16.91,47.52-18.17,1.16-6.79-.46-6.11-23.95,12.17-37.35,16-21.14,5-27.58,4.91A30,30,0,0,1,921.11,1464Z"/><path class="cls-28" d="M802.18,1438.62s-2.23,3.34,1.11,4.83c5.05,2.24,30.47,2.23,45,.37s28.61.74,42.36-6.32c1.12-4.83-1.11-7.43-1.11-7.43s-4.09,4.46-18.58,6.32-24.9,1.85-40.87,3.34A100.29,100.29,0,0,1,802.18,1438.62Z"/><path class="cls-28" d="M921.11,1464c-1.69-.15-1,5.11-.11,5.88s7.93,5,28.75-.52,45.66-16.91,47.52-18.17,1.16-6.79-.46-6.11-23.95,12.17-37.35,16-21.14,5-27.58,4.91A30,30,0,0,1,921.11,1464Z"/><path class="cls-6" d="M956,1442.15a.59.59,0,0,0,.52-.31.6.6,0,0,0-.24-.8A16.44,16.44,0,0,0,946,1439.2a.59.59,0,0,0-.49.67.61.61,0,0,0,.67.5,15.25,15.25,0,0,1,9.53,1.7A.57.57,0,0,0,956,1442.15Z"/><path class="cls-6" d="M961,1437.57a.57.57,0,0,0,.47-.24.58.58,0,0,0-.12-.82,21.07,21.07,0,0,0-9.47-3.94.59.59,0,0,0-.67.49.58.58,0,0,0,.49.67,20,20,0,0,1,9,3.72A.59.59,0,0,0,961,1437.57Z"/><path class="cls-6" d="M964.4,1430.47a.6.6,0,0,0,.54-.35.59.59,0,0,0-.3-.78,25.91,25.91,0,0,0-9.39-2.26.57.57,0,0,0-.62.56.59.59,0,0,0,.56.62,24.83,24.83,0,0,1,9,2.15A.53.53,0,0,0,964.4,1430.47Z"/><path class="cls-6" d="M947.59,1450.1a.62.62,0,0,0,.39-.15.59.59,0,0,0,0-.83,15.48,15.48,0,0,0-6-4.15.59.59,0,0,0-.45,1.08l.84.38.13,0a14.4,14.4,0,0,1,4.61,3.43A.57.57,0,0,0,947.59,1450.1Z"/><path class="cls-25" d="M1005.36,1045.14c4,15.9,6.22,37.53.15,53.09s-11.88,163.08-10.62,208.82,4.25,95.07,1.34,100.89-41.36,7.76-46,5.32-2.6-4.83-4.13-32.1-17.7-78-19.65-125.39-9.47-131.2-2.57-172.54c-9-.43-10.89-3.64-9.47-28.9S915.44,995,915.44,995l82.76,7.64Z"/><path class="cls-25" d="M895.49,1016.87c-5.62,49.07-33.86,171.49-39.43,197.13s-3.91,163.86-4.46,170.55,48.87,23,50,14.12,5.2-88.81,14.67-126.15,18.4-268.1,18.4-268.1Z"/><path class="cls-29" d="M973.69,1394.15a.59.59,0,0,0,.58-.53c2.79-25.15.94-50.87-.84-75.75l-.23-3.18c-5-69.17-8.84-142.79,2.42-215.67a.59.59,0,0,0-.49-.67.59.59,0,0,0-.67.5c-11.28,73-7.39,146.69-2.44,215.93l.23,3.18c1.79,24.82,3.63,50.49.85,75.53a.58.58,0,0,0,.52.65Z"/><path class="cls-29" d="M874.22,1389.89a.58.58,0,0,0,.58-.55c3.55-53.58,7.22-109,21.26-161.85a.61.61,0,0,0-.42-.73.59.59,0,0,0-.72.42c-14.07,53-17.74,108.44-21.29,162.09a.58.58,0,0,0,.54.62Z"/><path class="cls-29" d="M922.73,1187.64h0a.6.6,0,0,0,.56-.62c-1.75-34.66-3.2-77.77,1.13-103.69a.61.61,0,0,0-.13-.47.59.59,0,0,0-.43-.22c-2.94-.14-5.2-.57-6.69-2.22-2.6-2.88-3.16-9.46-2.22-26.06,1.4-25,1-59,1-59.37a.55.55,0,0,0-.6-.58.59.59,0,0,0-.58.59c0,.34.36,34.34-1.05,59.3-1,17.17-.35,23.71,2.53,26.91,1.63,1.82,3.93,2.38,6.85,2.57-4.22,26.09-2.77,68.86-1,103.3A.6.6,0,0,0,922.73,1187.64Z"/><path class="cls-6" d="M914.43,854.55q-1.42,7.65-2.84,15.29c-1.85,10-3.7,19.95-4.2,30.07-.27,5.43-.16,10.88,0,16.31l1.35,62.25a4,4,0,0,0,.49,2.23,3.47,3.47,0,0,0,2.4,1.24c7.06,1.23,13.72-3.93,17.83-9.8,9.26-13.22,10.45-30.27,11.34-46.38q.78-14.38,1.57-28.77c.72-13.06,1.46-26.28,5.44-38.74,4.47-14,12.86-26.51,17.29-40.54.58-1.83,1-4.19-.56-5.39a5.17,5.17,0,0,0-3-.77,73.22,73.22,0,0,1-23.29-5.35,8.83,8.83,0,0,0-3.26-.9,7,7,0,0,0-3.66,1.33c-9.56,6.12-12.52,18.5-14.68,29.65q-2.39,12.29-4.76,24.57Z"/><path class="cls-1" d="M941.52,1070c8.17,5.2,16,12.26,15.23,19.32s14.5-4.46,14.5-11.52-20.07-18.21-26-13.38S941.52,1070,941.52,1070Z"/><path class="cls-1" d="M927.4,802.1c-6.32,5.2-27.28,16.93-31.91,22.15-10.69,12-27.54,78.92-30.52,81.89s-28.61-13.75-31.58-10.78c-2.6-2.6-13.75-7.8-13.75-7.8a30,30,0,0,0-15.61,29c7.06,3.35,12.64,6.32,12.64,6.32S813,929.55,818.53,934s9.66,9.29,16.35,17.09,29.72,17.09,40.5,11.52a94.21,94.21,0,0,0,17.83-11.89s-.37,14.49-.74,26.75-5.57,50.17-10.77,71-6.32,23-6.32,23,13,5.58,16,11.52,3.71,4.83,5.94-3,12.64-65,16.72-78-1.48-26.38,1.12-52.77-4.09-67.25,4.46-95.86S927.4,802.1,927.4,802.1Z"/><g class="cls-30"><path class="cls-31" d="M1049.15,845.92a4.71,4.71,0,0,0,2.34-8.8c-21.65-12.36-47-25.75-74.4-28.34-12-1.14-24-.18-34.28.81-12.92,1.24-26.61,2.92-39.38,8.38-4.12,1.77-8,3.89-11.84,5.95-5.12,2.77-10,5.39-15.14,7.12a4.71,4.71,0,0,0,3,8.94,105.18,105.18,0,0,0,16.64-7.78c3.77-2,7.33-4,11.06-5.56,11.53-4.94,24.39-6.5,36.58-7.67,9.85-1,21.3-1.87,32.48-.81,25.49,2.41,48.86,14.73,70.62,27.14A4.7,4.7,0,0,0,1049.15,845.92Z"/><path class="cls-31" d="M1053.21,887.48a4.71,4.71,0,0,0,3.71-7.61c-10.09-12.93-22.64-29-40.18-36.8-10.44-4.62-22-6-31.89-6.71A296.52,296.52,0,0,0,863.65,853c-8,2.9-16.51,6.33-24.06,11.78a4.71,4.71,0,0,0,5.52,7.64c6.6-4.77,14.35-7.89,21.73-10.55a286.88,286.88,0,0,1,117.32-16.11c9.57.7,19.67,1.9,28.76,5.93,15.39,6.81,26.64,21.24,36.57,34A4.7,4.7,0,0,0,1053.21,887.48Z"/><path class="cls-31" d="M1051.41,914.74a4.71,4.71,0,0,0,3.53-7.83c-11.35-12.83-26.35-21.46-40.86-28.88-10.11-5.17-21.07-10.3-32.74-12.87-9.05-2-18.18-2.39-26.7-2.53-39.79-.63-72.71,5-100.65,17.19a4.71,4.71,0,1,0,3.77,8.63c26.68-11.64,58.31-17,96.73-16.4,8,.13,16.59.5,24.83,2.31,10,2.21,19.43,6.42,30.47,12.06,13.69,7,27.78,15.08,38.09,26.73A4.71,4.71,0,0,0,1051.41,914.74Z"/><path class="cls-31" d="M830.93,972.41a4.71,4.71,0,0,0,3.27-8.09c-1.56-1.52-5-8.43-5.22-10.41-.68-9.26,2.8-17.6,6.49-26.43,4.58-11,9.31-22.3,6.87-36.51a4.71,4.71,0,1,0-9.28,1.59c2,11.52-2,21.12-6.29,31.29-3.95,9.47-8,19.25-7.18,30.76.32,4.42,5.08,13.6,8.06,16.48A4.71,4.71,0,0,0,830.93,972.41Z"/><path class="cls-31" d="M860.5,971.48a4.71,4.71,0,0,0,1.36-9.22c-5.44-1.65-8.6-7.89-9.31-13.33a153.72,153.72,0,0,1-1-20.87c0-7.11.4-13.32.8-19.32.28-4.18.54-8.14.66-12.3a4.71,4.71,0,1,0-9.42-.29c-.12,4-.37,7.87-.64,12-.41,6.16-.83,12.52-.83,19.94a162.67,162.67,0,0,0,1.14,22.09c1.35,10.31,7.6,18.6,15.92,21.13A5,5,0,0,0,860.5,971.48Z"/><path class="cls-31" d="M873.9,972.63a4.72,4.72,0,0,0,4.68-4.23c.77-7.52-3.47-36.77-7.51-43.92a59.39,59.39,0,0,1-7.5-24.65,4.71,4.71,0,0,0-9.4.71,69.05,69.05,0,0,0,8.69,28.58c2.74,4.84,7,32.27,6.34,38.31a4.72,4.72,0,0,0,4.21,5.17A4,4,0,0,0,873.9,972.63Z"/><path class="cls-31" d="M887.26,972.07a4.26,4.26,0,0,0,1-.11,4.7,4.7,0,0,0,3.61-5.6c-.64-3,0-5.79.88-9.33,1.41-5.83,3.15-13.08-.46-23.76a21.93,21.93,0,0,1-.67-6.33c0-3.42-.11-7.29-1.94-11s-5-7.3-9.65-10.74a59,59,0,0,0-14.35-7.77,4.71,4.71,0,0,0-3.29,8.83,49.48,49.48,0,0,1,12.05,6.52c3.41,2.52,5.56,4.85,6.79,7.33.89,1.82.93,4.22,1,7a29.68,29.68,0,0,0,1.16,9.19c2.74,8.11,1.52,13.18.23,18.55-1,4.14-2,8.43-.93,13.52A4.72,4.72,0,0,0,887.26,972.07Z"/><path class="cls-31" d="M1036.57,943.46a4.71,4.71,0,0,0,3.31-8.07l-33.63-33.12c-3.11-3.06-6.63-6.53-11.14-8.8-6.9-3.47-14.78-3.44-21.1-3.41l-35.11.16a136.88,136.88,0,0,1-18.92-.8c-1.52-.21-3-.46-4.37-.71-6.7-1.18-13.63-2.41-20.89,4.07a4.71,4.71,0,0,0,6.27,7c3.66-3.27,6.2-3,13-1.82,1.48.26,3,.53,4.71.77a142.9,142.9,0,0,0,20.26.88l35.1-.16c5.6,0,11.94-.05,16.82,2.41,3.19,1.6,6,4.4,8.76,7.1l33.64,33.12A4.69,4.69,0,0,0,1036.57,943.46Z"/><path class="cls-31" d="M1033.33,988.28a4.71,4.71,0,0,0,4-7.19A256.75,256.75,0,0,0,982.59,918a15.26,15.26,0,0,0-12.66-4.42l-1,0a56.28,56.28,0,0,1-9.87-1c-4.78-.79-9.73-1.6-14.93-.9a50.08,50.08,0,0,0-8.58,2.14,37.27,37.27,0,0,1-7.81,1.88c-3.4.28-7-.53-10.82-1.39-1.88-.43-3.82-.87-5.82-1.19-6.81-1.1-12.1-.48-17.42,6a4.71,4.71,0,0,0,7.28,6c2.49-3,3.86-3.45,8.64-2.68,1.71.28,3.43.67,5.25,1.08,4.33,1,8.82,2,13.66,1.59a44.21,44.21,0,0,0,9.87-2.28,42.55,42.55,0,0,1,7-1.79c3.82-.51,7.87.15,12.16.86a64.11,64.11,0,0,0,11.58,1.16l1.19,0a11.57,11.57,0,0,1,3.06.13,10.62,10.62,0,0,1,3.23,2.13A247.3,247.3,0,0,1,1029.31,986,4.71,4.71,0,0,0,1033.33,988.28Z"/><path class="cls-31" d="M1027.48,993.19a4.71,4.71,0,0,0,1.75-9.09c-2.25-.9-4.66-1.68-7.21-2.5-4.81-1.55-9.78-3.16-13.08-5.44-2.16-1.49-2.71-3.12-3.87-7-.27-.9-.55-1.84-.87-2.82a42.33,42.33,0,0,0-13-19.17c-6.65-5.57-14.8-8.85-22-11.75l-1.71-.7c-4.25-1.75-8.64-3.56-14-3.63a125.81,125.81,0,0,0-26,2.4l-1,.21a28.07,28.07,0,0,1-7,.85c-10.2-.63-18.08-1.4-20.56-2a4.71,4.71,0,1,0-2.24,9.15c4,1,14.29,1.77,22.22,2.25a35.85,35.85,0,0,0,9.46-1l1-.2a116,116,0,0,1,24-2.21c3.52,0,6.75,1.37,10.49,2.91l1.78.73c6.86,2.77,14,5.63,19.47,10.24a33.3,33.3,0,0,1,10.12,14.9c.3.89.55,1.74.79,2.56,1.27,4.23,2.57,8.6,7.54,12,4.44,3.07,10.08,4.9,15.54,6.66,2.4.77,4.66,1.5,6.62,2.28A4.68,4.68,0,0,0,1027.48,993.19Z"/><path class="cls-31" d="M1023.89,1001c-15.78-1.62-31.73-3.58-47.42-5.82a10.86,10.86,0,0,1-5.94-2.35c-2.62-2.31-3-5.51-3.21-7.63-1.28-11.41-7.46-24.11-18.4-26.76-7.92-1.92-16-1.26-24.58-.57a128.44,128.44,0,0,1-18.61.6c-7.81-.52-21,10.86-27.34,16.32-5.35,4.63-7.36,6.35-10.54,5a4.71,4.71,0,0,1,.45-8.82c.81-.6,2.46-2,3.93-3.3,8.37-7.24,22.4-19.33,34.1-18.6a118.29,118.29,0,0,0,17.25-.58c8.93-.73,18.17-1.48,27.56.8,16.42,4,24,21.27,25.54,34.87.05.45.13,1.11.22,1.55l.91.15c15.56,2.22,31.39,4.17,47,5.77a4.71,4.71,0,0,1-.47,9.4Zm-47.36-15.4Zm-105-14.48Z"/><path class="cls-31" d="M1034.4,1026.19a4.71,4.71,0,0,0,1.93-9,125.45,125.45,0,0,0-67.47-9.94c-1.58.21-3.44.45-4.2,0-1.26-.67-1.34-4.23-1.41-7.1,0-.85,0-1.69-.08-2.5-.51-9.51-5.9-18.69-14.43-24.57-7.33-5-16.58-7.59-26.72-7.33-1.2,0-2.41.1-3.62.17a32.24,32.24,0,0,1-8.63-.23c-.85-.19-1.85-.46-2.91-.75-5.71-1.58-14.34-4-20.47,2.14A4.71,4.71,0,1,0,893,973.8c2.08-2.07,6.18-1.15,11.32.26,1.17.32,2.28.63,3.37.87a39.88,39.88,0,0,0,11.22.44c1.1-.07,2.21-.13,3.31-.16,8-.19,15.53,1.81,21.13,5.67,6.05,4.16,10,10.8,10.37,17.31,0,.72,0,1.47.07,2.23.12,5,.29,11.94,6.41,15.19,3.41,1.81,7.08,1.33,9.75,1a116,116,0,0,1,62.48,9.18A4.72,4.72,0,0,0,1034.4,1026.19Z"/><path class="cls-31" d="M1034.45,1058c1.79,0,3.57,0,5.36-.07a4.71,4.71,0,0,0-.26-9.42c-34.16.94-68.29-7.9-101.29-16.44-18-4.66-36.6-9.48-55.19-12.73a4.71,4.71,0,1,0-1.63,9.28c18.22,3.19,36.64,8,54.45,12.57C967.84,1049.48,1000.82,1058,1034.45,1058Z"/><path class="cls-31" d="M973.37,1082.13a37.52,37.52,0,0,0,10.3-1.92l.66-.19a100.84,100.84,0,0,1,33.77-3.77c5.21.29,11.77,1.1,16.35,4.69a4.71,4.71,0,0,0,5.82-7.41c-6.64-5.21-15-6.31-21.63-6.69a110.35,110.35,0,0,0-36.91,4.12l-.68.2c-3.81,1.1-7.75,2.24-10.41,1-1.92-.88-3.39-3-5.1-5.54a29.39,29.39,0,0,0-6.32-7.29c-5.7-4.3-12.87-4.26-19.13-3.67A139.22,139.22,0,0,0,913,1061c-2.87.87-5.75,1.75-7.46,1a11.11,11.11,0,0,1-2.75-2.37c-.41-.42-.82-.84-1.24-1.25a29.33,29.33,0,0,0-27.69-7.13,4.71,4.71,0,1,0,2.48,9.09,20,20,0,0,1,18.65,4.8c.34.33.68.69,1,1a18.75,18.75,0,0,0,5.59,4.38c5,2.28,10,.75,14.06-.48a129.37,129.37,0,0,1,25.36-5c4.46-.43,9.44-.55,12.57,1.81a21.67,21.67,0,0,1,4.21,5.08c2.18,3.19,4.65,6.81,8.94,8.78A15.64,15.64,0,0,0,973.37,1082.13Z"/><path class="cls-32" d="M867,926a13.51,13.51,0,0,0,4.42-.67c3.52-1.22,5.77-4,7.16-6,6-8.55,7.88-18.64,9.71-28.4l.5-2.62a302.27,302.27,0,0,1,14.41-50.68l.28-.72c2.47-6.48,5.28-13.82,4.1-21.57a4.71,4.71,0,1,0-9.32,1.42c.81,5.29-1.43,11.13-3.59,16.78l-.27.73a312.87,312.87,0,0,0-14.87,52.27l-.5,2.65c-1.65,8.78-3.35,17.85-8.17,24.74a6.49,6.49,0,0,1-2.52,2.48,8.5,8.5,0,0,1-2.77.09c-25.75-1.76-49.81-14.28-72-27.56a4.71,4.71,0,1,0-4.84,8.09c23.17,13.87,48.44,27,76.18,28.87C865.6,925.91,866.29,926,867,926Z"/><path class="cls-32" d="M886.21,965.51a4.7,4.7,0,0,0,3.41-8c-3.4-3.57-8-4.11-11.76-4.54-.77-.09-1.54-.18-2.28-.3-6.29-1-12.08-4.81-17.68-8.51-7.55-5-18.6-11.45-29.29-17.7s-21.51-12.57-28.85-17.42a4.72,4.72,0,0,0-5.2,7.87c7.56,5,18.61,11.45,29.3,17.69s21.51,12.57,28.85,17.42c6.14,4.06,13.09,8.65,21.4,10,.87.14,1.76.24,2.66.35,2.56.29,5,.58,6,1.68A4.67,4.67,0,0,0,886.21,965.51Z"/><path class="cls-32" d="M861.14,1120.34a4.7,4.7,0,0,0,4.12-2.43c13.83-24.94,23.62-48.3,29.93-71.41,4.68-17.1,8-36.32,10.54-60.48,2.16-20.73,3.42-41.83,3.75-62.69q.06-4.43.1-8.87c.17-17.83.35-36.26,4.66-53.49,1.14-4.54,2.61-9.23,4-13.76,4.35-13.89,8.86-28.26,5.76-43.09a4.71,4.71,0,1,0-9.23,1.93c2.6,12.42-1.35,25-5.52,38.34-1.47,4.67-3,9.49-4.18,14.29-4.59,18.31-4.77,37.31-4.94,55.69,0,2.94-.06,5.88-.11,8.81-.32,20.59-1.56,41.41-3.69,61.87-2.46,23.63-5.72,42.37-10.26,59-6.11,22.37-15.62,45-29.08,69.32a4.71,4.71,0,0,0,4.12,7Z"/></g><path class="cls-33" d="M941.52,1070c8.17,5.2,16,12.26,15.23,19.32s14.5-4.46,14.5-11.52-20.07-18.21-26-13.38S941.52,1070,941.52,1070Z"/><path class="cls-6" d="M977.27,797.7c-6.89,11.11-29.25,12.2-43.18,1.61-7.43,11,4.46,14.49,14.49,15.61s26.2-3.35,26.2-3.35Z"/><path class="cls-1" d="M940.36,812a.6.6,0,0,0,.52-.3l2.26-4.07a.59.59,0,0,0-.24-.8.58.58,0,0,0-.8.23l-2.25,4.07a.58.58,0,0,0,.51.87Z"/><path class="cls-1" d="M948.18,812.71a.59.59,0,0,0,.57-.42,7.92,7.92,0,0,1,1.76-3.1.59.59,0,1,0-.87-.79,9.12,9.12,0,0,0-2,3.55.6.6,0,0,0,.39.74Z"/><path class="cls-1" d="M954.85,812.72a.6.6,0,0,0,.59-.55,4.63,4.63,0,0,1,1.37-2.94.58.58,0,0,0,0-.83.59.59,0,0,0-.83,0,5.72,5.72,0,0,0-1.74,3.69.59.59,0,0,0,.55.63Z"/><path class="cls-1" d="M956.76,815.93c1.12,0,2.25,0,3.38-.08a.6.6,0,0,0,.56-.62.59.59,0,0,0-.61-.56A72.31,72.31,0,0,1,939,812.53c-.72-.19-1.49-.45-1.72-1a.59.59,0,1,0-1.09.47,3.42,3.42,0,0,0,2.52,1.66A73.69,73.69,0,0,0,956.76,815.93Z"/><path class="cls-23" d="M890.24,983.8c-7.06,3.35-16.53,4-22.48,2.51-3.55-.89-29-2.15-31.49,4-1.29,3.16,9.94.94,8.82.94-5.76,0-16.53-2.6-19.5.37s2.6,4.46,2.6,4.46-8.39-4.44-8.92,1.86c-.28,3.38,11.57,7.56,20.06,8.55,7.79.9,15.24,1.11,9.29,2.23s-14.71,1.55-19.69,0c-5.94-1.86-4.46,6.69,6.32,8.54s20.88,4,31.58.75c23.41-7.06,24.15-13.38,33.07-12.64,7.19.6-2.23-23.78-2.23-23.78Z"/><path class="cls-1" d="M960.1,813.25c-5.2,9.66-23.78,65-27.87,78s1.11,57.59-5.2,70.6c-13.38,8.92-21.55,6.31-23.41,16.35a37,37,0,0,0-13,3.34s-1.11,18.95,1.12,24.9,5.94,9.29,8.92,7.43a30.74,30.74,0,0,1,7.43-3s5.2,7.43,9.66,8.17,10-1.11,10-1.11-2.23,39.38-2.23,43.84,10,3,16,8.18,21.29,4,22.67,10c.71,3.15-7.33,6.54-7.33,10.62s-2,7.59,2.12,5.36,25.64-15.24,34.56-16,18.21,3,18.21.37,1.11-48.68-2.6-53.51.37-59.08.37-59.08,25-81,23.14-98.8-4.07-36.73-46.55-73.24C969,812.87,960.1,813.25,960.1,813.25Z"/><g class="cls-34"><path class="cls-31" d="M1049.15,845.92a4.71,4.71,0,0,0,2.34-8.8c-21.65-12.36-47-25.75-74.4-28.34-12-1.14-24-.18-34.28.81-12.92,1.24-26.61,2.92-39.38,8.38-4.12,1.77-8,3.89-11.84,5.95-5.12,2.77-10,5.39-15.14,7.12a4.71,4.71,0,0,0,3,8.94,105.18,105.18,0,0,0,16.64-7.78c3.77-2,7.33-4,11.06-5.56,11.53-4.94,24.39-6.5,36.58-7.67,9.85-1,21.3-1.87,32.48-.81,25.49,2.41,48.86,14.73,70.62,27.14A4.7,4.7,0,0,0,1049.15,845.92Z"/><path class="cls-31" d="M1053.21,887.48a4.71,4.71,0,0,0,3.71-7.61c-10.09-12.93-22.64-29-40.18-36.8-10.44-4.62-22-6-31.89-6.71A296.52,296.52,0,0,0,863.65,853c-8,2.9-16.51,6.33-24.06,11.78a4.71,4.71,0,0,0,5.52,7.64c6.6-4.77,14.35-7.89,21.73-10.55a286.88,286.88,0,0,1,117.32-16.11c9.57.7,19.67,1.9,28.76,5.93,15.39,6.81,26.64,21.24,36.57,34A4.7,4.7,0,0,0,1053.21,887.48Z"/><path class="cls-31" d="M1051.41,914.74a4.71,4.71,0,0,0,3.53-7.83c-11.35-12.83-26.35-21.46-40.86-28.88-10.11-5.17-21.07-10.3-32.74-12.87-9.05-2-18.18-2.39-26.7-2.53-39.79-.63-72.71,5-100.65,17.19a4.71,4.71,0,1,0,3.77,8.63c26.68-11.64,58.31-17,96.73-16.4,8,.13,16.59.5,24.83,2.31,10,2.21,19.43,6.42,30.47,12.06,13.69,7,27.78,15.08,38.09,26.73A4.71,4.71,0,0,0,1051.41,914.74Z"/><path class="cls-31" d="M812.81,961.36a4.8,4.8,0,0,0,1.44-.22,4.72,4.72,0,0,0,3-5.92c-2.07-6.49,2.2-14.19,6.37-20.9l9.71-15.63c4.16-6.7,10.45-16.83,8.57-27.68a4.71,4.71,0,1,0-9.28,1.62c1.17,6.75-2.78,13.82-7.29,21.08l-9.72,15.64c-5.27,8.49-10.63,18.42-7.34,28.73A4.73,4.73,0,0,0,812.81,961.36Z"/><path class="cls-31" d="M830.93,972.41a4.71,4.71,0,0,0,3.27-8.09c-1-1-1.61-2.87-1.82-5.64-.81-11,3.72-21.44,8.51-32.52,3.62-8.35,7.36-17,8.88-26.25a4.71,4.71,0,1,0-9.29-1.53c-1.34,8.11-4.69,15.85-8.24,24-5,11.64-10.24,23.67-9.26,37,.39,5.22,1.92,9,4.67,11.72A4.71,4.71,0,0,0,830.93,972.41Z"/><path class="cls-31" d="M860.5,971.48a4.71,4.71,0,0,0,1.36-9.22c-5.44-1.65-8.6-7.89-9.31-13.33-.76-5.77.36-11.75,1.54-18.07.18-1,.36-1.91.53-2.87a210.53,210.53,0,0,0,3.24-31,4.71,4.71,0,0,0-4.56-4.86h-.15a4.72,4.72,0,0,0-4.71,4.57,201.3,201.3,0,0,1-3.09,29.59c-.17.93-.34,1.87-.52,2.81-1.27,6.77-2.58,13.77-1.62,21,1.35,10.31,7.6,18.6,15.92,21.13A5,5,0,0,0,860.5,971.48Z"/><path class="cls-31" d="M883.39,968.44a4.72,4.72,0,0,0,4.69-4.23c.7-6.87-1.28-14.42-5.88-22.42-1.77-3.06-3.74-6-5.65-8.77s-3.85-5.65-5.48-8.54a59.39,59.39,0,0,1-7.5-24.65,4.71,4.71,0,0,0-9.4.71,69.05,69.05,0,0,0,8.69,28.58c1.83,3.23,3.9,6.27,5.9,9.21,1.9,2.78,3.69,5.41,5.27,8.16,3.6,6.25,5.17,11.89,4.67,16.76a4.71,4.71,0,0,0,4.21,5.16Z"/><path class="cls-31" d="M891.19,969.43a4.94,4.94,0,0,0,1-.11,4.72,4.72,0,0,0,3.61-5.6,145.11,145.11,0,0,1-3.26-29v-1.53c0-5.46-.08-11.65-2.85-17.27-1.92-3.88-5-7.3-9.65-10.74a59,59,0,0,0-14.35-7.77,4.71,4.71,0,0,0-3.29,8.83,49.48,49.48,0,0,1,12.05,6.52c3.41,2.52,5.56,4.85,6.79,7.33,1.81,3.68,1.84,8.29,1.87,13.16l0,1.58a154.28,154.28,0,0,0,3.47,30.88A4.72,4.72,0,0,0,891.19,969.43Z"/><path class="cls-31" d="M1036.57,943.46a4.71,4.71,0,0,0,3.31-8.07l-33.63-33.12c-3.11-3.06-6.63-6.53-11.14-8.8-6.9-3.47-14.78-3.44-21.1-3.41l-35.11.16a136.88,136.88,0,0,1-18.92-.8c-1.1-.15-2.22-.32-3.35-.5-8.47-1.3-19-2.93-26.58,3.83a4.71,4.71,0,0,0,6.27,7c4.27-3.8,11.69-2.65,18.87-1.54,1.18.18,2.35.36,3.5.52a143,143,0,0,0,20.26.88l35.1-.16c5.6,0,11.94-.05,16.82,2.41,3.19,1.6,6,4.4,8.76,7.1l33.64,33.12A4.69,4.69,0,0,0,1036.57,943.46Z"/><path class="cls-31" d="M1033.33,988.28a4.71,4.71,0,0,0,4-7.19A256.75,256.75,0,0,0,982.59,918a15.26,15.26,0,0,0-12.66-4.42l-1,0a56.28,56.28,0,0,1-9.87-1c-4.78-.79-9.73-1.6-14.93-.9a50.08,50.08,0,0,0-8.58,2.14,37.27,37.27,0,0,1-7.81,1.88c-3.4.28-7-.53-10.82-1.39-1.88-.43-3.82-.87-5.82-1.19-9.06-1.46-16.74.7-21.05,6a4.71,4.71,0,1,0,7.28,6c3.11-3.79,10.17-3,12.27-2.64,1.71.28,3.43.67,5.25,1.08,4.33,1,8.81,2,13.66,1.59a44.21,44.21,0,0,0,9.87-2.28,42.55,42.55,0,0,1,7-1.79c3.82-.51,7.87.15,12.16.86a64.11,64.11,0,0,0,11.58,1.16l1.19,0a11.57,11.57,0,0,1,3.06.13,10.62,10.62,0,0,1,3.23,2.13A247.3,247.3,0,0,1,1029.31,986,4.71,4.71,0,0,0,1033.33,988.28Z"/><path class="cls-31" d="M1027.48,993.19a4.71,4.71,0,0,0,1.75-9.09c-2.25-.9-4.66-1.68-7.21-2.5-4.81-1.55-9.78-3.16-13.08-5.44-2.16-1.49-2.71-3.12-3.87-7-.27-.9-.55-1.84-.87-2.82a42.33,42.33,0,0,0-13-19.17c-6.65-5.57-14.8-8.85-22-11.75l-1.71-.7c-4.25-1.75-8.64-3.56-14-3.63a125.81,125.81,0,0,0-26,2.4l-1,.21a28.55,28.55,0,0,1-7,.85,27.93,27.93,0,0,1-6.75-1.67c-1.53-.5-3.11-1-4.78-1.44-6.8-1.66-13-.23-16.59,3.81a4.71,4.71,0,1,0,7,6.26c1.45-1.63,4.85-1.51,7.31-.91,1.31.32,2.64.76,4.06,1.23a35.25,35.25,0,0,0,9.13,2.12,35.85,35.85,0,0,0,9.46-1l1-.2a116,116,0,0,1,24-2.21c3.52,0,6.75,1.37,10.49,2.91l1.78.73c6.86,2.77,14,5.63,19.47,10.24a33.3,33.3,0,0,1,10.12,14.9c.3.89.55,1.74.79,2.56,1.27,4.23,2.57,8.6,7.54,12,4.44,3.07,10.08,4.9,15.54,6.66,2.4.77,4.66,1.5,6.62,2.28A4.68,4.68,0,0,0,1027.48,993.19Z"/><path class="cls-31" d="M1024.38,1001a4.71,4.71,0,0,0,.47-9.4c-15.65-1.6-31.48-3.55-47-5.77l-.91-.15c-.09-.44-.17-1.1-.22-1.55-1.52-13.6-9.12-30.89-25.54-34.87-7.38-1.79-14.76-.38-21.9,1-8.14,1.56-15.16,2.9-20.76-.52-.45-.27-.88-.57-1.31-.87a22.13,22.13,0,0,0-3.81-2.22c-3.93-1.69-8.09-1.29-11.28-.74a4.71,4.71,0,0,0,1.58,9.29c1.91-.33,4.32-.61,6,.11a14.21,14.21,0,0,1,2.18,1.33c.58.39,1.15.79,1.74,1.15,8.71,5.31,18.23,3.49,27.43,1.73,6.45-1.23,12.53-2.39,17.92-1.08,10.94,2.65,17.12,15.35,18.4,26.76.23,2.12.59,5.32,3.21,7.63a10.86,10.86,0,0,0,5.94,2.35c15.69,2.24,31.64,4.2,47.42,5.82Z"/><path class="cls-31" d="M1035.35,1023.45a4.71,4.71,0,0,0,1.93-9,125.36,125.36,0,0,0-67.47-10c-1.57.21-3.44.45-4.2,0-1.26-.67-1.34-4.23-1.41-7.09,0-.85,0-1.69-.08-2.5-.51-9.51-5.9-18.7-14.43-24.58-7.33-5-16.58-7.59-26.72-7.33-1.2,0-2.41.1-3.62.17a32.68,32.68,0,0,1-8.63-.22,37.53,37.53,0,0,1-4.57-1.48c-4.24-1.57-9-3.35-14.28-1.49A4.71,4.71,0,1,0,895,968.9c2-.72,4.74.29,7.87,1.45a44.15,44.15,0,0,0,5.8,1.83,39.51,39.51,0,0,0,11.22.44c1.1-.06,2.21-.13,3.31-.16,8-.2,15.54,1.81,21.13,5.67,6,4.17,10,10.8,10.37,17.32,0,.72,0,1.46.07,2.22.12,5,.29,11.94,6.41,15.19,3.41,1.81,7.08,1.34,9.76,1a116,116,0,0,1,62.47,9.18A4.73,4.73,0,0,0,1035.35,1023.45Z"/><path class="cls-31" d="M1014,1033.34a195.24,195.24,0,0,0,29.34-2.2,4.71,4.71,0,1,0-1.42-9.32,188.15,188.15,0,0,1-72.69-3.28c-4.32-1.07-8.71-2.31-13-3.52l-13.74-3.91c.29-16.09-9.31-32-23.93-39-6.91-3.27-7.47-3.44-15-4.6a4.71,4.71,0,0,0-1.43,9.31c6.5,1,6.5,1,12.43,3.81,12.09,5.73,20,20.06,18.34,33.34l-.5,4,21.29,6c4.33,1.23,8.81,2.5,13.29,3.61A197.27,197.27,0,0,0,1014,1033.34Z"/><path class="cls-31" d="M1034.45,1058c1.79,0,3.57,0,5.36-.07a4.71,4.71,0,0,0-.26-9.42c-34.16.94-68.29-7.9-101.29-16.44-18-4.66-36.6-9.48-55.19-12.73a4.71,4.71,0,1,0-1.63,9.28c18.22,3.19,36.64,8,54.45,12.57C967.84,1049.48,1000.82,1058,1034.45,1058Z"/><path class="cls-31" d="M973.37,1082.13a37.52,37.52,0,0,0,10.3-1.92l.66-.19a100.84,100.84,0,0,1,33.77-3.77c5.21.29,11.77,1.1,16.35,4.69a4.71,4.71,0,0,0,5.82-7.41c-6.64-5.21-15-6.31-21.63-6.69a110.35,110.35,0,0,0-36.91,4.12l-.68.2c-3.81,1.1-7.75,2.24-10.41,1-1.92-.88-3.39-3-5.1-5.54a29.39,29.39,0,0,0-6.32-7.29c-5.7-4.3-12.87-4.26-19.13-3.67A139.22,139.22,0,0,0,913,1061c-2.87.87-5.75,1.75-7.46,1a11.11,11.11,0,0,1-2.75-2.37c-.41-.42-.82-.84-1.24-1.25a29.33,29.33,0,0,0-27.69-7.13,4.71,4.71,0,1,0,2.48,9.09,20,20,0,0,1,18.65,4.8c.34.33.68.69,1,1a18.75,18.75,0,0,0,5.59,4.38c5,2.28,10,.75,14.06-.48a129.37,129.37,0,0,1,25.36-5c4.46-.43,9.44-.55,12.57,1.81a21.67,21.67,0,0,1,4.21,5.08c2.18,3.19,4.65,6.81,8.94,8.78A15.64,15.64,0,0,0,973.37,1082.13Z"/><path class="cls-31" d="M920.12,1031.24a5.17,5.17,0,0,0,1.22-.16,4.72,4.72,0,0,0,3.34-5.77l-8.49-31.72a60,60,0,0,0-3.61-10.71,33.24,33.24,0,0,0-9.05-11.46,4.71,4.71,0,0,0-5.92,7.33,23.8,23.8,0,0,1,6.47,8.19,53.71,53.71,0,0,1,3,9.08l8.48,31.72A4.72,4.72,0,0,0,920.12,1031.24Z"/><path class="cls-32" d="M924.44,962.48a4.73,4.73,0,0,0,4.5-3.3c1.92-6.15,3.29-12.44,4.61-18.52.69-3.17,1.4-6.44,2.17-9.61,12-49.16,43.75-92.74,71.75-131.19a4.71,4.71,0,0,0-7.62-5.55c-28.51,39.16-60.84,83.53-73.28,134.51-.8,3.28-1.53,6.61-2.23,9.83-1.28,5.89-2.6,12-4.4,17.71a4.71,4.71,0,0,0,3.09,5.9A4.61,4.61,0,0,0,924.44,962.48Z"/><path class="cls-32" d="M864.26,1021.93a4.7,4.7,0,0,1-1.37-6.52c1.84-2.83,12.32-10.93,48.73-37.67,10.45-7.68,21.26-15.62,22.6-16.87,8.5-8,12.73-19.33,17.21-31.27a171.63,171.63,0,0,1,8.18-19.37c1.52-2.92,3.21-5.73,4.84-8.45,1.54-2.56,3-5,4.32-7.49,2.49-4.68,4.49-9.56,6.62-14.71,1.15-2.81,2.35-5.71,3.63-8.56a160,160,0,0,1,45-58.68,4.71,4.71,0,1,1,5.94,7.32,150.38,150.38,0,0,0-42.38,55.2c-1.22,2.72-2.39,5.56-3.52,8.31-2.12,5.14-4.3,10.45-7,15.54-1.45,2.73-3,5.37-4.56,7.92-1.63,2.72-3.17,5.29-4.57,8a166.24,166.24,0,0,0-7.71,18.31c-4.65,12.43-9.47,25.28-19.55,34.82-1.63,1.53-9.18,7.09-23.51,17.62-16.32,12-43.59,32-46.51,35.37a4.72,4.72,0,0,1-3.85,2A4.65,4.65,0,0,1,864.26,1021.93Zm6.37-1.18h0Zm.08-.09.07-.1Z"/><path class="cls-32" d="M911.26,1085.44a4.72,4.72,0,0,0,4.7-4.36c.6-7.93-5.3-16.14-11.54-24.83-5-6.94-11.17-15.58-9.64-19.9,3.9-11.06,17.05-17.7,38.44-25.45,9.24-3.35,22-16.37,25.77-20.67,7.92-9.1,13.77-19.63,19.44-29.82,1.77-3.19,3.61-6.49,5.47-9.67,5.11-8.75,10.87-17.36,16.43-25.68l17.74-26.53c5.45-8.15,11.06-16.55,16.85-24.58,7.07-9.81,14.65-19.42,22.53-28.59a4.71,4.71,0,1,0-7.14-6.14c-8.06,9.36-15.81,19.2-23,29.22-5.89,8.16-11.55,16.64-17,24.83L992.5,919.82C986.86,928.26,981,937,975.76,946c-1.91,3.27-3.77,6.62-5.57,9.86-5.67,10.2-11,19.85-18.31,28.19-5.38,6.18-16,15.87-21.87,18-20,7.24-38.44,15.08-44.12,31.17-3.16,9,4,18.91,10.88,28.53,4.75,6.62,10.13,14.12,9.79,18.63a4.71,4.71,0,0,0,4.34,5.05Z"/><path class="cls-32" d="M925.43,1118.08a4.71,4.71,0,0,0,4.63-3.85c6.06-32.47,20-64.56,41.41-95.38,18.29-26.3,41.81-51.43,71.89-76.81a4.71,4.71,0,1,0-6.07-7.2c-30.73,25.92-54.79,51.64-73.56,78.64-22.18,31.91-36.63,65.23-42.93,99a4.71,4.71,0,0,0,3.76,5.5A5.31,5.31,0,0,0,925.43,1118.08Z"/><path class="cls-32" d="M965.39,1121.16l.44,0a4.71,4.71,0,0,0,4.26-5.13c-1.3-14.06,2.64-28.59,6.66-40.94a355.27,355.27,0,0,1,38.13-80.8,4.71,4.71,0,1,0-8-5.06,365.08,365.08,0,0,0-39.14,83c-4.32,13.26-8.54,28.94-7.09,44.72A4.72,4.72,0,0,0,965.39,1121.16Z"/><path class="cls-32" d="M975.7,1148a4.71,4.71,0,0,0,4.66-4.08c3.54-26.11,14.14-51.19,24.38-75.44,7.62-18,15.5-36.69,20.64-56a4.71,4.71,0,0,0-9.1-2.43c-5,18.66-12.72,37-20.22,54.74-10.48,24.82-21.33,50.49-25,77.85a4.71,4.71,0,0,0,4,5.3A4.58,4.58,0,0,0,975.7,1148Z"/></g><path class="cls-24" d="M848.85,991.58c2.68,0,5.22-.06,7.07-.21a.59.59,0,0,0,.54-.63.6.6,0,0,0-.64-.54,151,151,0,0,1-18.07-.16.59.59,0,1,0-.1,1.17C840.35,991.43,844.76,991.58,848.85,991.58Z"/><path class="cls-1" d="M927,800.24c-3.35,4.46-6.69,14.12-7.43,17.09s6.68.75,8.91-1.48S927,800.24,927,800.24Z"/><path class="cls-1" d="M919.6,853.38c3-7.81,8.91-19.33,10.4-30.1s10-27.13,12.64-32.33c-10,3-13.38,7.06-15.61,9.29s.37,8.17-2.23,19S919.6,853.38,919.6,853.38Z"/><path class="cls-1" d="M960.1,813.25s11.89-7.81,16-13.75,5.2-9.66,5.2-9.66,5.57,3.71,7.06,6.31-14.86,29-22.3,34.93c1.86-5.94,1.12-8.55-1.11-10.77A39,39,0,0,1,960.1,813.25Z"/><g class="cls-35"><path class="cls-1" d="M924.43,1007.06h.06c4.82-.5,13.57-2.49,15.82-6.71a4.6,4.6,0,0,0-.13-4.55,4.17,4.17,0,0,0-3.12-2.11c-6.67-1.29-21.72,6.84-26,10.48a.59.59,0,0,0,.76.9c4.32-3.66,18.94-11.4,25-10.23a3,3,0,0,1,2.3,1.51,3.47,3.47,0,0,1,.13,3.45c-1.76,3.29-9,5.47-14.91,6.09a.59.59,0,0,0,.07,1.18Z"/><path class="cls-1" d="M963.43,1077.69a.73.73,0,0,0,.29-.07.66.66,0,0,0,.31-.55.55.55,0,0,0-.17-.41c-1-2.42-8.66-28.89-7.63-41.91a.6.6,0,0,0-.54-.63.62.62,0,0,0-.64.54c-1,13.32,7,42.23,8.06,42.93A.63.63,0,0,0,963.43,1077.69Z"/><path class="cls-1" d="M995.4,1007.8a.59.59,0,0,0,.57-.46c2.2-9.86,12.13-32.73,12.23-33a.59.59,0,0,0-1.08-.48c-.1.24-10.08,23.21-12.3,33.18a.6.6,0,0,0,.45.71Z"/><path class="cls-1" d="M930.37,1017.46l.16,0c.4-.12,1-.26,1.8-.46,38.82-9.6,61-29.61,72.82-44.71a.58.58,0,0,0-.1-.82.59.59,0,0,0-.83.1c-11.67,15-33.68,34.77-72.17,44.29l-1.84.46a.59.59,0,0,0-.4.73A.59.59,0,0,0,930.37,1017.46Z"/><path class="cls-1" d="M929.26,962.09a.58.58,0,0,0,.28-.07c1.63-.9,3.9-1.9,6.53-3,8-3.51,19-8.32,23.06-15.77.65-1.21,1.41-2.59,2.26-4.11,5.91-10.7,15.81-28.6,20.06-47.2a.6.6,0,0,0-.45-.71.58.58,0,0,0-.7.44c-4.21,18.45-14.06,36.26-19.95,46.9l-2.26,4.12c-3.82,7.09-14.61,11.81-22.49,15.25-2.66,1.16-5,2.16-6.63,3.09a.59.59,0,0,0-.23.8A.58.58,0,0,0,929.26,962.09Z"/><path class="cls-1" d="M960.47,946.49a.58.58,0,0,0,.39-.15c2.2-2,4.58-3.82,7.1-5.77,5.84-4.52,11.87-9.2,15.32-15.57a.59.59,0,1,0-1-.56c-3.33,6.15-9.27,10.75-15,15.19-2.43,1.88-4.93,3.82-7.16,5.83a.58.58,0,0,0-.05.83A.6.6,0,0,0,960.47,946.49Z"/><path class="cls-1" d="M893.21,951.32h0a.59.59,0,0,0,.56-.61c0-.2-.74-19.46-.74-32.31,0-1.56,0-3.42,0-5.51-.08-15.06-.24-43.08,3-56.74a.59.59,0,0,0-1.15-.27c-3.28,13.8-3.13,41.91-3,57,0,2.09,0,3.94,0,5.5,0,12.87.74,32.16.75,32.35A.58.58,0,0,0,893.21,951.32Z"/><path class="cls-1" d="M882.81,922.71a.6.6,0,0,0,.41-.17.59.59,0,0,0,0-.83c-.44-.46-10.88-11.24-15.36-13.85a.59.59,0,0,0-.59,1c4.34,2.53,15,13.54,15.11,13.65A.58.58,0,0,0,882.81,922.71Z"/><path class="cls-1" d="M817,921.22a.58.58,0,0,0,.52-.31c3.43-6.52,9.85-18,14.35-21.75a.59.59,0,0,0-.76-.9c-4.65,3.87-11.16,15.51-14.63,22.1a.59.59,0,0,0,.24.79A.58.58,0,0,0,817,921.22Z"/></g><path class="cls-36" d="M920,850.08a.6.6,0,0,0,.58-.49,39.78,39.78,0,0,0,.43-6,43.76,43.76,0,0,1,.23-4.58,69.89,69.89,0,0,1,1.28-7c.33-1.52.67-3.09.94-4.63.75-4.33,1.35-8.25,1.83-12,.09-.71.22-1.54.36-2.44a45.62,45.62,0,0,0,.8-9,.58.58,0,0,0-.47-.53.6.6,0,0,0-.64.3,84.72,84.72,0,0,0-5.92,14.11.6.6,0,0,0,.45.75l3,.57A.59.59,0,0,0,923,818l-2.3-.44a82.22,82.22,0,0,1,4.52-11.1c-.12,2.05-.48,4.38-.79,6.36-.14.91-.26,1.75-.36,2.47-.47,3.71-1.07,7.61-1.82,11.93-.26,1.52-.6,3.07-.93,4.58a71,71,0,0,0-1.3,7.08c-.18,1.56-.21,3.16-.24,4.7a39.64,39.64,0,0,1-.41,5.84.6.6,0,0,0,.48.68Z"/><path class="cls-36" d="M966.65,830.84c1.54,0,2.85-1.16,3.85-2.22,7.15-7.56,13.46-17.91,17.76-29.15a.6.6,0,0,0-.34-.76.59.59,0,0,0-.76.34c-4.24,11.1-10.46,21.31-17.52,28.76a5.19,5.19,0,0,1-2.8,1.84,18.14,18.14,0,0,0-6.07-14.42.59.59,0,0,0-.77.89,17,17,0,0,1,5.62,14,.58.58,0,0,0,.48.63A3.51,3.51,0,0,0,966.65,830.84Z"/><path class="cls-33" d="M963.25,925.51a3.49,3.49,0,0,0,1.9-.49,5.41,5.41,0,0,0,1.83-2.58,37.65,37.65,0,0,0,2-8.87l.07-.5a288.57,288.57,0,0,1,7.71-37.35.6.6,0,0,0-.09-.49c-1.56-2.28-4.27-2.23-6.43-2.2a.58.58,0,0,0-.58.6.62.62,0,0,0,.6.58c1.91,0,4-.07,5.28,1.47a292.11,292.11,0,0,0-7.66,37.23l-.07.5a36,36,0,0,1-1.89,8.59,4.38,4.38,0,0,1-1.36,2,3.29,3.29,0,0,1-2,.26,143.29,143.29,0,0,1-19.15-2.9,4.66,4.66,0,0,1-2.81-1.34c-1.18-1.43-1-4-.7-6.26,1-7.31,2.07-14.71,3.19-22,.22-1.42.39-3.41.57-5.52.44-5.22,1-11.72,2.63-14.4a.59.59,0,1,0-1-.61c-1.79,2.91-2.35,9.56-2.81,14.91-.17,2.09-.34,4.06-.55,5.44-1.13,7.28-2.2,14.68-3.2,22-.36,2.68-.5,5.4,1,7.17a5.63,5.63,0,0,0,3.46,1.74,144.3,144.3,0,0,0,19.31,2.92C962.64,925.48,962.93,925.51,963.25,925.51Z"/><path class="cls-33" d="M904.7,916.49a1.94,1.94,0,0,0,1.19-.32,2.86,2.86,0,0,0,.91-2.42,341.32,341.32,0,0,1,3.14-35.59c.56-3.93.9-7.94,1.24-11.83l.05-.63a1.72,1.72,0,0,0-.38-1.44,1.51,1.51,0,0,0-1-.33c-2,0-4.1-.07-6.11-.14-1.49-.06-3-.11-4.49-.13a.57.57,0,0,0-.6.57.58.58,0,0,0,.58.6c1.49,0,3,.08,4.47.13,2,.07,4.11.15,6.15.15a.93.93,0,0,1,.24,0,2.41,2.41,0,0,1,0,.47l-.06.63c-.33,3.87-.67,7.87-1.22,11.77a343.39,343.39,0,0,0-3.16,35.71c0,.38,0,1.25-.4,1.5a1.42,1.42,0,0,1-.77.1l-9.62-.41a.57.57,0,0,0-.62.56.59.59,0,0,0,.57.61l9.62.42Z"/><path class="cls-33" d="M907,1008.54a.55.55,0,0,0,.28-.07.58.58,0,0,0,.24-.8c-2.52-4.68-5.12-19.44-4-26a.59.59,0,0,0-1.17-.2c-1.14,6.89,1.5,21.83,4.15,26.76A.59.59,0,0,0,907,1008.54Z"/><path class="cls-33" d="M910.49,1014.71a.6.6,0,0,0,.29-.08.58.58,0,0,0,.23-.79c-.92-1.71-2.19-4-5.25-3.34-.8.18-1.63.41-2.48.66-3.5,1-7.12,2-9.69-.66a2.2,2.2,0,0,1-.74-1.56.58.58,0,0,0-.52-.64.59.59,0,0,0-.65.52,3.15,3.15,0,0,0,1.06,2.49c3,3.22,7.21,2,10.87,1,.82-.24,1.63-.47,2.41-.65,1.86-.42,2.76.56,4,2.76A.59.59,0,0,0,910.49,1014.71Z"/><path class="cls-33" d="M893.11,981a.61.61,0,0,0,.45-.2c.91-1.08,3.21-1.17,5.43-1.26a12.78,12.78,0,0,0,4.9-.78,1.58,1.58,0,0,0,.73-2c-.09-.51-.1-.74.1-1a15.84,15.84,0,0,1,8.57-4.8.58.58,0,0,0,.48-.68.59.59,0,0,0-.68-.48,17,17,0,0,0-9.22,5.15,2.05,2.05,0,0,0-.4,2c.1.59.07.61-.12.7a12,12,0,0,1-4.41.65c-2.47.1-5,.2-6.28,1.67a.59.59,0,0,0,.07.83A.56.56,0,0,0,893.11,981Z"/><path class="cls-24" d="M850.44,1000.53a18.88,18.88,0,0,0,3.93-.44.58.58,0,0,0,.45-.69.6.6,0,0,0-.7-.46,19.85,19.85,0,0,1-8.77-.2c-1.33-.25-2.7-.5-4.36-.68a84.17,84.17,0,0,1-13.28-2.86.59.59,0,0,0-.72.42.58.58,0,0,0,.41.72,85.23,85.23,0,0,0,13.46,2.89c1.62.17,3,.42,4.28.66A28.23,28.23,0,0,0,850.44,1000.53Z"/><path class="cls-24" d="M843.26,1015.36a71.14,71.14,0,0,0,11.94-1.18.59.59,0,0,0,.49-.67.59.59,0,0,0-.67-.5,63.49,63.49,0,0,1-15.5,1.06l-6.84-.39a.56.56,0,0,0-.63.55.59.59,0,0,0,.56.62l6.84.39C840.84,1015.32,842.09,1015.36,843.26,1015.36Z"/><path class="cls-23" d="M537.76,1262.57c4.71,21.79,25.91,126.62,25.91,137.81s19.44,1.18,19.44,1.18.59.59-1.18-28.86,3.53-110.13,3.53-110.13Z"/><path class="cls-23" d="M611.38,1257.86c-.59,12.36,4.71,56,4.71,86s-.59,45.35-.59,45.35l17.67.59S645,1338,650.25,1305s13-70.08,13-70.08Z"/><path class="cls-10" d="M561.91,1388.21c-3.93-1.57-1.57,18.45-2.36,27.48s-1.57,9.82-1.18,12.57,20.81,11.78,25.52,9.81,9-6.67,9.43-12.17c.51-7.15-7.07-15.7-7.86-26.7s-.39-15.7-2.74-14.13-5.89,2.75-11.78,3.53S563.87,1389,561.91,1388.21Z"/><path class="cls-11" d="M574.7,1433.51a87.51,87.51,0,0,1-16.42-6.65,13.17,13.17,0,0,0,.09,1.4c.4,2.75,20.81,11.78,25.52,9.81s8.87-6.51,9.39-11.88C589.44,1432.19,582.09,1435.86,574.7,1433.51Z"/><path class="cls-10" d="M616.09,1379.57c-3.53-.39-7.85,15.71-8.25,25.52a91.21,91.21,0,0,0,.79,16.88l17.67.4.39-7.85,7.07,7.06s30.23.39,34.16.39,2.82-11.3-2.69-11.41c-10.17-.2-10.67-2.49-18.33-14.27-7.49-11.52-9.61-15.15-11.18-14.76C630.27,1382.9,623.38,1380.38,616.09,1379.57Z"/><path class="cls-11" d="M654.65,1418.49a54.73,54.73,0,0,1-5.87,0H632.07l1.69,3.09s30.23.39,34.16.39c1.57,0,2.62-1.57,3-3.48Z"/><path class="cls-11" d="M622.72,1412.36c-.67-.29-1.35-.56-2-.81a61.18,61.18,0,0,0-6.58-2.2c-2.09-.62-4.3-.59-6.41-1.25-.1,9.26.86,13.87.86,13.87l17.67.4.29-7.85A15.7,15.7,0,0,0,622.72,1412.36Z"/><path class="cls-37" d="M545.59,979.73c-3.53,2-27.58,45-30.33,75.67s13.26,133.8,9.72,154.41,2.46,157.75,6,161.87,48.48,3.08,61.27-4.72c4.9-3,.09-172.52,1-177.23,2.14-10.66,8.38,173.76,13.74,173.76,21,0,47.61-1.53,56.42-4.1,5.3-1.76,1.2-137.34,4.15-152.07S645.71,1073.18,640.41,1049c1.77-28.86-14.66-65.37-14.66-65.37Z"/><path class="cls-23" d="M558.27,1063.41c-3.21-6-8.46-11.41-14.56-16.15a88.1,88.1,0,0,1-9.39-8.84,76.12,76.12,0,0,1-6.85,6.48c-2,1.7-4.13,3.29-6.1,5,5.44,5.69,5.39,13,9.38,28.46,2.52,9.74,7.9,21,10,20.87s-1.71-5.53-3.18-12c2.34,6.09,9.19,14.34,11.91,16s5.41,2.42,3.16-1.91c2.43,1.67,12.31,5.06,11,1.58s-9.38-18.74-11.64-23.06-2.31-11.4-2.31-11.4.37.87,4.93,3.91,8.15,11.14,10.12,9S561.49,1069.46,558.27,1063.41Z"/><path class="cls-24" d="M550.25,1100a.62.62,0,0,0,.32-.09.59.59,0,0,0,.17-.82,77.36,77.36,0,0,1-8.32-16.65.59.59,0,0,0-1.11.39,78.17,78.17,0,0,0,8.45,16.91A.58.58,0,0,0,550.25,1100Z"/><path class="cls-24" d="M557.05,1101.32a.58.58,0,0,0,.39-.15.6.6,0,0,0,0-.83,41.86,41.86,0,0,1-9.68-19.07.6.6,0,0,0-.7-.45.59.59,0,0,0-.45.7,43.08,43.08,0,0,0,10,19.6A.57.57,0,0,0,557.05,1101.32Z"/><path class="cls-24" d="M548.34,1067.72a.53.53,0,0,0,.24-.06.59.59,0,0,0,.3-.78,22.91,22.91,0,0,0-3.43-5.37.59.59,0,0,0-.83-.07.6.6,0,0,0-.06.83,21.29,21.29,0,0,1,3.24,5.1A.59.59,0,0,0,548.34,1067.72Z"/><path class="cls-25" d="M565.8,718a45.91,45.91,0,0,1,24-1c4.52,1,12.43.9,15.9,3.83a26.54,26.54,0,0,1,3.31,4.06c5,6.3,13.11,6.86,18.91,11.72,6.12,5.13,1.83,11.12,4.78,16.83a5.82,5.82,0,0,0,2.34,2c15.77,9.81,11.3,35,3.75,48.38-1.2,2.14-2.73,4.44-5.12,4.94-1.88.4-3.85-.43-5.73,0-1.4.29-2.58,1.23-4,1.67-2.74.87-5.64-.41-8.5-.7-4.27-.42-4.18,2.71-6.93,4.12-3.55,1.82-9.19,1.9-13.11,2.4a221.39,221.39,0,0,1-28.21,1.43c-8.58,0-17.77-.31-25.78-3.75C535.64,811.33,526,807,525.11,800c-.32-2.51-.08-5.69-2.33-6.84a7.47,7.47,0,0,1-1.84-.89,3.22,3.22,0,0,1-.76-1.78,13.89,13.89,0,0,1-.34-5.69c1-4.75,6.9-8.2,5.88-12.95a17.25,17.25,0,0,0-1.14-2.88c-2.57-6.16,1.92-14.07,4.23-19.79C535.32,733.11,549.82,723.26,565.8,718Z"/><path class="cls-38" d="M618.57,788.49c1.35-3.77,2.55-5.81,1.22-10-1-3.11-3.24-6-4.09-9a17.3,17.3,0,0,0-8.08-9.92,11.14,11.14,0,0,1-2.4-.23c.42.23-2.39.8-3.53.92-.35.3-.77.67-1.09.93-.47.61-1.27,1.57-1.41,1.74l-.34.4a2.51,2.51,0,0,1-.1.27c-.46,1.09-.88,2.21-1.35,3.29l0,.08a13.75,13.75,0,0,1-.34,2.59c.81,8.93-5,17.38-14.17,18.76a17.46,17.46,0,0,1-15.51-5.94c-1.35-1.58-2.55-6.37-4.21-7.25-3.75-2-7.37,2.87-7.58,6-.16,2.37.44,4.73.58,7.1s-.28,5-2,6.59c-.92.84-2.22,1.42-2.63,2.61-.73,2,1.64,3.74,2.77,5.6,1.25,2.06-3.26,13.48-2.22,13.64a103.21,103.21,0,0,0,15.25.89,221.39,221.39,0,0,0,28.21-1.43c3.92-.5,9.56-.58,13.11-2.4,2.75-1.41,2.66-4.54,6.93-4.12,1.45.15,2.92.54,4.36.79-.12-2.81-.6-5.88-.31-8.67.29-2.63,1.7-4.23.28-7a22.1,22.1,0,0,1-1.42-2.62A5.49,5.49,0,0,1,618.57,788.49Z"/><path class="cls-23" d="M565.62,787c1.57,9.42,1.37,36.63-7,42-5.13,3.3,29.67,68,42.34,67.71,11.29-.29,2.3-63.45-1.59-67.71-8.24-9-5.72-14.52.87-25.91S565.62,787,565.62,787Z"/><path class="cls-24" d="M573.57,811.32c1.46,5.14,1.55,4.85,4.49,10a30.35,30.35,0,0,0,5.78,6.21,32.59,32.59,0,0,0,2.91,1.71c-1.49-.49-1.27-.41.64.26a16.88,16.88,0,0,0,5.28,1c2.45.06,5,0,7.44-.15a4.45,4.45,0,0,0-.73-1.4c-8.24-9-5.72-14.52.87-25.91,5.22-9-19.56-13.85-30.08-15.47C569.66,796,571.06,802.47,573.57,811.32Z"/><path class="cls-23" d="M590,817.08a29.38,29.38,0,0,1-21.58-18.51c-4.06-11.27,0-7.56-4.46-7.52s-9.33-15.43-5.49-19.54c5.84-6.24,7.32,7.52,9.81,6.26,1.84-.93,1.41-9.35,1.77-11.11,1.58-7.73,4.64-25.06,15.39-17.8,8.16,5.5,22.5,4.13,27.25,14.07,4.88,10.19,2.65,20.34-2.56,36.27C605.86,812.23,596.12,818.24,590,817.08Z"/><path class="cls-19" d="M562.14,795.28a5.28,5.28,0,0,1-1.31-2.84h0c-.37-2.43.74-4.54,2.52-4.81a2.86,2.86,0,0,1,2.51,1,5.31,5.31,0,0,1,1.31,2.85c.37,2.43-.74,4.54-2.52,4.8a2.22,2.22,0,0,1-.37,0A2.93,2.93,0,0,1,562.14,795.28Zm1.38-6.48c-1.08.16-1.78,1.75-1.53,3.46h0a4.19,4.19,0,0,0,1,2.22,1.7,1.7,0,0,0,1.48.64c1.08-.17,1.78-1.75,1.53-3.46a4.16,4.16,0,0,0-1-2.22,1.81,1.81,0,0,0-1.29-.66Z"/><path class="cls-23" d="M636,1020.12c2.92,7.75,4.42,18-.3,24.83s-9.56,19.68-9.88,25.63,4.46,1.21,7.15-4.55c2.61-5.61,4.71-5.85,4.71-5.85s1.86,11.42,1.78,14.71-.51,9.29-2.61,13.19c-2.92,5.42,1,5.1,3.91,2.41-1.35,3.63,1.23,5.73,4.8,3s1.47,0,6.77-9.76,5-17.1,5-27.2.09-19.11-.4-24-1.43-26.15-1.43-26.15Z"/><path class="cls-24" d="M643.28,1086a.58.58,0,0,0,.55-.39,32.55,32.55,0,0,0,1.8-11.94.57.57,0,0,0-.61-.57.59.59,0,0,0-.57.61,31.48,31.48,0,0,1-1.73,11.51.59.59,0,0,0,.36.75A.69.69,0,0,0,643.28,1086Z"/><path class="cls-24" d="M648.42,1089.07a.6.6,0,0,0,.55-.36,61.65,61.65,0,0,0,3.9-13.38.6.6,0,0,0-.49-.68.59.59,0,0,0-.68.48,60.06,60.06,0,0,1-3.82,13.13.6.6,0,0,0,.32.77A.57.57,0,0,0,648.42,1089.07Z"/><path class="cls-10" d="M542.73,969s10.52,7.59,29.37,8.47,37.14,1.44,49.34-5.61c1.6-.28,5.55,10.62,4.31,11.8S605,991.57,591,992.16s-43.95-7.32-46.6-7.91S540.16,969,542.73,969Z"/><path class="cls-39" d="M558.63,829c-12.71,9.4-38,8.71-46.13,23C497,879.25,497.44,918.13,494.34,955c-2.87,34.2,5,48,17.42,87.47,1.12,3.56,2.36,7.87,4.76,10.72,2.23,2.66,6.22,5.86,9.36,4.44,6.36-2.89,11.25-8.71,18.22-9.13a3.29,3.29,0,0,0,1.59-.36,2.94,2.94,0,0,0,1-1.5c2.22-6.11.25-11.3-1.77-17.25-3.19-9.43-4.37-21-7.08-30.61-3.61-12.78-3.39-22.46-4.32-35.76-.32-4.69,2.49-16.41,1.35-20.31,0,0,8.41,28,8.41,28s21.2,13.94,34.16,14.53S623,979,623,979c-2.84-6.8-2.48-16.05,0-22.81-1.37,3.79,1.79,20.6,2.74,24.77,1.74,7.61,2.82,10.24,3.78,18,1,8.14.42,31,8.32,36.33,4.08,2.74,9.23,1.55,13.77,1.7,2.08.07,4.31.68,5.54,2.35.19.26,3.37-6.68,3.53-7.18a52,52,0,0,0,2-9.65c1.07-8.65-.83-18.7-1.6-27.42-2.77-31.16-14.95-60.2-13.95-91.89.59-18.71.29-47.86-5.89-55.37s-37.73-16.36-43.67-20.88c0,0,7.08,25.29.62,61.43C597.62,891.82,558.63,829,558.63,829Z"/><path class="cls-10" d="M621.44,971.86c-12.2,7-30.5,6.5-49.34,5.61S542.73,969,542.73,969c-.7,0-1.09,1.09-1.24,2.69,1.82,1,19.83,11.32,22.28,13.57a17.06,17.06,0,0,1,5.17,3.21,17.65,17.65,0,0,1,2.95,1.78c7.09,1.24,14.12,2.12,19.13,1.91,14-.59,33.49-7.32,34.73-8.5S623,971.58,621.44,971.86Z"/><path class="cls-24" d="M579.91,981.11l.37,8.72a6.35,6.35,0,0,0,6.62,6.07l16.66-.71a6.37,6.37,0,0,0,6.08-6.63l-.38-8.72a6.35,6.35,0,0,0-6.62-6.07l-16.66.72A6.34,6.34,0,0,0,579.91,981.11Zm19.24-2.42a3.51,3.51,0,0,1,3.67,3.37l.21,4.85a3.53,3.53,0,0,1-3.37,3.68l-9.26.4a3.54,3.54,0,0,1-3.68-3.37l-.21-4.86a3.53,3.53,0,0,1,3.37-3.67Z"/><path class="cls-40" d="M602.89,983.61l6.52-.28-.15-3.49c0-.11,0-.21,0-.32l-7.32.32a3.5,3.5,0,0,1,.93,2.22Z"/><path class="cls-40" d="M579.91,981.11l.15,3.49,6.52-.28-.07-1.56a3.46,3.46,0,0,1,.74-2.29l-7.32.32A1.72,1.72,0,0,0,579.91,981.11Z"/><path class="cls-41" d="M521.15,968.05a.58.58,0,0,0,.49-.26c2.73-4.09,10-3.86,10.09-3.86a.59.59,0,0,0,0-1.18c-.33,0-8-.25-11.12,4.39a.58.58,0,0,0,.17.81A.55.55,0,0,0,521.15,968.05Z"/><path class="cls-41" d="M534.7,938.9a.58.58,0,0,0,.56-.42c1.9-6.24,9.45-35.55,9.75-49.33a.6.6,0,0,0-.58-.61.63.63,0,0,0-.6.58c-.3,13.67-7.8,42.8-9.69,49a.58.58,0,0,0,.39.73A.51.51,0,0,0,534.7,938.9Z"/><path class="cls-41" d="M624.56,951.28a.58.58,0,0,0,.58-.51c1.92-14.37,4.4-24.94,8.29-35.34,3.12-8.34-.42-19.46-3.27-28.38-.49-1.55-1-3-1.38-4.43a.59.59,0,0,0-.73-.4.6.6,0,0,0-.4.74c.42,1.39.89,2.88,1.39,4.44,2.79,8.76,6.27,19.65,3.29,27.62-3.92,10.49-6.42,21.14-8.36,35.59a.6.6,0,0,0,.51.67Z"/><path class="cls-10" d="M587.82,774.42c.3,2-.66,3.88-2.16,4.1s-3-1.24-3.28-3.28.66-3.87,2.16-4.09S587.51,772.39,587.82,774.42Z"/><path class="cls-10" d="M608.06,775.55c-.44,1.84.14,3.56,1.3,3.84s2.45-1,2.89-2.85-.14-3.57-1.3-3.84S608.5,773.7,608.06,775.55Z"/><path class="cls-10" d="M587.19,761.26a1.77,1.77,0,0,1,1,.15,1.28,1.28,0,0,1,0,2,4,4,0,0,1-2.08.77c-2.87.51-5.24,1.85-8.24,2-.25,0-.54,0-.67-.21s0-.48.15-.69C579.45,762.3,583.78,761.49,587.19,761.26Z"/><path class="cls-10" d="M611.52,764.13c-1.16-.71-5.61-2-5.06,1a11.63,11.63,0,0,1,3.8,1.08,9.76,9.76,0,0,1,2.5,2.43c.41.53.85.81,1.42.62A6.42,6.42,0,0,0,611.52,764.13Z"/><path class="cls-24" d="M596.62,792.17c2.68,0,5.54-.49,7.1-2.08a4.31,4.31,0,0,0,.9-4.44,11.8,11.8,0,0,0-2.29-4.07c-2.19-2.78-2.89-6.92-1.85-11.09a6.44,6.44,0,0,1,1.63-3.19.59.59,0,0,0-.82-.84,7.51,7.51,0,0,0-1.95,3.75c-1.13,4.51-.35,9,2.07,12.1a10.86,10.86,0,0,1,2.08,3.65,3.22,3.22,0,0,1-.61,3.31c-2.2,2.24-8.25,1.88-11,1.2-.87-.22-1.94-.65-2.13-1.47a2.94,2.94,0,0,1,.74-2.06.58.58,0,0,0-.16-.82.59.59,0,0,0-.82.16,3.93,3.93,0,0,0-.91,3c.18.77.84,1.8,3,2.34A21.94,21.94,0,0,0,596.62,792.17Z"/><path class="cls-6" d="M601.78,798.52c1.66-.23-2.39,6.52-4.69,7.06s-11.15-.67-10.21-5.8C587.42,796.82,594.55,799.53,601.78,798.52Z"/><path class="cls-24" d="M564.41,784.72a.54.54,0,0,0,.3-.08.59.59,0,0,0,.2-.81c-.52-.88-.3-2.05-.06-3.29a8.78,8.78,0,0,0,.23-2.88.57.57,0,0,0-.66-.5.59.59,0,0,0-.5.67,8.2,8.2,0,0,1-.23,2.49c-.27,1.4-.54,2.85.21,4.12A.6.6,0,0,0,564.41,784.72Z"/><path class="cls-41" d="M567.16,974a.54.54,0,0,0,.39-.16,85,85,0,0,0,26.69-48.16c.84-4.75,1.28-9.64,1.7-14.37.6-6.7,1.22-13.63,3-20.2a.59.59,0,0,0-.42-.72.58.58,0,0,0-.72.41c-1.8,6.67-2.43,13.65-3,20.4-.42,4.71-.86,9.57-1.69,14.28A83.75,83.75,0,0,1,566.76,973a.59.59,0,0,0,0,.83A.6.6,0,0,0,567.16,974Z"/><path class="cls-41" d="M533.12,1048.56h0c-8.75-7-12.65-11.58-14.17-22.11h0c-.57-4,.23-6.76,2.32-8.08a5.6,5.6,0,0,1,6.1.44,10.77,10.77,0,0,1,3.54,4.89c1.94,4.64,1.67,8.6,1.2,12.59-.52,4.4-.34,9.69,1.74,11.34h0a.59.59,0,0,1,.09.83.55.55,0,0,1-.46.22A.58.58,0,0,1,533.12,1048.56Zm-11.22-29.19c-2.1,1.33-2.13,4.5-1.78,6.92,1.3,9,4.47,13.57,11.19,19.26-.94-3.11-.62-7.31-.37-9.4.56-4.71.54-8-1.11-12a9.78,9.78,0,0,0-3.14-4.39,5,5,0,0,0-2.85-.93A3.64,3.64,0,0,0,521.9,1019.37Zm-2.38,7h0Z"/><path class="cls-41" d="M642.79,1031.86a.6.6,0,0,0,.29-.08.59.59,0,0,0,.23-.8c-2.89-5.23-4.53-11.92-5.51-16.49l-.26-1.13c-.53-2.33-1.27-5.5-.53-7.56.52-1.45,1.14-2.25,1.76-2.2.9.1,2.14,2,2.5,4.53a71.92,71.92,0,0,1,.5,15.45.59.59,0,0,0,.55.63.6.6,0,0,0,.63-.54,73.69,73.69,0,0,0-.51-15.71c-.36-2.54-1.72-5.34-3.55-5.53-.85-.08-2.06.36-3,3-.85,2.39-.11,5.62.49,8.22l.26,1.12c1.08,5,2.7,11.5,5.63,16.81A.57.57,0,0,0,642.79,1031.86Z"/><path class="cls-41" d="M565.92,927.48a38.38,38.38,0,0,0,9.88-1.28.59.59,0,1,0-.3-1.14,37.37,37.37,0,0,1-19.3,0,.59.59,0,0,0-.3,1.14A38.62,38.62,0,0,0,565.92,927.48Z"/><path class="cls-42" d="M591.9,1176.56a.59.59,0,0,0,.58-.55c1.19-17.54-1.49-79-4.21-96.78-.45-3-1-6.62.64-9.41,1.21-2.06,3.44-3.33,5.6-4.57l.34-.19a100.59,100.59,0,0,0,16.7-12,.59.59,0,0,0-.78-.88A99.86,99.86,0,0,1,594.26,1064l-.33.19c-2.29,1.31-4.66,2.67-6,5-1.86,3.15-1.27,7-.79,10.19,2.72,17.69,5.39,79,4.21,96.52a.58.58,0,0,0,.55.62Z"/><path class="cls-42" d="M616.89,1351.52h.05a.6.6,0,0,0,.54-.64c-1.92-22.54-8-99-9.13-120.42a.56.56,0,0,0-.61-.56.58.58,0,0,0-.56.62c1.1,21.47,7.21,97.92,9.12,120.46A.6.6,0,0,0,616.89,1351.52Z"/><path class="cls-43" d="M576.32,743.37l.13,0a.58.58,0,0,0,.44-.7,35.22,35.22,0,0,0-9.38-17,.6.6,0,0,0-.84,0,.61.61,0,0,0,0,.84,34,34,0,0,1,9.06,16.41A.61.61,0,0,0,576.32,743.37Z"/><path class="cls-43" d="M530.86,800.27a4.76,4.76,0,0,1-1.74-3.84,1.88,1.88,0,0,1,.8-1.64,1.25,1.25,0,0,1,1.38.11,1,1,0,0,1,.37,1.08.59.59,0,0,1-1.15-.18.94.94,0,0,0-.23.69,3.6,3.6,0,0,0,1.31,2.86,2,2,0,0,0,1.81.44c1.34-.37,2-2,2.42-3.61a13.58,13.58,0,0,0,.76-4.86c-.2-2.29-1.55-4.21-3-6.25a24.58,24.58,0,0,1-2.4-3.93,12.5,12.5,0,0,1,.18-10.67,12.19,12.19,0,0,1,2.41-3.31,7.51,7.51,0,0,1-1.71-4.69,13.11,13.11,0,0,1,1.75-6.38c1.79-3.43,5.37-7.12,9.58-6.2a.59.59,0,1,1-.25,1.15c-3.34-.72-6.56,2.29-8.28,5.59a12.05,12.05,0,0,0-1.63,5.81,6.29,6.29,0,0,0,1.42,3.93,12.45,12.45,0,0,1,5.11-2.49,4.78,4.78,0,0,1,4,.5,2.82,2.82,0,0,1,1.11,2.32,2.1,2.1,0,0,1-.92,1.75,3.56,3.56,0,0,1-1.35.44c-2.65.46-5.22.77-7.38-.52a5.57,5.57,0,0,1-.59-.4,11.18,11.18,0,0,0-2.37,12.68,23.89,23.89,0,0,0,2.3,3.75c1.44,2.07,2.94,4.21,3.18,6.81a14.82,14.82,0,0,1-.81,5.29c-.53,1.89-1.33,3.9-3.23,4.43a3.09,3.09,0,0,1-.8.11A3.31,3.31,0,0,1,530.86,800.27Zm9.2-35.24a11.14,11.14,0,0,0-4.49,2.15l.28.18c1.82,1.08,4.15.79,6.58.37a2.7,2.7,0,0,0,.91-.27.9.9,0,0,0,.38-.79,1.62,1.62,0,0,0-.62-1.34,2.81,2.81,0,0,0-1.68-.47A6.39,6.39,0,0,0,540.06,765Z"/><path class="cls-43" d="M634.55,800.8a4,4,0,0,0,.59,0,3.86,3.86,0,0,0,2.72-1.83,5.29,5.29,0,0,0-.54-5.53,3.15,3.15,0,0,0-2.31-1.51,4.4,4.4,0,0,0-.92.1,2.85,2.85,0,0,1-.62.08,1.81,1.81,0,0,1-1.11-.55c-1.55-1.46-1.46-4-.86-5.8a22.9,22.9,0,0,1,1.43-3.23,27.17,27.17,0,0,0,1.36-3c1-2.78.74-5.43-.72-7.09a9,9,0,0,0-2.45-1.79,8.66,8.66,0,0,1-2-1.36.59.59,0,0,0-.84.84,10.44,10.44,0,0,0,2.24,1.55,8,8,0,0,1,2.14,1.53c1.17,1.34,1.36,3.55.51,5.92a27.48,27.48,0,0,1-1.31,2.87,24,24,0,0,0-1.5,3.39c-.71,2.2-.78,5.19,1.17,7a2.94,2.94,0,0,0,1.88.87,4.18,4.18,0,0,0,.89-.1,2.52,2.52,0,0,1,.63-.08,2.08,2.08,0,0,1,1.4,1,4.11,4.11,0,0,1,.48,4.27,2.67,2.67,0,0,1-1.88,1.25,1.92,1.92,0,0,1-1.64-.42.61.61,0,0,0-.84.05.6.6,0,0,0,0,.83A3,3,0,0,0,634.55,800.8Z"/><path class="cls-11" d="M635.06,1417.08a.64.64,0,0,0,.3-.08.6.6,0,0,0,.21-.81c-3.39-5.77-4.59-12.79-5.65-19L628,1385.78a.59.59,0,1,0-1.16.2l2,11.42c1.08,6.3,2.29,13.43,5.79,19.39A.59.59,0,0,0,635.06,1417.08Z"/><path class="cls-44" d="M1311.17,768.41c3.71-2.6,18.58-5.2,24.9-.74s-20.07,17.09-23.79,13S1311.17,768.41,1311.17,768.41Z"/><path class="cls-9" d="M1310.78,730.4c3.9,16.72,8.36,31.77,0,40.13s18.39,49.64,40.13,46.86,11.7-38.5,6.69-41.84-11.15-6.69-11.71-24S1310.78,730.4,1310.78,730.4Z"/><path class="cls-16" d="M1350,778.13a22.86,22.86,0,0,1-7.93-4.83c-12.87-11.61-19.94-26-25.53-41.94,9.86,2,28.92,7.42,29.33,20.22.56,17.28,6.69,20.62,11.71,24a5.31,5.31,0,0,1,2.39,5.33A95.5,95.5,0,0,1,1350,778.13Z"/><path class="cls-9" d="M1355.74,763.23c4.46-3.06,10.78-22.67,10.78-29.36s-3.24-13.11-2.23-24.8c1.39-16.17-3-16.44-5.21-18.3s-30.84-17.47-37.53,5.94-13.74,24.16-10.77,36,10.77,18.58,20.81,24.89S1348.68,768.06,1355.74,763.23Z"/><path class="cls-45" d="M1363.45,696c2.7,4.59,8.27-26.38-6.6-26-13-10-24.89-14.12-39.38,1.49-10.41-10-24.16-.38-27.13,6.31s-5.57,19-3,32.33-1.86,19.69,5.94,27.5,10,12.63,11.15,20.43,11.89,7.44,12.64,4.46-1.49-22.29-5.58-26,1.86-9.66,5.58-9.66,4.45-1.49,3.71-9.29,2.23-13,6.69-15.23-.74-9.29,3-11.52S1359.73,689.65,1363.45,696Z"/><path class="cls-9" d="M1319.88,738.33c1.08-1.69-1.05-17.63-6.92-18.58-6.76-1.09-7.76,3.35-6.27,8.92S1314.68,746.5,1319.88,738.33Z"/><path class="cls-6" d="M1344.5,745.85c-1.15-2.78,8.45.28,12.54-1.67,2.49-1.19-.56,5.3-.56,7.53S1346.45,750.59,1344.5,745.85Z"/><path class="cls-16" d="M1353.91,737.74a8.33,8.33,0,0,0,5.11-1.61,2.66,2.66,0,0,0,.78-3.36,90.59,90.59,0,0,1-5.53-17.68.58.58,0,0,0-.68-.47.59.59,0,0,0-.47.69,90.69,90.69,0,0,0,5.62,18,1.46,1.46,0,0,1-.48,1.93c-1.67,1.44-5.4,1.79-7,.67a.59.59,0,1,0-.68,1A5.91,5.91,0,0,0,1353.91,737.74Z"/><path class="cls-17" d="M1342.32,719.07c.57,1.41.26,2.86-.68,3.23s-2.16-.46-2.72-1.87-.26-2.86.68-3.23S1341.76,717.66,1342.32,719.07Z"/><path class="cls-17" d="M1362.4,718.82c0,1.52-.82,2.75-1.83,2.75s-1.83-1.23-1.83-2.75.82-2.75,1.83-2.75S1362.4,717.3,1362.4,718.82Z"/><path class="cls-17" d="M1335.82,712.34a1.78,1.78,0,0,1-.21-.9c0-1.06,1.89-2.78,2.74-3.27,1.49-.85,4.47-1.75,6.1-.68,3.94,2.57-3.16,4.26-4.91,4.67C1338.15,712.49,1336.41,713.3,1335.82,712.34Z"/><path class="cls-17" d="M1357.9,710.76c1.51.34,7.59,3.37,6.64-.5-.52-2.13-5.13-2.86-6.84-3.43a2.52,2.52,0,0,0-1.68-.16,1.79,1.79,0,0,0-.66,2.57A3.9,3.9,0,0,0,1357.9,710.76Z"/><path class="cls-46" d="M1310.81,685.14a.59.59,0,0,0,.56-.4,41.62,41.62,0,0,1,5.1-10.52.6.6,0,0,0-.16-.82.59.59,0,0,0-.82.16,42.62,42.62,0,0,0-5.24,10.82.59.59,0,0,0,.38.74Z"/><path class="cls-46" d="M1359.29,677.61a.59.59,0,0,0,.58-.55,6.78,6.78,0,0,0-1.57-4.86.59.59,0,1,0-.9.76,5.64,5.64,0,0,1,1.3,4,.59.59,0,0,0,.54.63Z"/><path class="cls-46" d="M1346.84,689.27a.58.58,0,0,0,.56-.43,31.31,31.31,0,0,0,1.33-6.28,16.48,16.48,0,0,0-2.91-10.7.59.59,0,1,0-1,.67,15.54,15.54,0,0,1,2.71,9.94,24.54,24.54,0,0,1-.78,4.21,46.6,46.6,0,0,0-5.37-8.94.6.6,0,0,0-.83-.12.59.59,0,0,0-.12.82c1.44,1.95,4.9,6.86,5.81,10.39a.57.57,0,0,0,.56.44Z"/><path class="cls-16" d="M1314.71,734.82l.18,0a.59.59,0,0,0,.38-.74l-.78-2.42c-.19-.58-.21-1-.06-1.1a1.23,1.23,0,0,1,.29-.17,1.73,1.73,0,0,0,.72-.58,1.78,1.78,0,0,0,.23-1.16,17.35,17.35,0,0,0-.51-3,.59.59,0,0,0-1.14.29,16.14,16.14,0,0,1,.47,2.85.93.93,0,0,1,0,.41.9.9,0,0,1-.29.19,2,2,0,0,0-.58.39,2.24,2.24,0,0,0-.23,2.29l.78,2.42A.59.59,0,0,0,1314.71,734.82Z"/><path class="cls-9" d="M1381.49,1009.55c4.89,8.49,8.62,20.14,4.44,29s-7.37,24.81-6.59,31.82,5.43.56,7.46-6.68c2-7.06,4.37-7.75,4.37-7.75s4.37,13,4.92,16.82,1.19,11-.51,15.9c-2.36,6.9,2.1,5.78,5,2.06-.88,4.5,2.53,6.45,6.17,2.55s6.06-3.46,10.38-15.84.54-13.12-1.44-24.91-5.94-27-7.46-32.61-6.71-30.25-6.71-30.25Z"/><path class="cls-16" d="M1402.64,1085a.59.59,0,0,0,.58-.49,38.32,38.32,0,0,0-.21-14.24.58.58,0,0,0-.69-.46.59.59,0,0,0-.46.7,37.45,37.45,0,0,1,.2,13.8.58.58,0,0,0,.48.68Z"/><path class="cls-16" d="M1409.23,1087.52a.58.58,0,0,0,.57-.45,73.17,73.17,0,0,0,2-16.34.6.6,0,0,0-.59-.6h0a.59.59,0,0,0-.59.59,71.36,71.36,0,0,1-1.93,16.08.59.59,0,0,0,.43.71Z"/><path class="cls-25" d="M1406.11,817.34a136.65,136.65,0,0,1,6.61,18.27c4.64,20.35,5.9,41.38,5.67,62.21-.11,10.41-1.41,20.84-1.47,31.22-.07,12.46,5.33,24.17,5.74,36.57.46,13.92-.34,27.9-.7,41.82-.08,3.15-.21,6.63-1.5,9.56-1.41,3.23-4.45,4.86-6.07,7.93-1.72,3.28-1.44,7.38-.6,10.87.2.83.39,1.86-.28,2.38a2,2,0,0,1-.89.33c-5,1-10.5.59-14.71-2.28-10.43-7.14-6-28.39-4.85-38.73.8-7,1.59-13.94,2.09-20.93,1.8-24.95-1.82-49.26-3.33-74.08q-3.06-50-9.41-99.75c-1.5-11.71,1.69-13.54,6.11-8.69C1394.4,800.49,1402.14,809.26,1406.11,817.34Z"/><path class="cls-9" d="M1333.41,1375.71c-.85,11.12.11,20.42,1.85,27,1.09,4.14-11.26,3.38-20.48,1a42.55,42.55,0,0,1-11.07-5l1.69-36.77Z"/><path class="cls-9" d="M1408.32,1354.06c-.83,9.44-6.41,32.64,10.13,48.08s-39.32-4.58-39.32-4.58,1.84-8.23-4.89-65.33C1367.22,1272.62,1408.32,1354.06,1408.32,1354.06Z"/><path class="cls-44" d="M1380,1391.86c5.18,2.62,29.55,4.58,32,2.19s20.84,16.26,20.84,16.26,22-4.41,23.31,19.2c-5.37,5.87-69.35-4.6-78-7.6s-8.64-7.85-8.64-7.85S1376.43,1390.05,1380,1391.86Z"/><path class="cls-14" d="M1456.15,1429.51s1.92,3.53-1.54,4.72c-5.22,1.79-30.54-.45-44.82-3.57s-28.56-1.77-41.64-10c-.69-4.91,1.76-7.31,1.76-7.31s3.68,4.8,17.95,7.92,24.64,4,40.43,6.91A100.34,100.34,0,0,0,1456.15,1429.51Z"/><path class="cls-17" d="M1423.83,1411.59a.58.58,0,0,0,.36-.12,5.3,5.3,0,0,1,4.77-.89.59.59,0,1,0,.34-1.12,6.45,6.45,0,0,0-5.84,1.08.6.6,0,0,0-.09.83A.55.55,0,0,0,1423.83,1411.59Z"/><path class="cls-17" d="M1417.25,1407.79a.56.56,0,0,0,.44-.19,6.64,6.64,0,0,1,6.5-1.93.59.59,0,1,0,.31-1.13,7.82,7.82,0,0,0-7.68,2.27.59.59,0,0,0,0,.83A.58.58,0,0,0,1417.25,1407.79Z"/><path class="cls-17" d="M1412.14,1402.58a.62.62,0,0,0,.41-.17,11.91,11.91,0,0,1,4.75-2.82.59.59,0,0,0,.38-.74.6.6,0,0,0-.74-.39,13.33,13.33,0,0,0-5.21,3.11.59.59,0,0,0,0,.83A.6.6,0,0,0,1412.14,1402.58Z"/><path class="cls-44" d="M1334.43,1399c.9-1.18,1.6,4.56,7.5,11.44s7.83,10.94,10,12.5,19.4,2,19.46,19.66c-5,6.33-21.25,3.68-33.86.48s-41.73-17.16-41.73-17.16-.78-11.8,1.51-16.1,4.69-13.89,6.62-13.47,11.82,6.22,19.92,6.28S1334.43,1399,1334.43,1399Z"/><path class="cls-14" d="M1371.34,1442.62c1.68-.15,1,5.11.11,5.88s-7.93,5-28.75-.53-45.67-16.9-47.53-18.16-1.15-6.8.47-6.12,23.95,12.18,37.35,16,21.14,5,27.57,4.9A30.12,30.12,0,0,0,1371.34,1442.62Z"/><path class="cls-17" d="M1456.15,1429.51s1.92,3.53-1.54,4.72c-5.22,1.79-30.54-.45-44.82-3.57s-28.56-1.77-41.64-10c-.69-4.91,1.76-7.31,1.76-7.31s3.68,4.8,17.95,7.92,24.64,4,40.43,6.91A100.34,100.34,0,0,0,1456.15,1429.51Z"/><path class="cls-17" d="M1371.34,1442.62c1.68-.15,1,5.11.11,5.88s-7.93,5-28.75-.53-45.67-16.9-47.53-18.16-1.15-6.8.47-6.12,23.95,12.18,37.35,16,21.14,5,27.57,4.9A30.12,30.12,0,0,0,1371.34,1442.62Z"/><path class="cls-17" d="M1336.46,1420.72a.58.58,0,0,0,.28-.07,15.19,15.19,0,0,1,9.53-1.71.59.59,0,0,0,.18-1.16,16.32,16.32,0,0,0-10.28,1.84.59.59,0,0,0-.23.8A.6.6,0,0,0,1336.46,1420.72Z"/><path class="cls-17" d="M1331.5,1416.14a.66.66,0,0,0,.35-.11,19.94,19.94,0,0,1,8.94-3.72.59.59,0,0,0,.5-.67.6.6,0,0,0-.67-.5,21.26,21.26,0,0,0-9.48,3.94.59.59,0,0,0-.12.82A.6.6,0,0,0,1331.5,1416.14Z"/><path class="cls-17" d="M1328.05,1409a.69.69,0,0,0,.24,0,25.05,25.05,0,0,1,9-2.16.59.59,0,0,0,.56-.61.58.58,0,0,0-.62-.56,26,26,0,0,0-9.39,2.25.59.59,0,0,0,.24,1.13Z"/><path class="cls-36" d="M1344.86,1428.67a.56.56,0,0,0,.44-.19,14.32,14.32,0,0,1,4.61-3.44l.12,0,.84-.37a.59.59,0,0,0-.45-1.09,15.63,15.63,0,0,0-6,4.15.61.61,0,0,0,0,.84A.57.57,0,0,0,1344.86,1428.67Z"/><path class="cls-47" d="M1277.88,1015.84c-3.31,16.07,3,45.41,9.06,61s11.87,163.08,10.61,208.82-4.24,95.07-1.33,100.88,41.36,7.76,46,5.33,2.61-4.84,4.14-32.11,17.7-78,19.64-125.39,9.48-131.2,2.57-172.53c9-.44,10.9-3.64,9.48-28.91s1.16-53.8,1.16-53.8l-85,2.12S1284.79,982.22,1277.88,1015.84Z"/><path class="cls-47" d="M1389.48,967.3c14.61,10.91,8,59.12,10.71,88.18,14.44,75,21.55,136.3,23.64,152.72,3.31,26-12.15,156.42-12.18,163.13s-50.7,18.66-51,9.68,2.61-88.92-3.56-127-20.24-264.36-20.24-264.36S1377,958,1389.48,967.3Z"/><path class="cls-48" d="M1318.76,1372.72h.07a.6.6,0,0,0,.52-.65c-2.78-25-.94-50.72.85-75.54l.22-3.18c5-69.23,8.85-142.93-2.43-215.93a.59.59,0,0,0-1.16.18c11.26,72.88,7.37,146.5,2.42,215.67l-.23,3.18c-1.79,24.87-3.64,50.59-.84,75.75A.58.58,0,0,0,1318.76,1372.72Z"/><path class="cls-48" d="M1388.71,1374.67a.57.57,0,0,0,.58-.57c1.16-53.76,2.36-109.34-7-163.33a.58.58,0,0,0-.68-.48.6.6,0,0,0-.48.68c9.35,53.88,8.15,109.41,7,163.1a.59.59,0,0,0,.57.6Z"/><path class="cls-48" d="M1361.13,1272.54a.6.6,0,0,0,.58-.51c12.49-88.17.61-183.17-3.47-205.21,6.44-1,6.16-3.73,4.58-19.29-.27-2.63-.57-5.65-.89-9.1-2-21.5-2.62-36.11-2.74-39.31,6,.47,10.73-.19,14.55-2a.59.59,0,0,0-.51-1.06c-3.76,1.82-8.54,2.43-14.6,1.87a.56.56,0,0,0-.46.16.57.57,0,0,0-.18.45c0,.15.5,15.68,2.76,40,.33,3.46.63,6.47.9,9.11,1.7,16.71,1.54,17.38-4.17,18.09a.54.54,0,0,0-.4.23.58.58,0,0,0-.11.46c4,20.79,16.16,116.59,3.57,205.43a.6.6,0,0,0,.5.67Z"/><path class="cls-25" d="M1349.46,767.78c6.18,12.41-3.26,23-2.21,35,.89,10.2.65,21.37,3.52,31.18,5.39,18.47,11.65,36.21,14.23,55.43,2.51,18.75.67,37.91-.57,56.7-.58,8.37-.13,17.93-3,25.79a16.85,16.85,0,0,0-1.47,6.72,4.24,4.24,0,0,0,2.09,3.74,5.49,5.49,0,0,0,3.19.07c5.2-.91,9.32-1.72,14.44-.83,5.36.92,11.38,1.14,16.65-.32,6.49-1.8,4.21-6.13,3.25-11.57a195.55,195.55,0,0,1-2.13-52.87c1.65-17.69,4.79-35.3,4.36-53.12-.46-18.92-3.39-37.43-6-56.1-2-14.08-18.76-22.64-30.06-29.58l-.08,0c-3.19-2-3.36-1.72-6.56-3.68C1354.42,771.48,1352.39,768.26,1349.46,767.78Z"/><path class="cls-25" d="M1260,862.32c2.08,17.52,9.24,34,13.18,51,1.85,8,4.35,15.75,6.88,23.51a41.67,41.67,0,0,1,1.89,9.64,78.75,78.75,0,0,1-.87,18.53c-.72,4.74-2,10.53,1.49,14.54,2.7,3.08,7.22,3.62,11.31,3.89a394.75,394.75,0,0,0,69-1.49c1.49-.16,3.14-.41,4.08-1.58s.81-3.1.61-4.72c-1.7-13.75,1-26.86,2.63-40.38a259.47,259.47,0,0,0,1.7-40.09c-1-26.73-6.81-53.52-19.48-77.23-3.9-7.3-8.6-14.46-15.37-19.24-4-2.79-8.57-4.74-12.27-7.92-4-3.38-5.77-8.33-8.4-12.72-3.11-5.19-5.2-9.65-5.2-9.67-3.31,3.49-10.78,11-13.32,12.15C1250.81,802.07,1255.81,827.25,1260,862.32Z"/><path class="cls-9" d="M1308.9,1017c-.7,9.77,1.85,21,8.68,28.06,13.22,13.7,11.33,25.52,13.7,32.16s1.56,10.38-3.43,4.75-7.39-19-7.39-19,1.73,13.57,2.92,17.28,3.71,10.36,7.4,14.08c5.14,5.17.64,6.11-3.63,4.05,2.75,3.66.54,6.91-4.44,5s-7-.46-16.26-9.71-12-16.69-15.32-28.15-.7-21.75-1.79-27.49-7.17-30.13-7.17-30.13Z"/><path class="cls-16" d="M1322.55,1094.13a.6.6,0,0,0,.34-.11.58.58,0,0,0,.14-.82,37.32,37.32,0,0,1-5.85-12.51.59.59,0,0,0-1.14.29,38.11,38.11,0,0,0,6,12.9A.58.58,0,0,0,1322.55,1094.13Z"/><path class="cls-16" d="M1317.73,1099.3a.58.58,0,0,0,.37-.13.59.59,0,0,0,.09-.83,71.69,71.69,0,0,1-8.76-13.62.59.59,0,1,0-1.06.52,73.26,73.26,0,0,0,8.9,13.85A.6.6,0,0,0,1317.73,1099.3Z"/><path class="cls-25" d="M1305.22,993.69c.78,2.8,1.54,5.58,2.53,8.3,2.65,7.31,6.75,13.29,8.2,21.18.37,2.06-1.59,4.48-1.71,6.57-.21,3.87,1.43,8.28,1.41,12.32a84.69,84.69,0,0,0-25.14,4.37,3.2,3.2,0,0,1-1.85.18c-1-.33-1.4-1.53-1.62-2.57-.45-2.18-.55-8.19-2.45-9.59-.78-.57-3-.22-4-.59a9.41,9.41,0,0,1-4.08-3c-3.8-4.82-6.34-12.78-8.38-18.53-3-8.31-5.82-16.67-8.44-25.1-5.19-16.66-9.46-33.65-11.64-51-2.46-19.46-1.83-38.24-1-57.54,1-24,5.33-51.68,16.8-72.28,8.86-15.91,28.58-.16,37.72,11.48,5.84,7.44,8.39,17.2,9.15,26.81,1,12.15-2.15,23.11-5.58,34.59-9.8,32.86-16.1,72.42-2.92,104.86A88.44,88.44,0,0,1,1305.22,993.69Z"/><path class="cls-49" d="M1354,992.31c-.68-2-.71-5.13.94-6.6,2.29-2,5.3.17,6.16,2.47a4.92,4.92,0,0,1-1.68,5.77C1357.63,995.12,1354.76,994.36,1354,992.31Z"/><path class="cls-50" d="M1348.45,806.54h0a.58.58,0,0,0,.59-.59,22.47,22.47,0,0,1,2.67-10.74,2.75,2.75,0,0,1,1.28-1.41c1.59-.55,5,.83,7,2a16,16,0,0,1,2.4,1.87,15.81,15.81,0,0,0,3,2.23.57.57,0,0,0,.55,0,.59.59,0,0,0,.31-.46,58.81,58.81,0,0,0-1.74-21.13.59.59,0,0,0-1.14.3,57.74,57.74,0,0,1,1.79,19.8,18.86,18.86,0,0,1-2-1.62,17.09,17.09,0,0,0-2.59-2c-1.78-1-5.74-2.84-8-2.08a3.79,3.79,0,0,0-1.93,2,23.65,23.65,0,0,0-2.82,11.31A.59.59,0,0,0,1348.45,806.54Z"/><path class="cls-50" d="M1358.59,979.66a.6.6,0,0,0,.59-.55c1.15-15.57-.36-31.2-1.82-46.32-1-9.92-1.95-20.18-2.18-30.34-.11-4.9-.22-10,0-15,.55-12.78.87-28-1-43.93-.15-1.23-.28-2.55-.42-3.93-.9-8.65-2-19.42-5.89-26.32-1.63-2.89-4.53-5.36-7.09-7.53-.67-.57-1.33-1.13-2-1.68-2.32-2.08-5.61-3.3-8.79-4.48-1.22-.45-2.37-.88-3.41-1.34a8.52,8.52,0,0,0-3.24-.88c-3.2,0-6.23,5.73-7.85,8.79l-.1.18c-7.4-9.27-9-18.38-9.08-29.14a.58.58,0,0,0-.59-.58h0a.58.58,0,0,0-.58.59c.08,11.28,1.8,20.79,9.9,30.56a.55.55,0,0,0,.51.21.61.61,0,0,0,.46-.3l.52-1c1.29-2.44,4.32-8.14,6.82-8.16h0a7.11,7.11,0,0,1,2.72.78c1.08.47,2.24.91,3.48,1.36,3.08,1.15,6.26,2.33,8.42,4.25.62.56,1.29,1.13,2,1.71,2.48,2.11,5.29,4.5,6.82,7.21,3.76,6.68,4.86,17.32,5.74,25.86.15,1.39.28,2.71.43,4,1.81,15.86,1.49,31,.94,43.74-.21,5-.1,10.11,0,15,.23,10.21,1.23,20.49,2.19,30.44,1.46,15.07,3,30.65,1.81,46.11a.59.59,0,0,0,.55.63Z"/><path class="cls-50" d="M1300.82,980.53a.41.41,0,0,0,.19,0,.57.57,0,0,0,.37-.74c-8.24-24.35-7-47.54-2.68-74.87,2.56-16.08,6-31.49,6-31.65a.59.59,0,0,0-1.15-.25c0,.15-3.42,15.6-6,31.71-4.38,27.51-5.59,50.86,2.73,75.43A.59.59,0,0,0,1300.82,980.53Z"/><path class="cls-50" d="M1398.06,981h.14c2.14-.52,3.31-2.76,3.48-4.62a14.3,14.3,0,0,0-.75-5.08l-.13-.48c-2.18-8.09-2.67-16.62-3.15-24.86l-.88-15.4a81.11,81.11,0,0,1-.17-10.23,83.49,83.49,0,0,1,1.21-8.82l.23-1.28c2.82-16.39,2.84-35.08.07-58.83a.59.59,0,0,0-.65-.52.58.58,0,0,0-.52.65c2.76,23.64,2.74,42.23-.06,58.5l-.23,1.28a87,87,0,0,0-1.23,8.94,85.39,85.39,0,0,0,.17,10.38l.89,15.4c.48,8.3,1,16.89,3.18,25.1l.14.48a13.48,13.48,0,0,1,.71,4.66c-.14,1.46-1,3.2-2.59,3.58a.59.59,0,0,0,.14,1.16Z"/><path class="cls-48" d="M1334.72,999.86c5.73,0,11.87-.32,18.56-1a.59.59,0,0,0,.53-.64.58.58,0,0,0-.65-.53c-15.46,1.51-28,1.27-39.31-.75-1-.19-2.43-.45-3.81-.81a.6.6,0,0,0-.72.42.59.59,0,0,0,.43.72c1.41.37,2.82.63,3.89.83A120,120,0,0,0,1334.72,999.86Z"/></g></g></svg>