<svg width="3000" height="3000" viewBox="0 0 3000 3000" fill="none" xmlns="http://www.w3.org/2000/svg">
<path d="M2099.81 2418.25H1391.68C1380.39 2418.25 1380.39 2435.9 1391.68 2435.9H2099.81C2111.11 2435.9 2111.11 2418.25 2099.81 2418.25Z" fill="#091C59"/>
<path d="M1026.23 2418.25H286.162C274.869 2418.25 274.869 2435.9 286.162 2435.9H1026.23C1037.53 2435.9 1037.53 2418.25 1026.23 2418.25Z" fill="#091C59"/>
<path d="M2736.48 2418.25H2454.32C2451.98 2418.25 2449.73 2419.18 2448.08 2420.83C2446.43 2422.49 2445.5 2424.73 2445.5 2427.07C2445.5 2429.41 2446.43 2431.66 2448.08 2433.31C2449.73 2434.97 2451.98 2435.9 2454.32 2435.9H2736.48C2738.8 2435.85 2741.02 2434.91 2742.67 2433.26C2744.31 2431.62 2745.26 2429.4 2745.3 2427.07C2745.26 2424.75 2744.31 2422.53 2742.67 2420.88C2741.02 2419.24 2738.8 2418.29 2736.48 2418.25Z" fill="#091C59"/>
<path d="M1662.55 641.303C1662.55 641.303 1689.54 723.18 1644.02 802.94C1629.72 828.173 1705.07 849.348 1770.36 836.114C1835.65 822.879 1887.18 777.353 1867.42 757.589C1803.36 693.535 1778.66 616.598 1778.66 616.598L1662.55 641.303Z" fill="white"/>
<path d="M1728.54 850.76C1681.25 848.995 1620.19 839.643 1634.84 797.822C1679.66 710.651 1652.66 650.302 1648.96 633.538L1785.71 604.246C1790.83 617.834 1807.42 679.594 1874.83 750.178C1881.71 757.06 1883.83 766.236 1880.83 776.294C1869.71 815.645 1783.42 854.466 1728.54 850.76ZM1675.6 649.42C1683.37 675.536 1687.6 745.414 1653.55 810.527C1663.07 823.762 1716.54 836.114 1768.24 825.879C1819.95 815.645 1861.77 786.705 1859.83 765.001C1807.07 712.063 1780.42 651.537 1771.77 628.774L1675.6 649.42Z" fill="#091C59"/>
<path d="M2030.82 1128.86L2059.05 1213.91C2080.02 1277.57 2093.29 1343.5 2098.58 1410.31C2111.64 1570.71 2143.75 1831.17 2145.87 1848.29C2148.87 1872.11 2362.21 2353.49 2408.09 2453.54C2409.17 2455.91 2409.77 2458.48 2409.85 2461.08C2409.92 2463.69 2409.48 2466.28 2408.55 2468.71C2407.61 2471.15 2406.2 2473.37 2404.39 2475.25C2402.58 2477.12 2400.42 2478.62 2398.03 2479.66L2233.04 2551.48C2228.31 2553.56 2222.95 2553.69 2218.12 2551.84C2213.3 2549.99 2209.4 2546.31 2207.28 2541.59L1962.7 1986.98C1930.94 1920.99 1923.88 1872.64 1919.65 1812.64L1876.94 1424.61C1876.67 1421.96 1875.85 1419.41 1874.55 1417.09C1873.24 1414.78 1871.48 1412.76 1869.36 1411.15C1867.24 1409.55 1864.82 1408.39 1862.24 1407.76C1859.66 1407.13 1856.98 1407.04 1854.36 1407.49C1850.11 1408.16 1846.21 1410.21 1843.24 1413.31C1799.48 1460.07 1448.15 1822.17 1447.09 1834.87C1446.03 1847.58 1352.33 2343.08 1330.45 2449.66C1329.94 2452.28 1328.89 2454.77 1327.37 2456.96C1325.86 2459.16 1323.9 2461.02 1321.63 2462.43C1319.36 2463.84 1316.83 2464.76 1314.19 2465.15C1311.54 2465.53 1308.85 2465.36 1306.27 2464.66L1130.34 2417.72C1125.58 2416.47 1121.46 2413.46 1118.81 2409.31C1116.17 2405.16 1115.18 2400.16 1116.05 2395.31L1242.22 1720.71L1243.28 1717C1268.51 1653.65 1617.02 1361.26 1611.73 1338.32L1592.67 1250.44C1591.64 1245.67 1592.46 1240.69 1594.96 1236.5L1602.55 1223.62C1604.28 1220.55 1605.19 1217.09 1605.2 1213.56V1195.21C1605.21 1192.02 1605.98 1188.89 1607.46 1186.06C1608.93 1183.24 1611.06 1180.81 1613.67 1178.97L1695.19 1122.86C1698.18 1120.86 1701.66 1119.71 1705.25 1119.51L2003.47 1101.51C2006.37 1101.33 2009.27 1101.8 2011.96 1102.9C2014.65 1104 2017.05 1105.7 2018.99 1107.86C2023.93 1113.16 2029.58 1120.39 2030.46 1126.57L2030.82 1128.86Z" fill="#F34886"/>
<path d="M1438.44 1834.7C1438.62 1833.29 1438.44 1833.99 1438.44 1834.7V1834.7Z" fill="#091C59"/>
<path d="M2416.03 2450.19C2327.8 2249.73 2234.27 2051.04 2154.51 1847.05C2138.81 1717.71 2123.81 1588.36 2111.64 1458.66C2105.99 1344.32 2078.81 1233.68 2039.29 1126.39C2033.29 1101.16 2014.23 1088.63 1988.29 1093.57L1744.25 1108.39C1731.19 1109.1 1718.13 1109.63 1705.25 1110.68C1695.72 1111.39 1689.37 1116.16 1681.78 1121.27L1646.84 1145.45L1614.37 1167.86C1603.61 1175.27 1596.37 1183.39 1596.2 1197.33C1596.2 1203.15 1597.26 1209.68 1596.2 1215.33C1595.14 1220.97 1590.2 1226.8 1587.37 1231.91C1581.37 1243.21 1584.37 1253.97 1587.02 1265.44C1592.67 1289.79 1596.73 1314.5 1602.73 1338.67C1521.03 1434.84 1419.03 1512.66 1330.98 1603.18C1298.86 1636.18 1263.22 1667.59 1238.51 1706.76C1229.87 1725.47 1229.51 1746.64 1224.75 1766.41C1193.93 1931.93 1162.99 2097.5 1131.93 2263.14L1107.58 2392.84C1103.88 2421.95 1128.4 2427.25 1151.17 2432.54L1300.98 2472.42C1314.21 2475.95 1328.16 2472.78 1335.74 2460.42C1340.68 2452.13 1341.39 2440.48 1343.15 2431.31C1381.62 2233.5 1419.91 2035.51 1455.74 1837.17C1578.37 1696.35 1712.13 1565.42 1840.06 1429.55C1844.83 1424.61 1851.18 1415.96 1857.36 1415.96C1863.53 1415.96 1867.94 1421.96 1868.65 1428.31L1873.41 1472.78C1885.18 1580.3 1897.06 1687.82 1909.06 1795.35C1914 1866.28 1923 1926.99 1955.12 1991.39L2199.51 2546.01C2207.28 2561.36 2224.22 2564.89 2239.04 2558.53L2379.32 2497.3C2401.38 2488.3 2426.26 2479.83 2416.03 2450.19ZM2393.62 2472.07C2338.56 2495.36 2284.39 2520.77 2229.16 2543.71C2218.22 2547.59 2214.33 2535.77 2210.63 2527.65L2057.46 2179.85L1994.47 2037.27C1972.94 1988.04 1947.53 1939.69 1937.47 1886.4C1925.12 1800.64 1918.76 1714 1908.18 1627.89C1900.77 1560.48 1893.71 1493.07 1885.94 1425.84C1882.41 1394.26 1846.59 1399.37 1844.83 1399.9C1829.48 1404.14 1813.95 1407.84 1798.42 1411.2C1796.15 1411.8 1794.21 1413.29 1793.04 1415.32C1791.86 1417.36 1791.55 1419.78 1792.16 1422.05C1792.76 1424.32 1794.25 1426.25 1796.28 1427.43C1798.32 1428.6 1800.74 1428.92 1803.01 1428.31L1820.65 1424.25C1707.9 1542.3 1593.73 1659.12 1483.09 1779.11C1471.44 1791.82 1459.79 1804.35 1448.85 1817.58C1444.44 1822.17 1438.8 1829.76 1438.44 1834.7C1401.92 2035.33 1363.45 2235.61 1324.27 2435.72C1322.51 2445.07 1321.45 2458.66 1308.22 2456.01C1290.04 2452.48 1272.04 2446.48 1254.04 2441.54L1138.64 2410.84C1119.4 2407.13 1124.7 2395.49 1127.87 2380.31C1169.34 2160.09 1209.75 1939.87 1251.57 1719.82C1259.69 1703.24 1270.98 1691.59 1283.51 1677.65C1346.86 1608.48 1416.91 1545.66 1485.2 1481.43C1523.85 1445.25 1563.55 1409.61 1599.37 1370.79C1606.78 1362.67 1617.9 1352.79 1620.2 1341.67C1621.61 1335.49 1618.43 1327.55 1617.2 1321.73C1612.25 1297.38 1606.08 1273.2 1601.31 1248.68C1600.43 1242.85 1604.14 1238.09 1607.14 1233.32C1610.14 1228.56 1613.84 1220.8 1614.02 1213.03C1614.2 1205.27 1611.2 1191.33 1620.55 1184.8L1685.66 1140.15C1691.13 1136.27 1698.19 1129.39 1705.07 1128.33C1716.9 1126.39 1729.78 1126.74 1741.78 1126.04L2000.47 1110.51C2013.17 1108.57 2020.58 1122.33 2023.05 1133.27C2062.93 1241.26 2089.58 1353.14 2094.87 1468.54C2105.99 1586.24 2119.58 1703.59 2133.69 1820.93C2135.1 1831.87 2135.28 1844.05 2138.46 1854.64C2141.63 1865.23 2147.46 1879.17 2152.4 1891.16C2223.51 2062.51 2299.39 2231.73 2374.74 2401.31C2382.85 2419.13 2390.97 2436.95 2398.91 2454.78C2402.09 2462.01 2401.03 2468.36 2393.62 2472.07ZM1602.9 1337.61C1603.08 1337.26 1603.26 1337.44 1603.08 1337.96C1603.07 1337.83 1603 1337.7 1602.9 1337.61Z" fill="#091C59"/>
<path d="M2405.44 2453.01C2440.23 2507.74 2459.95 2570.68 2462.61 2635.47C2463.14 2646.06 2462.97 2657 2458.73 2666.7C2448.5 2689.64 2419.56 2696.88 2394.5 2701.47L2276.8 2722.47C2232.51 2730.41 2187.51 2738.35 2142.87 2732.52C2115.16 2725.47 2091.87 2717 2074.05 2695.11C1992.17 2595.24 2182.92 2606.35 2190.87 2483.72L2405.44 2453.01Z" fill="#474CDC"/>
<path d="M2426.61 2683.82C2426.66 2683.82 2426.71 2683.8 2426.74 2683.77C2426.77 2683.74 2426.79 2683.69 2426.79 2683.64H2426.97C2425.38 2684 2425.91 2684 2426.61 2683.82Z" fill="#091C59"/>
<path d="M2470.73 2623.12C2467.02 2561.01 2444.79 2502.07 2414.79 2448.07C2406.32 2441.9 2391.85 2446.48 2381.79 2447.54L2330.62 2454.95L2215.04 2471.54C2201.45 2475.07 2179.57 2469.42 2181.51 2490.07V2489.72C2178.16 2520.07 2158.4 2545.3 2134.57 2563.12L2135.1 2562.77C2099.46 2591.71 2021.99 2618.35 2051.29 2676.76C2087.46 2752.46 2182.04 2749.46 2252.63 2735.7C2298.15 2727.94 2343.68 2719.29 2389.03 2711.35C2441.97 2704.47 2480.61 2682.94 2470.73 2623.12ZM2453.97 2646.41C2454.67 2663.7 2442.67 2677.82 2426.97 2683.64C2378.44 2699 2326.74 2703.05 2276.98 2713.47C2211.69 2724.23 2125.22 2745.41 2077.4 2685.41C2072.99 2679.94 2060.11 2660.53 2062.58 2647.65C2082.17 2593.83 2188.04 2585.71 2198.98 2491.48C2266.39 2481.95 2333.62 2471.89 2401.03 2462.72C2434.73 2517.6 2453.97 2581.83 2453.97 2646.41Z" fill="#091C59"/>
<path d="M2181.51 2490.42V2490.07C2181.34 2491.48 2181.34 2491.48 2181.34 2491.3C2181.34 2490.95 2181.51 2490.6 2181.51 2490.42Z" fill="#091C59"/>
<path d="M2450.97 2585.89C2433.89 2596.96 2415.88 2606.53 2397.15 2614.47C2311.92 2649.59 2206.39 2656.29 2116.05 2648.88C2101.59 2647.09 2087.42 2643.47 2073.87 2638.12C2075.28 2638.65 2073.87 2637.94 2073.34 2637.77C2068.97 2635.87 2064.72 2633.69 2060.64 2631.24C2050.93 2625.41 2041.76 2640.76 2051.64 2646.41C2099.46 2673.59 2156.81 2669.7 2209.92 2668.29C2266.74 2666 2323.91 2658.94 2378.09 2640.41C2392.2 2634.77 2473.55 2606.36 2462.96 2589.06C2460.49 2585.18 2455.02 2583.24 2450.97 2585.89Z" fill="#F34886"/>
<path d="M2287.92 2500.13C2266.21 2475.77 2227.75 2484.95 2210.81 2510.18C2202.86 2484.24 2170.75 2456.54 2142.87 2459.36C2108.28 2474.72 2145.87 2505.07 2165.63 2513.71C2181.51 2518.13 2182.22 2532.77 2194.39 2540.89C2195.03 2541.97 2195.89 2542.91 2196.92 2543.64C2197.95 2544.36 2199.13 2544.86 2200.36 2545.09C2201.6 2545.32 2202.87 2545.29 2204.09 2544.99C2205.32 2544.69 2206.46 2544.14 2207.45 2543.36C2233.39 2547.95 2273.1 2563.48 2293.21 2540.18C2302.03 2528.01 2297.27 2510.54 2287.92 2500.13ZM2183.98 2503.48C2171.45 2496.07 2155.93 2490.24 2147.1 2478.07C2145.87 2476.13 2149.04 2476.13 2149.22 2476.13C2166.69 2481.25 2184.16 2493.42 2192.1 2510.18C2189.8 2507.5 2187.06 2505.23 2183.98 2503.48ZM2274.68 2533.3C2256.33 2537.18 2236.92 2531.71 2218.75 2528.18C2229.51 2515.13 2238.86 2501.71 2257.39 2503.48C2260.23 2503.94 2263.01 2504.7 2265.68 2505.77C2264.98 2505.42 2264.98 2505.24 2265.86 2505.77C2274.15 2509.3 2279.27 2515.65 2279.98 2522.18C2280.15 2522.18 2280.15 2530.83 2274.68 2533.3Z" fill="#F34886"/>
<path d="M1330.98 2427.95C1351.78 2489.41 1356.04 2555.26 1343.33 2618.88C1341.21 2629.12 1338.57 2639.88 1332.04 2648.18C1316.69 2667.94 1286.86 2668.29 1261.45 2666.7L1141.99 2659.29C1097.17 2656.47 1051.47 2653.47 1009.65 2637.24C984.412 2623.82 963.767 2610.06 951.591 2584.47C895.83 2468.19 1078.47 2524.3 1115.35 2406.96L1330.98 2427.95Z" fill="#474CDC"/>
<path d="M1348.09 2455.13C1338.39 2423.9 1346.33 2418.25 1309.63 2417.19L1124.17 2399.01C1100.7 2393.02 1108.29 2415.96 1091.35 2434.48C1039.29 2504.36 870.772 2476.13 954.59 2606.18C1015.65 2682.23 1159.46 2663.7 1249.63 2674.82C1283.33 2677.47 1328.33 2679.59 1345.1 2643.41C1365.21 2583.42 1362.39 2516.36 1348.09 2455.13ZM1341.57 2550.42C1340.86 2578.65 1338.74 2607.59 1329.92 2634.41C1329.92 2634.59 1329.39 2635.47 1329.57 2635.12C1327.44 2640.29 1324.04 2644.84 1319.68 2648.35H1319.86L1318.98 2648.88C1316.97 2650.34 1314.84 2651.64 1312.63 2652.76L1311.74 2653.12C1306.21 2655.4 1300.39 2656.95 1294.45 2657.7C1249.63 2660.35 1191.93 2652.41 1142.87 2650.65C1100.17 2648.35 1050.76 2644.29 1013.53 2629.47C1003.79 2624.52 994.466 2618.8 985.647 2612.35C979.41 2607.53 973.728 2602.02 968.707 2595.94C963.652 2589.13 959.445 2581.72 956.178 2573.89H956.355C953.582 2567.31 951.569 2560.45 950.355 2553.42C950.355 2553.06 950.179 2551.83 950.179 2551.83C942.591 2490.95 1090.64 2510.89 1121.34 2416.13C1188.93 2422.84 1256.69 2429.19 1324.45 2436.25C1336.32 2473.12 1342.1 2511.68 1341.57 2550.42Z" fill="#091C59"/>
<path d="M950.178 2552.01C950.16 2552.48 950.22 2552.96 950.355 2553.42C950.264 2552.95 950.206 2552.48 950.178 2552.01Z" fill="#091C59"/>
<path d="M1329.92 2634.41L1329.57 2634.94L1329.92 2634.41Z" fill="#091C59"/>
<path d="M968.353 2595.24L968.706 2595.77C968.706 2595.24 968.177 2594.89 968.353 2595.24Z" fill="#091C59"/>
<path d="M1319.68 2648.18L1318.98 2648.71L1319.68 2648.18Z" fill="#091C59"/>
<path d="M985.117 2611.65L985.646 2612.18C984.941 2611.3 984.941 2611.3 985.117 2611.65Z" fill="#091C59"/>
<path d="M1343.86 2567.89C1321.69 2575.53 1298.81 2580.97 1275.57 2584.12C1233.57 2589.94 1185.93 2588 1146.58 2582.53C1096.11 2574.77 1044.94 2565.77 997.293 2547.24C984.235 2541.77 964.648 2530.65 953.708 2519.54C952.916 2518.69 951.959 2518.02 950.897 2517.56C949.834 2517.1 948.689 2516.86 947.532 2516.86C946.374 2516.86 945.229 2517.1 944.167 2517.56C943.104 2518.02 942.148 2518.69 941.356 2519.54C927.415 2538.07 992.529 2564.53 1006.29 2569.47C1086.41 2594 1171.11 2609.71 1255.1 2604.06C1271.33 2601.94 1359.56 2593.83 1354.62 2574.06C1353.21 2569.65 1348.45 2566.12 1343.86 2567.89Z" fill="#F34886"/>
<path d="M1206.22 2447.01C1191.58 2417.19 1150.99 2416.48 1128.23 2437.48C1126.11 2409.25 1103.7 2378.02 1075.64 2371.84C1037.53 2376.78 1064.88 2415.43 1082.17 2429.01C1099.29 2439.25 1093.99 2450.89 1105.11 2463.42C1105.48 2464.61 1106.09 2465.71 1106.91 2466.65C1107.74 2467.58 1108.75 2468.33 1109.88 2468.85C1111.02 2469.37 1112.25 2469.64 1113.49 2469.65C1114.74 2469.65 1115.97 2469.4 1117.11 2468.89C1141.28 2479.3 1176.75 2504.18 1201.63 2485.66C1212.57 2476.13 1212.04 2459.01 1206.22 2447.01ZM1192.63 2461.48V2461.83C1192.81 2463.07 1192.63 2462.01 1192.63 2461.48ZM1191.22 2456.36L1190.87 2455.66C1191.05 2455.66 1191.05 2456.01 1191.22 2456.36ZM1102.99 2423.54C1092.58 2413.48 1078.11 2404.13 1073.88 2389.66H1075.29C1088.35 2394.6 1106.7 2414.72 1109.87 2432.37C1108.11 2429.05 1105.78 2426.06 1102.99 2423.54ZM1192.1 2468.89C1192.04 2468.96 1191.99 2469.05 1191.96 2469.14C1191.93 2469.23 1191.92 2469.33 1191.93 2469.42C1191.75 2469.6 1191.4 2470.66 1191.4 2470.13C1183.46 2484.6 1143.58 2461.48 1131.76 2456.72C1146.4 2443.66 1167.93 2433.6 1182.58 2445.78C1187.69 2449.48 1192.28 2455.83 1192.63 2462.36C1192.9 2464.55 1192.72 2466.77 1192.1 2468.89Z" fill="#F34886"/>
<path d="M1191.4 2470.13L1191.93 2469.42C1191.79 2469.48 1191.66 2469.58 1191.57 2469.7C1191.48 2469.83 1191.42 2469.97 1191.4 2470.13Z" fill="#F34886"/>
<path d="M1907.82 467.667C1906.29 444.015 1901.11 420.742 1892.47 398.671C1889.33 390.302 1885.06 382.405 1879.77 375.202C1876.53 371.136 1872.35 367.924 1867.59 365.849C1851.89 357.909 1835.83 350.321 1819.95 342.557L1765.42 316.264L1753.77 310.618C1751.3 309.382 1747.95 310.618 1745.3 311.147L1701.01 320.323L1639.43 332.852L1594.26 342.204L1589.67 343.086C1588.82 343.221 1588.02 343.566 1587.34 344.091C1586.67 344.615 1586.13 345.301 1585.79 346.086L1583.49 349.439L1582.96 350.145C1582.96 350.321 1582.61 350.674 1582.43 350.85L1581.73 351.733L1580.84 352.968L1571.67 363.908C1553.67 385.26 1536.73 407.67 1525.97 433.433C1520.07 447.163 1516.9 461.904 1516.61 476.842C1516.61 491.136 1517.67 505.782 1522.26 519.369C1526.85 532.957 1534.79 544.426 1547.14 551.308C1547.58 551.716 1548.14 551.964 1548.73 552.014L1566.55 554.838L1611.9 562.249L1672.07 571.778L1734.72 581.836L1787.13 590.129L1816.59 594.894L1820.3 595.6C1827.01 597.717 1834.77 597.011 1841.48 595.423C1856.65 591.894 1869.89 582.189 1880.65 571.248C1888.93 562.747 1895.3 552.581 1899.35 541.427C1908.53 518.31 1909.76 492.194 1907.82 467.667Z" fill="#091C59"/>
<path d="M1752.89 649.067L1669.25 729.885C1669.25 729.885 1669.78 655.596 1666.78 655.067C1663.78 654.537 1736.31 653.302 1744.6 651.184L1752.89 649.067Z" fill="#091C59"/>
<path d="M1929.88 463.432C1926.65 447.521 1917.23 433.546 1903.7 424.578C1890.16 415.611 1873.62 412.385 1857.71 415.611C1850.99 417.012 1844.55 419.516 1838.65 423.022C1846.3 436.993 1851.77 452.047 1854.89 467.667C1859.37 489.826 1859.07 512.687 1854 534.721C1864.07 537.371 1874.65 537.419 1884.74 534.86C1894.83 532.301 1904.1 527.219 1911.69 520.091C1919.27 512.963 1924.92 504.024 1928.11 494.112C1931.29 484.201 1931.9 473.644 1929.88 463.432Z" fill="white"/>
<path d="M1869.89 547.426C1860.71 547.603 1850.48 544.779 1841.48 542.132C1847.37 521.573 1848.89 500.007 1845.94 478.824C1842.99 457.641 1835.64 437.31 1824.36 419.14C1865.83 387.025 1930.59 408.729 1940.29 461.314C1950.17 504.194 1914 548.485 1869.89 547.426ZM1866.53 526.075C1898.82 529.074 1926.88 497.135 1919.47 465.549C1918.02 458.454 1915.06 451.753 1910.8 445.898C1906.54 440.043 1901.07 435.17 1894.77 431.608C1888.46 428.046 1881.47 425.877 1874.25 425.248C1867.04 424.619 1859.77 425.545 1852.95 427.963C1867.16 458.58 1871.89 492.748 1866.53 526.075Z" fill="#091C59"/>
<path d="M1728.6 654.357C1814.58 638.576 1871.49 556.082 1855.71 470.1C1839.93 384.118 1757.43 327.209 1671.45 342.99C1585.47 358.77 1528.56 441.265 1544.34 527.247C1560.12 613.228 1642.62 670.138 1728.6 654.357Z" fill="white"/>
<path d="M1699.78 668.124C1498.79 665.654 1468.09 376.79 1666.07 333.734C1908.35 294.56 1944.53 658.596 1699.78 668.124ZM1699.78 351.38C1485.56 359.85 1517.32 678.183 1729.25 643.95C1902.35 606.187 1875.53 353.497 1699.78 351.38Z" fill="#091C59"/>
<path d="M1877.83 507.37C1876.92 507.397 1876.02 507.162 1875.23 506.693C1874.45 506.224 1873.82 505.54 1873.42 504.723C1867.42 495.194 1868.47 488.842 1870.42 485.313C1872.36 481.783 1879.59 477.372 1889.3 477.019C1888.66 472.816 1886.6 468.958 1883.47 466.078C1880.3 463.079 1873.95 458.314 1865.65 461.314C1864.29 461.766 1862.81 461.669 1861.53 461.042C1860.24 460.415 1859.25 459.309 1858.77 457.961C1858.37 456.627 1858.49 455.19 1859.12 453.944C1859.74 452.698 1860.81 451.736 1862.12 451.256C1872.53 447.727 1883.47 450.726 1891.59 459.373C1897.24 465.373 1901.83 474.901 1899 481.783C1898.28 483.559 1897.03 485.071 1895.42 486.112C1893.81 487.154 1891.92 487.675 1890 487.606C1883.47 487.783 1880.47 489.195 1879.77 490.43C1879.06 491.665 1879.42 494.488 1882.42 499.253C1883.09 500.459 1883.28 501.875 1882.95 503.217C1882.63 504.559 1881.8 505.727 1880.65 506.488C1879.81 507.044 1878.83 507.35 1877.83 507.37Z" fill="#091C59"/>
<path d="M1671.6 494.644C1675.51 493.813 1676.8 484.33 1674.49 473.463C1672.18 462.596 1667.14 454.46 1663.23 455.291C1659.32 456.121 1658.03 465.604 1660.34 476.472C1662.65 487.339 1667.69 495.475 1671.6 494.644Z" fill="#091C59"/>
<path d="M1601.05 514.67C1604.96 513.839 1606.26 504.356 1603.95 493.489C1601.64 482.622 1596.6 474.486 1592.69 475.317C1588.78 476.147 1587.48 485.63 1589.79 496.498C1592.1 507.365 1597.14 515.501 1601.05 514.67Z" fill="#091C59"/>
<path d="M1662.19 525.016C1657.89 520.769 1652.52 517.758 1646.65 516.299C1640.79 514.84 1634.63 514.986 1628.84 516.722C1616.49 520.604 1604.84 533.839 1611.72 547.073C1613.46 550.393 1616.41 552.92 1619.95 554.135C1623.5 555.349 1627.37 555.159 1630.78 553.602C1631.3 553.328 1631.75 552.951 1632.11 552.495C1632.47 552.038 1632.74 551.512 1632.88 550.949C1633.03 550.386 1633.06 549.798 1632.98 549.222C1632.89 548.646 1632.68 548.095 1632.37 547.603C1631.14 545.309 1628.67 545.132 1626.37 546.015C1625.46 546.307 1624.49 546.346 1623.55 546.128C1622.62 545.911 1621.77 545.445 1621.08 544.779C1620.2 543.986 1619.52 542.999 1619.09 541.896C1618.66 540.793 1618.49 539.605 1618.61 538.427C1618.96 532.956 1623.37 528.898 1627.96 526.604C1632.55 524.436 1637.69 523.714 1642.7 524.534C1647.71 525.353 1652.35 527.675 1656.02 531.192C1659.9 535.25 1666.25 529.074 1662.19 525.016Z" fill="#091C59"/>
<path d="M1666.99 593.655C1667.43 582.74 1659.41 573.557 1649.08 573.143C1638.75 572.73 1630.02 581.244 1629.58 592.159C1629.15 603.074 1637.17 612.257 1647.5 612.67C1657.83 613.083 1666.56 604.57 1666.99 593.655Z" fill="#091C59"/>
<path d="M1656.55 538.427C1656.22 537.369 1655.52 536.465 1654.58 535.881C1653.64 535.298 1652.52 535.074 1651.43 535.25H1650.37C1648.08 536.839 1644.72 538.956 1644.72 541.956C1644.72 544.956 1651.08 547.25 1654.08 543.368C1654.97 542.924 1655.69 542.202 1656.14 541.311C1656.58 540.419 1656.73 539.407 1656.55 538.427Z" fill="#091C59"/>
<path d="M1570.96 322.44C1552.96 320.499 1495.97 322.617 1488.03 382.26C1487.82 383.663 1487.7 385.078 1487.67 386.495C1494.03 600.541 1734.01 290.148 1769.66 398.671C1778.48 425.669 1862.3 499.782 1851.18 443.492C1845.89 408.376 1888.59 399.377 1880.47 361.262C1876.06 336.557 1855.24 327.205 1837.24 324.205C1831.12 323.095 1825.55 319.944 1821.45 315.266C1817.35 310.587 1814.95 304.657 1814.65 298.442C1812.71 251.327 1745.13 252.739 1701.37 273.561C1697.87 275.335 1693.99 276.186 1690.07 276.032C1674.37 275.679 1675.43 261.033 1655.31 258.209C1613.84 252.562 1586.14 283.09 1594.96 307.618C1598.31 316.794 1586.84 324.029 1570.96 322.44Z" fill="#091C59"/>
<path d="M1551.2 1105.92L1575.02 1115.27C1575.02 1115.27 1533.38 953.459 1579.61 859.054C1596.55 824.644 1646.84 759.177 1653.55 759.707C1721.84 828.879 1818.54 778.059 1846.95 732.356C1888.77 718.945 2108.11 729.709 2222.98 703.063C2248.04 697.24 2266.74 680.477 2286.33 663.889C2323.21 632.127 2359.91 597.011 2356.38 606.011C2341.39 642.891 2419.73 726.18 2453.61 718.945C2471.79 715.063 2404.73 835.232 2353.38 852.701C2193.51 907.227 2107.93 905.815 2033.99 923.638C2074.58 1046.98 2094.52 1217.09 2094.52 1217.09C2095.75 1226.27 2109.16 1249.21 2109.87 1253.09C2076.87 1242.32 1962.35 1169.98 1732.78 1270.91C1619.14 1320.85 1700.84 1295.61 1607.31 1324.73C1594.79 1328.79 1530.02 1286.61 1468.44 1248.15C1468.44 1248.15 1525.79 1166.45 1551.2 1105.92Z" fill="#474CDC"/>
<path d="M1603.96 1316.08H1605.2C1605.2 1315.91 1605.37 1315.91 1605.55 1315.91C1605.73 1315.91 1603.78 1315.91 1603.96 1316.08Z" fill="#091C59"/>
<path d="M2453.79 710.122C2451.11 710.618 2448.37 710.678 2445.67 710.298C2411.79 701.299 2369.97 654.537 2363.44 620.48C2363.27 618.131 2363.27 615.771 2363.44 613.422C2364.85 607.775 2367.5 600.893 2360.8 597.011C2350.91 590.835 2333.97 611.481 2326.03 617.128C2291.45 644.655 2261.8 683.653 2217.51 695.123C2104.05 718.592 1987.41 710.475 1872.53 719.298C1830.89 721.945 1845.18 728.827 1818.18 751.59C1780.95 783.705 1722.19 797.822 1679.13 769.236C1675.12 766.833 1671.33 764.056 1667.84 760.942C1663.78 757.589 1659.19 751.06 1653.55 750.884C1637.14 751.237 1597.26 813.88 1586.67 829.055C1534.44 908.815 1545.38 1011.87 1562.85 1100.98C1555.96 1098.16 1546.08 1093.22 1542.91 1103.27C1521.38 1153.04 1491.38 1199.09 1460.85 1243.74C1458.03 1247.62 1460.32 1253.44 1464.03 1255.73C1496.67 1276.2 1528.79 1297.2 1562.49 1316.08C1576.26 1323.14 1590.55 1333.2 1606.61 1333.73C1613.67 1333.2 1621.08 1329.85 1627.78 1327.73C1639.78 1323.85 1653.19 1321.02 1664.49 1314.85C1755.54 1262.97 1859.83 1225.03 1965.88 1226.97C1986.85 1227.35 2007.72 1229.9 2028.17 1234.56C2042.57 1237.86 2056.72 1242.17 2070.52 1247.44C2069.57 1248.42 2068.9 1249.64 2068.58 1250.97C2065.05 1261.56 2073.7 1283.26 2087.28 1279.56C2098.05 1276.73 2115.87 1267.2 2118.34 1255.38C2118.66 1254.23 2118.72 1253.03 2118.52 1251.85C2118.38 1251.52 2118.31 1251.16 2118.34 1250.79C2114.46 1238.26 2105.28 1227.32 2102.99 1214.27C2090.46 1118.45 2073.87 1022.63 2045.29 929.99C2142.87 912.697 2241.69 900.698 2335.74 867.877C2351.62 862.759 2366.44 857.995 2379.68 847.76C2407.91 827.291 2465.97 753.531 2465.08 718.945C2464.54 716.378 2463.11 714.085 2461.05 712.471C2458.98 710.856 2456.41 710.024 2453.79 710.122ZM2347.74 604.07C2347.91 602.834 2348.27 602.482 2347.74 604.07V604.07ZM1656.37 768.001C1656.9 767.648 1656.55 768.001 1656.19 768.001H1656.37ZM1480.97 1245.5C1508.85 1204.56 1535.14 1162.21 1555.96 1117.21L1566.9 1121.45C1572.73 1155.15 1579.08 1193.97 1582.79 1221.32C1588.96 1251.5 1581.37 1285.2 1595.67 1312.73C1554.91 1295.79 1518.91 1268.09 1480.97 1245.5ZM2444.26 733.414C2425.91 771.883 2391.15 826.409 2351.44 844.054C2293.42 864.11 2233.96 879.742 2173.57 890.816C2128.93 899.11 2083.58 903.521 2039.46 913.227C2037.52 908.815 2035.4 904.227 2033.29 899.816C2029.05 890.64 2024.64 881.464 2020.05 872.465C2018.87 870.461 2016.95 869.004 2014.71 868.409C2012.46 867.815 2010.07 868.13 2008.05 869.288C2006.05 870.467 2004.59 872.388 2004 874.635C2003.4 876.882 2003.72 879.272 2004.88 881.288C2009.29 890.11 2013.7 899.11 2017.76 908.109C2019.7 912.344 2021.64 916.403 2023.41 920.638C2023.63 921.011 2023.75 921.438 2023.76 921.873L2024.82 924.344C2025.16 924.948 2025.4 925.603 2025.52 926.285C2044.23 983.281 2057.11 1042.04 2067.87 1100.98C2073.76 1133.33 2078.93 1165.74 2083.4 1198.21C2084.99 1211.44 2085.87 1224.85 2092.58 1236.68C1950.17 1175.27 1789.24 1226.62 1659.9 1296.85C1646.49 1304.61 1631.31 1308.14 1616.49 1312.55C1613.31 1308.01 1610.59 1303.16 1608.37 1298.08C1606.85 1294.39 1605.73 1290.55 1605.02 1286.61C1605.03 1286.52 1605.02 1286.42 1604.99 1286.33C1604.96 1286.24 1604.91 1286.16 1604.84 1286.09V1285.56C1603.78 1261.03 1603.43 1236.5 1599.2 1212.33C1594.61 1180.03 1589.32 1147.92 1583.67 1115.8C1583.87 1114.8 1583.81 1113.77 1583.49 1112.8C1583.14 1110.86 1582.61 1108.92 1582.08 1106.8C1581.93 1105.49 1581.69 1104.2 1581.37 1102.92C1581.36 1102.35 1581.18 1101.8 1580.85 1101.33C1566.73 1036.57 1560.55 968.458 1573.79 902.992C1579.61 874.406 1593.9 848.642 1610.67 824.997C1623.55 806.292 1636.78 787.587 1652.66 771.177C1710.72 826.409 1809.01 801.704 1852.42 739.943C1947.35 727.768 2043.87 734.826 2139.16 724.239C2176.4 719.651 2215.92 718.592 2250.16 701.828C2285.8 680.477 2314.39 649.42 2346.15 622.951C2352.68 664.066 2404.38 721.945 2446.38 728.121C2445.67 729.885 2445.14 731.65 2444.26 733.414ZM2451.32 710.475C2452.55 710.298 2451.85 710.475 2451.32 710.475V710.475Z" fill="#091C59"/>
<path d="M2513.43 444.55L2518.2 433.08L2561.43 328.087C2562.71 325.304 2564.94 323.075 2567.73 321.811C2570.52 320.546 2573.67 320.331 2576.61 321.205L2601.84 329.146C2603.6 329.686 2605.22 330.609 2606.59 331.848C2607.95 333.087 2609.03 334.612 2609.74 336.314C2610.45 338.016 2610.77 339.854 2610.68 341.695C2610.6 343.537 2610.11 345.338 2609.25 346.968L2580.66 402.553L2604.31 390.554C2617.31 383.846 2629.02 374.884 2638.9 364.085L2696.95 300.383C2699.02 298.11 2701.83 296.661 2704.88 296.304C2707.93 295.947 2711.01 296.707 2713.54 298.442L2744.42 319.97C2745.14 320.48 2745.75 321.126 2746.22 321.872C2746.69 322.618 2747 323.449 2747.15 324.317C2747.3 325.186 2747.27 326.075 2747.08 326.933C2746.88 327.792 2746.52 328.604 2746.01 329.322C2746.01 329.322 2723.07 348.38 2713.89 361.085C2734.18 375.025 2741.07 390.73 2754.3 418.434C2736.28 433.588 2716.91 447.055 2696.42 458.667C2672.38 472.405 2646.79 483.245 2620.19 490.959C2607.49 510.017 2545.2 599.482 2478.32 679.947C2438.79 655.419 2399.09 626.304 2384.27 581.13C2430.5 535.427 2482.91 478.431 2513.43 444.55Z" fill="white"/>
<path d="M2761.89 414.023C2752.71 394.436 2743.54 373.614 2726.42 359.673C2732.95 352.615 2740.01 346.262 2747.07 339.91C2757.12 334.087 2759.42 319.617 2749.36 312.735C2732.24 303.383 2712.48 276.561 2692.19 292.795C2666.95 318.382 2645.07 347.674 2618.07 371.32C2612.74 375.432 2607.07 379.092 2601.13 382.26C2606.78 367.261 2622.13 351.909 2618.78 335.322C2615.07 321.911 2600.43 319.617 2589.13 315.911C2577.84 312.206 2559.14 310.265 2552.78 325.793L2506.02 439.61C2474.26 474.725 2442.14 509.488 2409.15 543.368C2398.91 553.955 2388.5 564.543 2378.09 574.954C2376.93 575.997 2376.1 577.351 2375.7 578.852C2375.29 580.354 2375.33 581.941 2375.79 583.424C2382.06 601.758 2391.9 618.671 2404.73 633.186C2417.26 647.302 2432.09 659.302 2447.44 670.242C2456.08 676.418 2464.91 682.065 2473.91 687.712C2475.6 688.611 2477.53 688.958 2479.43 688.705C2481.33 688.452 2483.1 687.611 2484.49 686.3C2534.49 625.833 2581.61 563.19 2625.84 498.37C2661.3 487.59 2694.96 471.593 2725.71 450.903C2737.78 442.793 2749.39 434.015 2760.48 424.61C2763.65 421.964 2763.48 417.376 2761.89 414.023ZM2601.84 341.498C2601.66 344.145 2599.37 346.439 2598.31 348.909C2590.02 365.32 2581.55 381.731 2573.08 398.142C2572.19 399.857 2571.88 401.811 2572.19 403.716C2572.51 405.62 2573.42 407.374 2574.81 408.719C2576.19 410.064 2577.97 410.928 2579.88 411.184C2581.79 411.44 2583.74 411.074 2585.43 410.141L2601.13 401.847C2620.45 393.005 2637.57 379.987 2651.25 363.732C2669.42 344.498 2686.36 323.676 2705.24 305.324C2706.17 305.025 2707.18 305.089 2708.07 305.5L2737.01 325.44C2725.89 334.969 2714.95 344.851 2706.3 356.674L2705.95 357.026C2693.25 369.026 2680.19 380.672 2666.78 391.789C2659.72 396.024 2663.42 412.082 2676.31 406.612C2689.72 396.024 2702.42 384.554 2714.77 372.908C2718.87 376.329 2722.6 380.174 2725.89 384.378C2728.85 388.407 2731.51 392.654 2733.83 397.083L2732.6 398.318C2730.83 399.906 2723.6 404.847 2719.89 407.317C2713.07 412.15 2706.69 417.583 2700.83 423.552C2692.89 431.669 2705.42 444.197 2713.36 436.08C2716.76 432.352 2720.48 428.928 2724.48 425.846H2724.3C2728.01 421.964 2735.95 418.081 2742.3 413.493L2743.36 415.964L2736.65 421.434C2702.77 447.374 2664.66 468.196 2623.72 480.725C2619.13 481.96 2614.19 483.019 2611.72 487.783C2603.07 500.664 2594.07 513.37 2585.08 525.898C2550.31 574.601 2514.49 622.245 2476.55 668.477C2443.03 647.302 2408.97 621.539 2394.5 583.424C2437.91 538.956 2482.38 494.665 2522.08 446.844C2537.61 408.729 2553.25 370.555 2569.02 332.322C2569.19 332.146 2569.72 330.381 2570.78 329.852C2571.67 329.456 2572.67 329.394 2573.61 329.675C2582.25 332.499 2591.6 334.616 2600.07 338.145C2600.62 338.519 2601.06 339.019 2601.37 339.603C2601.68 340.187 2601.84 340.838 2601.84 341.498Z" fill="#091C59"/>
<path d="M2724.48 425.669C2726.42 424.434 2725.01 425.316 2724.48 425.669V425.669Z" fill="#091C59"/>
<path d="M2315.62 631.95C2323.56 603.717 2350.74 577.248 2385.32 554.308C2380.38 558.19 2379.15 565.954 2384.79 574.072C2390.44 582.189 2451.32 658.066 2485.02 684.359C2489.79 688.064 2504.26 694.593 2510.61 692.652L2508.85 694.593C2489.79 716.827 2468.61 737.297 2447.79 757.942C2420.44 755.648 2398.91 737.473 2379.32 719.298C2348.8 690.711 2314.92 634.068 2315.62 631.95Z" fill="#F34886"/>
<path d="M2507.26 684.182C2507.26 684.006 2506.9 684.006 2506.2 684.006L2507.26 684.182Z" fill="#091C59"/>
<path d="M2508.85 651.537C2496.32 643.597 2489.08 656.831 2498.79 667.242C2494.89 669.488 2491.71 672.792 2489.61 676.771C2454.85 646.244 2423.44 609.893 2395.91 573.366C2397.93 572.615 2399.76 571.438 2401.28 569.915C2402.81 568.393 2403.98 566.561 2404.73 564.543C2412.67 564.543 2418.67 556.073 2409.68 548.485C2400.68 540.897 2386.38 540.721 2378.97 547.956C2349.5 568.072 2318.97 592.953 2307.68 627.892C2304.68 639.185 2315.98 649.067 2320.56 658.596C2350.03 702.534 2385.5 752.649 2439.67 765.707C2448.14 768.706 2455.2 765.001 2460.32 758.119C2468.08 747.884 2509.02 714.004 2517.32 696.358C2529.31 682.594 2521.55 662.478 2508.85 651.537ZM2444.44 748.766C2388.15 734.12 2353.56 678.359 2324.97 631.421C2332.21 609.54 2353.91 588.188 2374.21 573.013C2381.97 587.659 2394.5 599.482 2404.56 612.54C2432.09 642.538 2456.44 679.947 2493.49 698.652C2477.79 715.945 2461.2 732.356 2444.44 748.766Z" fill="#091C59"/>
<path d="M1316.86 1023.16L1309.45 924.344C1309.16 921.264 1307.77 918.392 1305.53 916.254C1303.29 914.115 1300.36 912.853 1297.27 912.697L1270.98 911.815C1269.13 911.718 1267.29 912.032 1265.57 912.734C1263.86 913.436 1262.32 914.509 1261.08 915.876C1259.83 917.243 1258.9 918.869 1258.35 920.639C1257.81 922.408 1257.66 924.276 1257.92 926.108L1265.69 982.928C1277.51 1001.99 1296.22 1019.28 1316.86 1023.16Z" fill="white"/>
<path d="M1268.16 921.344H1267.81C1267.98 921.52 1268.16 921.52 1268.16 921.344Z" fill="#091C59"/>
<path d="M1325.68 1023.16H1325.51V1021.75C1323.04 989.81 1320.74 957.871 1318.45 925.755C1318.24 920.437 1316.25 915.343 1312.8 911.286C1304.16 901.58 1290.39 904.58 1278.92 903.345C1267.45 902.11 1257.92 903.698 1252.45 913.05C1244.34 929.285 1254.22 948.695 1254.57 966.164C1254.39 994.222 1277.16 1015.75 1300.98 1027.57C1306.98 1030.04 1317.04 1034.63 1322.51 1030.22C1323.55 1029.37 1324.38 1028.29 1324.93 1027.07C1325.48 1025.84 1325.74 1024.5 1325.68 1023.16ZM1267.28 922.226L1266.92 922.579L1267.28 922.226ZM1295.16 1003.4C1292.69 1001.81 1280.33 989.457 1279.27 987.163C1277.43 984.793 1275.72 982.319 1274.16 979.752V980.634C1274.21 980.328 1274.15 980.013 1273.98 979.752C1273.28 978.87 1273.8 979.223 1273.98 979.752C1271.69 961.753 1269.04 943.754 1266.75 925.755C1266.75 926.461 1266.75 925.049 1266.57 924.167V923.814C1266.57 923.638 1266.57 923.638 1266.75 923.638C1266.72 923.638 1266.7 923.642 1266.68 923.651C1266.66 923.66 1266.64 923.673 1266.62 923.689C1266.6 923.706 1266.59 923.725 1266.58 923.747C1266.57 923.768 1266.57 923.791 1266.57 923.814V924.167C1266.63 924.096 1266.68 924.012 1266.71 923.921C1266.74 923.83 1266.75 923.733 1266.75 923.638C1266.75 923.461 1266.92 923.285 1266.92 923.461C1267.02 923.298 1267.08 923.118 1267.1 922.932L1267.63 922.403H1267.45L1267.98 922.05C1268.33 921.52 1268.33 921.697 1267.98 922.05L1268.86 921.52H1269.57C1278.75 921.52 1288.1 922.226 1297.27 922.403C1297.72 922.4 1298.17 922.492 1298.58 922.673C1298.99 922.854 1299.35 923.121 1299.65 923.454C1299.95 923.787 1300.18 924.18 1300.32 924.608C1300.45 925.035 1300.5 925.486 1300.45 925.932L1306.8 1011.51C1302.65 1009.22 1298.75 1006.5 1295.16 1003.4Z" fill="#091C59"/>
<path d="M1266.57 923.814C1266.75 923.638 1266.75 923.638 1266.75 923.461C1266.79 923.485 1266.83 923.526 1266.85 923.575C1266.86 923.625 1266.86 923.679 1266.84 923.726C1266.81 923.773 1266.77 923.808 1266.72 923.825C1266.67 923.841 1266.62 923.838 1266.57 923.814Z" fill="#091C59"/>
<path d="M1266.75 923.285H1266.57V922.932L1266.75 923.285Z" fill="#091C59"/>
<path d="M1273.98 979.752H1274.16C1274.16 979.705 1274.14 979.66 1274.11 979.627C1274.07 979.594 1274.03 979.575 1273.98 979.575V979.752Z" fill="#091C59"/>
<path d="M1288.1 1069.22C1297.27 1058.98 1301.33 1043.28 1305.39 1029.34C1308.54 1015.48 1310.43 1001.36 1311.04 987.163C1333.27 997.751 1429.62 1045.92 1518.2 1099.74C1499.67 1142.45 1476.73 1185.86 1434.03 1207.21C1379.86 1166.45 1312.8 1120.92 1275.39 1096.22C1275.75 1091.1 1276.8 1086.51 1280.51 1083.16C1284.22 1079.8 1286.16 1072.75 1288.1 1069.22Z" fill="white"/>
<path d="M1522.61 1092.16C1455.44 1051.57 1386.39 1014.04 1315.45 979.575C1302.57 974.105 1301.51 989.634 1301.33 998.633C1300.57 1009.43 1298.74 1020.13 1295.86 1030.57C1292.69 1047.34 1282.81 1060.75 1275.39 1075.39C1249.28 1103.8 1288.63 1112.1 1306.63 1127.62C1332.92 1145.45 1358.86 1163.45 1384.62 1181.97C1396.27 1187.44 1429.8 1221.5 1438.62 1214.8C1472.68 1197.68 1495.79 1165.92 1512.56 1132.57C1515.73 1121.63 1534.26 1101.16 1522.61 1092.16ZM1285.28 1091.1C1285.28 1091.27 1285.1 1091.45 1285.1 1091.63C1285.1 1091.8 1285.1 1091.27 1285.28 1091.1ZM1478.85 1155.15C1471.44 1166.45 1457.15 1181.45 1449.03 1187.44C1444.59 1191.03 1439.8 1194.16 1434.74 1196.8C1385.86 1160.27 1335.74 1125.86 1284.92 1091.98C1304.68 1065.42 1316.44 1033.77 1318.8 1000.75C1382.8 1032.51 1445.56 1066.69 1507.09 1103.27C1498.97 1121.27 1490.14 1138.92 1478.85 1155.15Z" fill="#091C59"/>
<path d="M1463.5 1247.62C1434.21 1244.97 1403.15 1223.27 1374.04 1193.8C1378.8 1197.86 1386.56 1197.5 1393.45 1190.62C1400.33 1183.74 1463.5 1109.27 1482.91 1071.16C1485.73 1065.86 1489.26 1050.51 1486.09 1044.69L1488.38 1045.92C1513.79 1060.39 1537.97 1077.33 1562.32 1093.92C1564.96 1121.1 1551.38 1145.8 1537.26 1168.39C1515.03 1203.86 1465.62 1247.79 1463.5 1247.62Z" fill="#F34886"/>
<path d="M1558.96 1081.04C1538.32 1066.92 1517.5 1052.81 1495.79 1040.1C1493.05 1038.42 1489.98 1037.34 1486.79 1036.92C1447.97 1032.16 1432.44 1051.92 1449.03 1064.45C1456.09 1067.28 1459.44 1063.75 1462.44 1059.51C1465.43 1063.59 1469.54 1066.71 1474.26 1068.51C1451.32 1108.74 1421.15 1144.92 1390.8 1180.03C1389.75 1178.2 1388.33 1176.61 1386.63 1175.36C1384.93 1174.11 1382.98 1173.24 1380.92 1172.8C1379.68 1165.74 1368.92 1161.33 1364.33 1169.45C1359.74 1177.56 1361.68 1187.09 1365.92 1194.68L1367.33 1197.5C1375.98 1217.27 1429.44 1248.85 1441.62 1251.68C1465.97 1261.03 1471.26 1254.68 1488.38 1237.91C1526.85 1199.62 1572.55 1152.86 1571.14 1094.8C1571.14 1087.57 1564.08 1084.75 1558.96 1081.04ZM1459.62 1239.68C1459.57 1239.68 1459.53 1239.7 1459.49 1239.73C1459.46 1239.76 1459.44 1239.81 1459.44 1239.85C1459.44 1239.68 1459.79 1239.5 1460.15 1239.32L1459.62 1239.68ZM1553.67 1106.27C1544.67 1160.98 1500.73 1202.8 1461.21 1238.44C1441.62 1235.44 1424.33 1224.85 1408.8 1213.21C1404.74 1210.03 1398.74 1205.09 1394.5 1201.03C1406.86 1191.15 1415.68 1177.39 1426.09 1165.56C1450.79 1132.39 1483.62 1100.8 1495.26 1060.22C1515.2 1072.39 1534.44 1085.63 1553.67 1098.86C1553.85 1101.33 1553.85 1103.81 1553.67 1106.27Z" fill="#091C59"/>
<path d="M2218.04 2582C2207.19 2570.47 2193.4 2562.12 2178.16 2557.83C2167.22 2554.65 2162.46 2571.77 2173.4 2574.77C2184.34 2577.77 2202.86 2591.71 2205.69 2594.53C2213.63 2602.65 2226.16 2590.12 2218.04 2582Z" fill="#F34886"/>
<path d="M2181.34 2607.06C2171.81 2595.94 2147.98 2579.89 2133.52 2588C2126.46 2596.12 2135.28 2603.18 2139.16 2602.83C2147.41 2604.05 2155.19 2607.39 2161.75 2612.53C2164.36 2614.61 2166.73 2616.98 2168.81 2619.59C2176.75 2627.71 2189.45 2615.18 2181.34 2607.06Z" fill="#F34886"/>
<path d="M1113.93 2484.77C1107.58 2474.36 1079.88 2441.01 1067.88 2456.01C1062.41 2466.42 1075.64 2469.78 1081.99 2474.89H1081.82C1086.48 2478.67 1090.74 2482.93 1094.52 2487.6C1094.87 2488.13 1095.58 2489.36 1094.35 2487.24C1102.11 2504.54 1118.87 2499.07 1113.93 2484.95V2484.77Z" fill="#F34886"/>
<path d="M1072.99 2501.89C1065.24 2487.72 1052.36 2477.06 1037 2472.07C1026.06 2468.89 1021.29 2486.01 1032.23 2489.19C1034.84 2489.9 1037.33 2490.97 1039.64 2492.36C1045.2 2495.46 1050.07 2499.66 1053.94 2504.71C1052.35 2502.95 1053.41 2503.83 1053.76 2504.54L1055.17 2506.3C1059.23 2520.07 1078.82 2516.18 1072.99 2501.89Z" fill="#F34886"/>
<path d="M2033.99 1319.44L1987.23 1315.2L1984.23 1314.5C1978.94 1311.85 1975.05 1289.26 1977.88 1277.09C1978.85 1270.59 1980.26 1264.16 1982.11 1257.85C1985.29 1246.91 1968.17 1242.15 1965.17 1253.26C1960.41 1270.03 1957.23 1288.03 1961.11 1305.5C1964.82 1329.49 1981.23 1334.08 2002.76 1334.08L2033.99 1337.08C2045.29 1337.26 2045.46 1319.44 2033.99 1319.44Z" fill="#474CDC"/>
<path d="M1851.36 996.869C1848.89 958.4 1822.06 924.697 1782.71 910.756C1781.42 910.281 1780.04 910.069 1778.66 910.133C1777.28 910.196 1775.93 910.533 1774.68 911.124C1773.43 911.715 1772.31 912.549 1771.39 913.576C1770.47 914.604 1769.76 915.805 1769.3 917.109C1768.83 918.418 1768.61 919.808 1768.67 921.201C1768.73 922.593 1769.07 923.959 1769.66 925.221C1770.25 926.484 1771.08 927.617 1772.11 928.557C1773.14 929.496 1774.34 930.223 1775.66 930.696C1806.89 941.813 1828.24 968.282 1830.18 998.28C1831.77 1023.34 1819.59 1048.04 1797.54 1064.28C1796.41 1065.1 1795.46 1066.13 1794.73 1067.32C1794.01 1068.51 1793.53 1069.83 1793.31 1071.21C1793.1 1072.59 1793.16 1073.99 1793.49 1075.35C1793.82 1076.7 1794.42 1077.98 1795.24 1079.1C1796.22 1080.44 1797.49 1081.53 1798.96 1082.3C1800.43 1083.06 1802.06 1083.48 1803.71 1083.51C1806 1083.51 1808.23 1082.77 1810.06 1081.39C1837.95 1060.92 1853.47 1029.34 1851.36 996.869Z" fill="#F34886"/>
<path d="M1715.48 1079.28C1680.54 1070.1 1655.66 1042.04 1653.55 1009.4C1651.78 981.34 1667.13 954.165 1693.78 938.46C1696.18 937.028 1697.92 934.702 1698.62 931.99C1699.31 929.279 1698.9 926.403 1697.48 923.991C1696.79 922.782 1695.86 921.725 1694.76 920.881C1693.65 920.037 1692.38 919.425 1691.03 919.079C1689.68 918.734 1688.28 918.662 1686.9 918.869C1685.52 919.077 1684.2 919.558 1683.01 920.285C1649.49 940.049 1630.08 974.811 1632.37 1010.81C1635.02 1052.45 1666.25 1088.27 1710.19 1099.74C1711.04 1100.03 1711.94 1100.15 1712.84 1100.1C1715.16 1100.13 1717.44 1099.39 1719.29 1097.98C1721.15 1096.57 1722.48 1094.59 1723.07 1092.33C1723.73 1089.6 1723.3 1086.72 1721.89 1084.28C1720.48 1081.85 1718.18 1080.06 1715.48 1079.28Z" fill="#F34886"/>
<path d="M1812.01 969.694C1804.24 964.223 1800.01 952.577 1790.48 950.813C1789.25 950.833 1788.04 951.105 1786.92 951.611C1785.8 952.117 1784.79 952.848 1783.97 953.757C1783.14 954.666 1782.51 955.735 1782.11 956.898C1781.71 958.061 1781.56 959.293 1781.66 960.518C1781.13 961.047 1780.42 962.106 1779.54 962.459C1759.77 974.282 1725.72 981.164 1699.43 978.517H1699.95C1697.18 978.103 1694.46 977.393 1691.84 976.399C1691.5 974.84 1690.75 973.399 1689.66 972.226C1688.58 971.052 1687.21 970.187 1685.68 969.72C1684.15 969.253 1682.53 969.201 1680.98 969.568C1679.42 969.936 1677.99 970.71 1676.84 971.811C1674.37 974.282 1674.19 977.811 1674.02 981.164C1673.66 988.575 1668.19 995.104 1668.9 1002.34C1669.6 1009.57 1684.78 1010.46 1686.54 1001.28C1700.66 1019.63 1709.13 1044.34 1729.25 1056.86C1775.83 1075.04 1785.54 1009.57 1795.95 978.34C1803.18 990.692 1821.36 981.693 1812.01 969.694ZM1769.13 1005.69C1765.24 1016.1 1762.24 1026.87 1756.07 1036.22C1733.31 1060.75 1716.89 1010.28 1704.37 996.692C1728.94 997.382 1753.39 992.997 1776.19 983.81C1774.07 991.045 1771.77 998.457 1769.13 1005.69Z" fill="#F34886"/>
<path d="M1338.44 744.46L1302.63 644.449L1378.05 617.444C1385.32 614.841 1393.33 615.232 1400.31 618.532C1407.29 621.832 1412.68 627.771 1415.28 635.041L1431.4 680.062C1434 687.332 1433.61 695.339 1430.31 702.32C1427.01 709.301 1421.07 714.686 1413.8 717.289L1338.38 744.294L1338.44 744.46Z" fill="#BEE1FF"/>
<path d="M1339.98 755.472C1337.81 755.426 1335.71 754.729 1333.95 753.469C1332.18 752.21 1330.84 750.448 1330.1 748.413L1294.27 648.361C1293.8 647.052 1293.58 645.661 1293.64 644.269C1293.7 642.877 1294.04 641.511 1294.63 640.248C1295.22 638.986 1296.05 637.853 1297.08 636.913C1298.11 635.974 1299.32 635.247 1300.63 634.774L1375.98 607.952C1385.92 604.379 1396.88 604.899 1406.44 609.399C1416 613.899 1423.39 622.01 1426.97 631.95L1443.03 677.124C1446.54 687.07 1445.97 698.001 1441.44 707.526C1436.91 717.05 1428.79 724.392 1418.86 727.944L1343.51 754.766C1342.4 755.268 1341.19 755.51 1339.98 755.472ZM1317.74 651.184L1346.33 731.297L1411.8 708.004C1416.44 706.329 1420.24 702.884 1422.35 698.421C1424.47 693.958 1424.73 688.84 1423.09 684.182L1407.03 639.009C1405.32 634.395 1401.86 630.64 1397.4 628.56C1392.94 626.479 1387.85 626.239 1383.21 627.892L1317.74 651.184Z" fill="#091C59"/>
<path d="M1090.34 780.06L1229.11 1167.64C1232 1175.72 1240.89 1179.92 1248.97 1177.03L1336.45 1145.71C1344.53 1142.81 1348.73 1133.93 1345.84 1125.85L1207.06 738.267C1204.17 730.193 1195.28 725.991 1187.21 728.882L1099.72 760.206C1091.65 763.097 1087.45 771.986 1090.34 780.06Z" fill="#BEE1FF"/>
<path d="M1245.22 1189.21C1241.3 1189.22 1237.43 1188.31 1233.93 1186.56C1230.82 1185.11 1228.03 1183.05 1225.72 1180.5C1223.42 1177.96 1221.65 1174.98 1220.51 1171.74L1081.99 784.058C1080.85 780.826 1080.35 777.399 1080.52 773.973C1080.7 770.547 1081.55 767.19 1083.03 764.093C1084.5 760.996 1086.57 758.22 1089.12 755.923C1091.67 753.626 1094.64 751.854 1097.88 750.708L1185.4 719.474C1191.92 717.172 1199.1 717.553 1205.34 720.533C1208.47 721.96 1211.27 724.011 1213.57 726.56C1215.88 729.109 1217.64 732.102 1218.75 735.356L1357.27 1123.04C1359.57 1129.56 1359.19 1136.73 1356.21 1142.98C1354.76 1146.09 1352.7 1148.88 1350.15 1151.18C1347.61 1153.48 1344.63 1155.25 1341.39 1156.39L1253.87 1187.62C1251.1 1188.66 1248.17 1189.2 1245.22 1189.21ZM1101.93 777L1240.45 1164.68C1240.93 1165.93 1241.88 1166.95 1243.1 1167.5C1244.27 1168.04 1245.6 1168.11 1246.81 1167.68L1334.33 1136.45C1334.93 1136.27 1335.49 1135.95 1335.95 1135.52C1336.4 1135.1 1336.76 1134.57 1336.98 1133.98C1337.59 1132.78 1337.71 1131.39 1337.33 1130.1L1198.81 742.414C1198.39 741.185 1197.5 740.17 1196.34 739.591C1195.11 739.059 1193.73 738.996 1192.46 739.414L1105.11 770.647C1103.86 771.089 1102.83 771.998 1102.24 773.183C1101.65 774.368 1101.54 775.736 1101.93 777Z" fill="#091C59"/>
<path d="M1022 627.539L1160.52 577.954C1245.57 547.603 1340.15 592.423 1370.51 677.477C1400.86 762.707 1356.21 857.113 1270.98 887.464L1132.28 937.049C1117.61 942.352 1104.03 950.307 1092.23 960.518C1025.88 1018.04 796.306 1216.91 793.483 1217.97C759.602 1229.97 684.96 1106.98 626.376 943.225C567.791 779.47 547.851 636.891 581.731 624.892C584.555 623.833 888.065 632.303 976.118 634.774C991.72 635.104 1007.26 632.654 1022 627.539Z" fill="#BEE1FF"/>
<path d="M1156.99 568.072C1126.11 576.542 1007.88 628.245 976.295 624.186C955.649 624.186 647.022 614.128 587.026 614.128C578.379 614.128 577.32 615.187 577.144 615.363C571.777 618.629 567.436 623.337 564.615 628.951C564.256 629.441 563.959 629.974 563.733 630.539C563.733 630.715 563.556 630.715 563.556 630.892L562.498 633.009C562.498 633.362 562.321 633.538 562.145 633.891C561.949 634.277 561.829 634.696 561.792 635.127C517.854 747.531 700.665 1226.8 788.542 1229.44C791.438 1229.43 794.308 1228.89 797.012 1227.85C785.895 1241.09 1076.88 987.34 1099.29 968.459C1110.06 959.078 1122.51 951.832 1135.99 947.107L1274.51 897.522C1489.79 814.233 1375.98 496.253 1156.99 568.072ZM1128.76 884.287C1127.7 892.581 1123.46 910.933 1118.52 921.873C1116.73 926.089 1114.73 930.211 1112.52 934.225C1102.79 939.205 1093.67 945.305 1085.35 952.401C981.589 1042.4 870.949 1138.04 818.364 1183.03C819.952 1165.39 818.717 1142.45 814.835 1114.39C806.188 1053.69 785.895 976.223 757.309 896.463C728.723 816.703 695.725 743.826 663.785 691.417C649.139 667.242 635.552 648.714 623.023 636.009C691.313 637.421 834.775 641.303 970.472 645.185C981.568 645.853 992.704 645.201 1003.65 643.244L1005.41 643.95C1010.3 644.989 1015.08 646.466 1019.7 648.361C1027.03 651.76 1033.95 655.962 1040.35 660.89C1070.17 684.535 1091.7 728.65 1109.17 767.295C1117.29 785.999 1125.76 812.468 1128.58 835.232C1130.68 851.513 1130.74 867.992 1128.76 884.287ZM1267.45 877.582L1136.52 924.344C1160.34 863.465 1143.4 792.705 1114.11 735.885C1095.05 697.77 1071.41 654.537 1032.41 634.95L1164.05 588.012C1183.06 581.196 1203.24 578.216 1223.41 579.246C1243.58 580.276 1263.35 585.294 1281.57 594.012C1404.21 648.714 1394.68 834.879 1267.45 877.582Z" fill="#091C59"/>
<path d="M1250.16 1100.45C1251.97 1100.02 1253.66 1099.2 1255.11 1098.03C1256.56 1096.87 1257.73 1095.4 1258.54 1093.73C1259.35 1092.05 1259.78 1090.22 1259.8 1088.36C1259.81 1086.5 1259.41 1084.67 1258.63 1082.98L1255.98 1077.16H1256.51C1258.29 1076.68 1259.94 1075.82 1261.35 1074.65C1262.76 1073.47 1263.9 1072 1264.69 1070.34C1265.48 1068.68 1265.9 1066.86 1265.92 1065.03C1265.94 1063.19 1265.56 1061.37 1264.81 1059.69L1249.45 1027.04C1250.29 1026.7 1251.04 1026.19 1251.68 1025.54C1252.31 1024.9 1252.8 1024.13 1253.13 1023.29C1253.46 1022.45 1253.62 1021.56 1253.59 1020.65C1253.57 1019.75 1253.36 1018.86 1252.98 1018.04L1237.28 983.987C1236 981.211 1233.75 978.997 1230.96 977.762C1228.16 976.527 1225.01 976.356 1222.1 977.281L1165.11 994.927C1167.58 1030.57 1166.87 1078.04 1205.69 1109.27C1220.66 1107.11 1235.5 1104.16 1250.16 1100.45Z" fill="white"/>
<path d="M1274.51 1067.45C1274.86 1053.34 1264.81 1041.51 1260.04 1028.81C1266.04 1019.46 1258.45 1009.93 1255.1 1001.28C1251.75 992.633 1248.4 986.634 1244.87 979.399C1231.81 955.93 1203.75 975.517 1184.69 979.399C1176.75 983.281 1156.11 983.634 1156.28 994.751C1157.7 1015.22 1158.22 1035.87 1163.17 1055.98C1168.11 1076.1 1183.46 1109.1 1205.69 1117.92C1221.51 1115.87 1237.18 1112.87 1252.63 1108.92C1264.28 1105.92 1271.86 1092.51 1267.28 1081.04C1271.22 1077.51 1273.78 1072.69 1274.51 1067.45ZM1192.46 1073.28L1190.69 1073.63H1190.87C1190.1 1073.74 1189.37 1074.04 1188.75 1074.51C1184.43 1065.53 1181.22 1056.04 1179.22 1046.28L1183.81 1045.22L1197.93 1042.04L1202.16 1041.16H1203.05L1210.28 1039.57L1235.51 1033.4L1242.04 1031.81C1243.81 1037.1 1247.87 1042.57 1249.45 1047.34C1251.04 1052.1 1254.22 1057.39 1256.51 1062.69L1198.99 1072.22L1193.69 1073.1L1192.46 1073.28ZM1225.28 985.399C1229.69 985.222 1229.51 988.751 1231.1 991.398L1241.34 1013.63L1223.34 1017.87L1180.99 1027.75L1176.4 1028.81C1175.34 1019.46 1174.64 1010.1 1174.28 1001.1L1225.28 985.399ZM1250.16 1090.57C1249.59 1091.3 1248.77 1091.8 1247.87 1091.98C1234.81 1095.16 1221.57 1097.8 1208.34 1099.92C1204.89 1096.91 1201.64 1093.67 1198.63 1090.22L1208.52 1088.98L1217.69 1087.75L1222.63 1087.04H1223.34C1231.81 1085.8 1240.28 1084.04 1248.75 1082.27C1249.85 1084.32 1250.62 1086.52 1251.04 1088.8L1250.16 1090.57Z" fill="#091C59"/>
<path d="M425.564 1267.91L465.444 1315.2L522.44 1192.56L560.203 1237.21L616.14 1035.16L542.557 1164.86L507.794 1125.68L425.564 1267.91Z" fill="white"/>
<path d="M465.444 1325.79C463.889 1325.78 462.355 1325.42 460.952 1324.75C459.55 1324.08 458.312 1323.11 457.327 1321.91L417.447 1274.79C416.009 1273.13 415.133 1271.06 414.943 1268.88C414.753 1266.69 415.259 1264.5 416.388 1262.62L498.618 1120.39C499.493 1118.98 500.679 1117.78 502.086 1116.89C503.492 1116.01 505.083 1115.45 506.735 1115.27C508.409 1115.09 510.102 1115.31 511.67 1115.93C513.237 1116.54 514.632 1117.53 515.735 1118.8L540.616 1146.86L606.964 1029.87C608.233 1027.6 610.292 1025.87 612.75 1025.02C615.208 1024.17 617.893 1024.26 620.293 1025.26C622.692 1026.26 624.638 1028.12 625.76 1030.46C626.882 1032.81 627.101 1035.49 626.375 1037.98L570.437 1240.03C569.917 1241.89 568.905 1243.58 567.508 1244.91C566.11 1246.25 564.379 1247.18 562.497 1247.62C560.604 1248.04 558.633 1247.93 556.797 1247.31C554.961 1246.69 553.332 1245.57 552.086 1244.09L524.911 1212.15L474.973 1319.61C474.254 1321.23 473.128 1322.63 471.705 1323.68C470.283 1324.73 468.612 1325.4 466.856 1325.61L465.444 1325.79ZM438.446 1266.67L462.797 1295.61L512.735 1188.15C513.498 1186.53 514.658 1185.13 516.109 1184.08C517.559 1183.03 519.252 1182.37 521.029 1182.15C522.776 1181.89 524.56 1182.1 526.201 1182.75C527.843 1183.4 529.285 1184.47 530.381 1185.86L555.262 1215.15L582.966 1114.92L551.733 1170.15C550.888 1171.61 549.713 1172.84 548.303 1173.76C546.894 1174.68 545.288 1175.26 543.615 1175.45C541.942 1175.63 540.249 1175.4 538.681 1174.79C537.114 1174.17 535.719 1173.19 534.616 1171.92L509.559 1143.68L438.446 1266.67Z" fill="#091C59"/>
<path d="M272.222 983.81L267.458 1045.39L394.155 998.457L389.567 1056.86L571.497 952.577L427.859 992.986L430.859 940.754L272.222 983.81Z" fill="white"/>
<path d="M389.567 1067.45C387.489 1067.49 385.451 1066.87 383.744 1065.69C382.151 1064.65 380.868 1063.2 380.03 1061.49C379.191 1059.78 378.829 1057.88 378.98 1055.98L382.156 1014.16L270.986 1055.45C269.314 1056.07 267.511 1056.25 265.75 1055.97C263.989 1055.69 262.329 1054.97 260.928 1053.86C259.521 1052.81 258.408 1051.42 257.697 1049.81C256.987 1048.2 256.702 1046.44 256.87 1044.69L261.634 982.928C261.823 980.738 262.689 978.661 264.112 976.985C265.535 975.309 267.444 974.117 269.575 973.576L428.035 930.52C429.636 930.073 431.32 930.017 432.947 930.355C434.574 930.692 436.097 931.414 437.388 932.461C438.708 933.511 439.764 934.856 440.469 936.389C441.174 937.921 441.509 939.598 441.446 941.284L439.329 978.87L568.674 942.519C571.134 941.76 573.79 941.956 576.112 943.068C578.434 944.18 580.251 946.126 581.202 948.519C582.235 950.879 582.356 953.539 581.541 955.984C580.726 958.429 579.034 960.484 576.791 961.753L394.685 1066.04C393.126 1066.94 391.365 1067.42 389.567 1067.45ZM394.155 987.869C396.442 987.894 398.664 988.634 400.508 989.987C401.917 991.078 403.027 992.507 403.737 994.142C404.446 995.777 404.732 997.564 404.566 999.339L401.566 1037.63L491.914 986.105L430.682 1003.22C429.08 1003.65 427.399 1003.7 425.775 1003.37C424.15 1003.03 422.628 1002.31 421.33 1001.28C419.976 1000.26 418.896 998.921 418.188 997.381C417.479 995.841 417.164 994.149 417.271 992.457L419.389 954.871L282.28 992.104L279.28 1029.69L390.45 988.575C391.618 988.07 392.883 987.829 394.155 987.869Z" fill="#091C59"/>
<path d="M288.279 708.357L247.34 754.59L376.685 793.411L337.864 837.173L546.086 863.465L407.036 809.292L440.74 769.412L288.279 708.357Z" fill="white"/>
<path d="M546.086 874.053H544.675L336.629 847.76C334.707 847.484 332.893 846.701 331.373 845.491C329.853 844.282 328.683 842.69 327.983 840.878C327.319 839.062 327.165 837.098 327.538 835.201C327.912 833.303 328.798 831.544 330.1 830.114L357.804 798.704L244.164 764.824C242.485 764.288 240.964 763.348 239.733 762.087C238.502 760.825 237.6 759.281 237.106 757.589C236.578 755.887 236.513 754.074 236.916 752.338C237.319 750.602 238.176 749.004 239.4 747.708L280.338 701.299C281.795 699.692 283.703 698.562 285.813 698.059C287.923 697.555 290.136 697.7 292.161 698.475L444.799 759.53C446.337 760.146 447.702 761.127 448.778 762.387C449.854 763.647 450.608 765.149 450.975 766.765C451.445 768.376 451.497 770.079 451.126 771.715C450.756 773.352 449.975 774.867 448.857 776.118L424.682 804.88L549.792 853.583C552.208 854.533 554.2 856.324 555.4 858.627C556.599 860.929 556.927 863.587 556.321 866.112C555.735 868.382 554.412 870.393 552.56 871.83C550.708 873.267 548.431 874.049 546.086 874.053ZM359.216 829.232L462.268 842.29L403.154 819.174C401.575 818.595 400.166 817.63 399.056 816.366C397.946 815.102 397.171 813.58 396.802 811.939C396.349 810.298 396.305 808.572 396.674 806.911C397.044 805.25 397.814 803.704 398.919 802.41L423.271 773.647L291.279 720.886L266.222 749.296L379.685 783.176C381.416 783.67 382.993 784.597 384.267 785.869C385.54 787.142 386.468 788.718 386.962 790.449C387.457 792.18 387.502 794.009 387.093 795.762C386.684 797.515 385.835 799.135 384.626 800.469L359.216 829.232Z" fill="#091C59"/>
</svg>
